<svg xmlns="http://www.w3.org/2000/svg" xmlns:xlink="http://www.w3.org/1999/xlink" width="500" zoomAndPan="magnify" viewBox="0 0 375 374.999991" height="500" preserveAspectRatio="xMidYMid meet" version="1.0"><defs><clipPath id="6afe674b58"><path d="M 0 18.4375 L 340 18.4375 L 340 356.6875 L 0 356.6875 Z M 0 18.4375 " clip-rule="nonzero"/></clipPath><clipPath id="081972c157"><path d="M 64 18.4375 L 375 18.4375 L 375 356.6875 L 64 356.6875 Z M 64 18.4375 " clip-rule="nonzero"/></clipPath></defs><g clip-path="url(#6afe674b58)"><path fill="#000000" d="M 58.039062 330.382812 L 58.039062 86.605469 L 86.96875 86.605469 L 43.527344 18.4375 L 0.0859375 86.605469 L 29.015625 86.605469 L 29.015625 343.535156 C 29.015625 350.816406 35.519531 356.6875 43.527344 356.6875 L 339.160156 356.6875 L 339.160156 330.382812 Z M 58.039062 330.382812 " fill-opacity="1" fill-rule="nonzero"/></g><g clip-path="url(#081972c157)"><path fill="#000000" d="M 374.914062 356.6875 L 345.894531 356.6875 L 345.894531 44.742188 L 64.769531 44.742188 L 64.769531 18.4375 L 360.40625 18.4375 C 368.410156 18.4375 374.914062 24.308594 374.914062 31.589844 Z M 374.914062 356.6875 " fill-opacity="1" fill-rule="nonzero"/></g><path fill="#000000" d="M 221.207031 168.199219 C 214.929688 168.199219 209.699219 169.609375 205.011719 171.976562 C 200.828125 174.207031 197.1875 177.347656 193.867188 181.441406 L 193.503906 181.441406 C 189.867188 173.386719 181.3125 168.199219 170.167969 168.199219 C 155.703125 168.199219 148.0625 175.480469 144.375 180.53125 L 143.875 180.53125 L 142.828125 170.109375 L 120.359375 170.109375 C 120.722656 177.074219 121.039062 185.128906 121.039062 194.730469 L 121.039062 247.335938 L 146.832031 247.335938 L 146.832031 202.328125 C 146.832031 200.28125 147.015625 198.050781 147.878906 196.1875 C 149.425781 192.410156 153.472656 187.675781 160.253906 187.675781 C 168.804688 187.675781 172.625 194.320312 172.625 203.921875 L 172.625 247.335938 L 198.417969 247.335938 L 198.417969 202.191406 C 198.417969 200.144531 198.78125 197.777344 199.28125 196.050781 C 201.191406 191.453125 205.378906 187.675781 211.65625 187.675781 C 220.207031 187.675781 224.210938 194.136719 224.210938 205.378906 L 224.210938 247.335938 L 250.003906 247.335938 L 250.003906 201.828125 C 249.957031 178.621094 237.582031 168.199219 221.207031 168.199219 Z M 221.207031 168.199219 " fill-opacity="1" fill-rule="nonzero"/><path fill="#000000" d="M 275.25 173.886719 L 275.25 173.75 L 280.480469 169.792969 C 288.757812 163.148438 295.535156 156.277344 295.535156 147.585938 C 295.535156 138.347656 288.578125 131.566406 275.65625 131.566406 C 268.0625 131.566406 261.375 133.933594 257.1875 136.84375 L 260.917969 145.355469 C 263.875 143.398438 268.152344 141.167969 273.019531 141.167969 C 279.570312 141.167969 282.253906 144.492188 282.253906 148.675781 C 282.164062 154.683594 276.160156 160.464844 263.695312 170.566406 L 256.460938 176.480469 L 256.460938 183.761719 L 296.675781 183.761719 L 296.675781 173.886719 Z M 275.25 173.886719 " fill-opacity="1" fill-rule="nonzero"/></svg>