<svg xmlns="http://www.w3.org/2000/svg" xmlns:xlink="http://www.w3.org/1999/xlink" width="500" zoomAndPan="magnify" viewBox="0 0 375 374.999991" height="500" preserveAspectRatio="xMidYMid meet" version="1.0"><path fill="#3e8be4" d="M 27.542969 215.113281 L 280.609375 215.113281 C 280.609375 215.113281 227.296875 268.039062 225.890625 269.851562 C 222.230469 274.539062 220.035156 280.417969 220.035156 286.820312 C 220.035156 293.894531 222.707031 300.320312 227.074219 305.226562 L 229.3125 307.464844 C 234.207031 311.832031 240.644531 314.511719 247.71875 314.511719 C 254.988281 314.511719 261.59375 311.671875 266.535156 307.082031 C 266.535156 307.082031 368.644531 205.132812 369.164062 204.460938 C 372.777344 199.78125 374.945312 193.945312 374.945312 187.570312 C 374.945312 181.214844 372.777344 175.371094 369.171875 170.699219 C 367.710938 168.808594 265.261719 66.796875 265.261719 66.796875 C 260.511719 62.945312 254.460938 60.628906 247.863281 60.628906 C 232.578125 60.628906 220.179688 73.019531 220.179688 88.304688 C 220.179688 95.011719 222.5625 101.160156 226.527344 105.949219 L 280.609375 160.03125 L 27.542969 160.03125 C 12.332031 160.03125 0.00390625 172.367188 0.00390625 187.570312 C 0.00390625 202.785156 12.332031 215.113281 27.542969 215.113281 " fill-opacity="1" fill-rule="nonzero"/></svg>