<svg xmlns="http://www.w3.org/2000/svg" xmlns:xlink="http://www.w3.org/1999/xlink" width="500" zoomAndPan="magnify" viewBox="0 0 375 374.999991" height="500" preserveAspectRatio="xMidYMid meet" version="1.0"><path fill="#3e8be4" d="M 299.492188 190.0625 C 298.929688 195.988281 296.363281 201.78125 291.804688 206.34375 L 216.429688 281.714844 C 206.011719 292.101562 189.164062 292.101562 178.746094 281.714844 C 168.355469 271.296875 168.355469 254.417969 178.746094 244.03125 L 208.605469 214.167969 L 102.039062 214.167969 C 87.324219 214.167969 75.40625 202.214844 75.40625 187.5 C 75.40625 172.785156 87.324219 160.867188 102.039062 160.832031 L 208.640625 160.867188 L 178.746094 130.96875 C 168.355469 120.550781 168.355469 103.703125 178.746094 93.285156 C 189.164062 82.863281 206.042969 82.863281 216.429688 93.285156 L 291.804688 168.65625 C 297.664062 174.515625 300.226562 182.40625 299.492188 190.0625 Z M 187.5 0 C 84.128906 0 0 84.128906 0 187.5 C 0 290.90625 84.128906 375 187.5 375 C 290.90625 375 375 290.90625 375 187.5 C 375 84.128906 290.90625 0 187.5 0 " fill-opacity="1" fill-rule="nonzero"/></svg>