<svg xmlns="http://www.w3.org/2000/svg" xmlns:xlink="http://www.w3.org/1999/xlink" width="500" zoomAndPan="magnify" viewBox="0 0 375 374.999991" height="500" preserveAspectRatio="xMidYMid meet" version="1.0"><defs><clipPath id="b77d12d9a7"><path d="M 0 37.5 L 375 37.5 L 375 337 L 0 337 Z M 0 37.5 " clip-rule="nonzero"/></clipPath></defs><g clip-path="url(#b77d12d9a7)"><path fill="#000000" d="M 355.898438 162.238281 L 349.664062 162.238281 L 349.664062 56.210938 C 349.664062 55.597656 349.632812 54.988281 349.570312 54.378906 C 349.511719 53.765625 349.421875 53.160156 349.300781 52.5625 C 349.183594 51.960938 349.035156 51.367188 348.855469 50.78125 C 348.679688 50.191406 348.472656 49.617188 348.238281 49.050781 C 348.003906 48.484375 347.742188 47.929688 347.453125 47.390625 C 347.164062 46.851562 346.847656 46.324219 346.507812 45.816406 C 346.167969 45.304688 345.804688 44.816406 345.414062 44.339844 C 345.027344 43.867188 344.613281 43.414062 344.183594 42.980469 C 343.75 42.546875 343.296875 42.136719 342.820312 41.746094 C 342.347656 41.359375 341.855469 40.992188 341.347656 40.652344 C 340.835938 40.3125 340.3125 40 339.769531 39.710938 C 339.230469 39.421875 338.675781 39.160156 338.113281 38.925781 C 337.546875 38.691406 336.96875 38.484375 336.382812 38.304688 C 335.796875 38.128906 335.203125 37.980469 334.601562 37.859375 C 334 37.738281 333.394531 37.648438 332.785156 37.589844 C 332.175781 37.53125 331.5625 37.5 330.949219 37.5 L 293.527344 37.5 C 292.917969 37.5 292.304688 37.53125 291.695312 37.589844 C 291.085938 37.648438 290.480469 37.738281 289.878906 37.859375 C 289.277344 37.980469 288.683594 38.128906 288.097656 38.304688 C 287.511719 38.484375 286.933594 38.691406 286.367188 38.925781 C 285.800781 39.160156 285.25 39.421875 284.707031 39.710938 C 284.167969 40 283.644531 40.3125 283.132812 40.652344 C 282.625 40.992188 282.132812 41.359375 281.660156 41.746094 C 281.183594 42.136719 280.730469 42.546875 280.296875 42.980469 C 279.863281 43.414062 279.453125 43.867188 279.066406 44.339844 C 278.675781 44.816406 278.3125 45.304688 277.972656 45.816406 C 277.632812 46.324219 277.316406 46.851562 277.027344 47.390625 C 276.738281 47.929688 276.476562 48.484375 276.242188 49.050781 C 276.007812 49.617188 275.800781 50.191406 275.625 50.78125 C 275.445312 51.367188 275.296875 51.960938 275.175781 52.5625 C 275.058594 53.160156 274.96875 53.765625 274.90625 54.378906 C 274.847656 54.988281 274.816406 55.597656 274.816406 56.210938 L 274.816406 63.007812 C 273.738281 63.191406 272.671875 63.421875 271.613281 63.699219 C 270.554688 63.976562 269.511719 64.296875 268.480469 64.667969 C 267.453125 65.035156 266.4375 65.449219 265.445312 65.90625 C 264.453125 66.363281 263.480469 66.859375 262.53125 67.402344 C 261.578125 67.945312 260.65625 68.527344 259.757812 69.148438 C 258.855469 69.773438 257.988281 70.433594 257.144531 71.132812 C 256.304688 71.832031 255.496094 72.566406 254.71875 73.335938 C 253.941406 74.109375 253.199219 74.910156 252.496094 75.746094 C 251.789062 76.582031 251.121094 77.445312 250.488281 78.339844 C 249.859375 79.230469 249.265625 80.152344 248.71875 81.097656 C 248.167969 82.042969 247.660156 83.007812 247.195312 84 C 246.726562 84.988281 246.308594 85.996094 245.929688 87.023438 C 245.554688 88.050781 245.222656 89.089844 244.933594 90.148438 C 244.648438 91.203125 244.410156 92.269531 244.21875 93.347656 C 244.023438 94.421875 243.878906 95.507812 243.78125 96.59375 C 243.683594 97.683594 243.636719 98.777344 243.632812 99.871094 L 243.632812 106.105469 C 243.632812 106.515625 243.671875 106.921875 243.753906 107.324219 C 243.832031 107.726562 243.949219 108.117188 244.109375 108.492188 C 244.265625 108.871094 244.457031 109.230469 244.683594 109.570312 C 244.910156 109.914062 245.171875 110.226562 245.460938 110.515625 C 245.75 110.808594 246.0625 111.066406 246.40625 111.292969 C 246.746094 111.519531 247.105469 111.710938 247.484375 111.871094 C 247.863281 112.027344 248.25 112.144531 248.652344 112.222656 C 249.054688 112.304688 249.460938 112.34375 249.871094 112.34375 L 312.238281 112.34375 C 312.648438 112.34375 313.054688 112.304688 313.457031 112.222656 C 313.859375 112.144531 314.25 112.027344 314.625 111.871094 C 315.003906 111.710938 315.363281 111.519531 315.707031 111.292969 C 316.046875 111.066406 316.359375 110.808594 316.648438 110.515625 C 316.941406 110.226562 317.199219 109.914062 317.425781 109.570312 C 317.652344 109.230469 317.84375 108.871094 318.003906 108.492188 C 318.160156 108.117188 318.277344 107.726562 318.355469 107.324219 C 318.4375 106.921875 318.476562 106.515625 318.476562 106.105469 L 318.476562 99.871094 C 318.476562 98.777344 318.425781 97.683594 318.328125 96.59375 C 318.230469 95.507812 318.085938 94.421875 317.890625 93.347656 C 317.699219 92.269531 317.460938 91.203125 317.175781 90.148438 C 316.890625 89.089844 316.558594 88.050781 316.179688 87.023438 C 315.804688 85.996094 315.382812 84.988281 314.917969 84 C 314.449219 83.007812 313.941406 82.042969 313.394531 81.097656 C 312.84375 80.152344 312.253906 79.230469 311.621094 78.339844 C 310.992188 77.445312 310.320312 76.582031 309.617188 75.746094 C 308.910156 74.910156 308.167969 74.109375 307.390625 73.335938 C 306.613281 72.566406 305.804688 71.832031 304.964844 71.132812 C 304.121094 70.433594 303.253906 69.773438 302.355469 69.148438 C 301.453125 68.527344 300.53125 67.945312 299.582031 67.402344 C 298.628906 66.859375 297.660156 66.363281 296.664062 65.90625 C 295.671875 65.449219 294.660156 65.035156 293.628906 64.667969 C 292.597656 64.296875 291.554688 63.976562 290.496094 63.699219 C 289.4375 63.421875 288.371094 63.191406 287.292969 63.007812 L 287.292969 56.210938 C 287.292969 55.800781 287.332031 55.394531 287.410156 54.996094 C 287.492188 54.59375 287.609375 54.203125 287.765625 53.824219 C 287.921875 53.445312 288.117188 53.085938 288.34375 52.746094 C 288.570312 52.40625 288.828125 52.089844 289.117188 51.800781 C 289.410156 51.511719 289.722656 51.253906 290.0625 51.023438 C 290.40625 50.796875 290.765625 50.605469 291.140625 50.449219 C 291.519531 50.292969 291.910156 50.171875 292.3125 50.09375 C 292.714844 50.015625 293.121094 49.972656 293.527344 49.972656 L 330.949219 49.972656 C 331.359375 49.972656 331.765625 50.015625 332.167969 50.09375 C 332.570312 50.171875 332.960938 50.292969 333.335938 50.449219 C 333.714844 50.605469 334.074219 50.796875 334.417969 51.023438 C 334.757812 51.253906 335.070312 51.511719 335.359375 51.800781 C 335.652344 52.089844 335.910156 52.40625 336.136719 52.746094 C 336.363281 53.085938 336.554688 53.445312 336.714844 53.824219 C 336.871094 54.203125 336.988281 54.59375 337.066406 54.996094 C 337.148438 55.394531 337.1875 55.800781 337.1875 56.210938 L 337.1875 162.238281 L 148.929688 162.238281 C 148.609375 161.335938 148.222656 160.460938 147.769531 159.617188 C 147.316406 158.773438 146.800781 157.96875 146.222656 157.203125 C 145.648438 156.441406 145.015625 155.722656 144.328125 155.054688 C 143.640625 154.386719 142.90625 153.777344 142.125 153.222656 C 141.34375 152.667969 140.523438 152.175781 139.667969 151.746094 C 138.808594 151.316406 137.925781 150.957031 137.011719 150.664062 C 136.101562 150.371094 135.171875 150.148438 134.222656 149.996094 C 133.277344 149.847656 132.324219 149.769531 131.367188 149.765625 L 81.472656 149.765625 C 80.511719 149.769531 79.558594 149.847656 78.613281 149.996094 C 77.667969 150.148438 76.738281 150.371094 75.824219 150.664062 C 74.914062 150.957031 74.027344 151.316406 73.171875 151.746094 C 72.3125 152.175781 71.496094 152.667969 70.714844 153.222656 C 69.933594 153.777344 69.199219 154.386719 68.511719 155.054688 C 67.824219 155.722656 67.191406 156.441406 66.613281 157.203125 C 66.035156 157.96875 65.519531 158.773438 65.066406 159.617188 C 64.613281 160.460938 64.226562 161.335938 63.90625 162.238281 L 19.101562 162.238281 C 18.488281 162.242188 17.878906 162.277344 17.269531 162.339844 C 16.660156 162.402344 16.058594 162.496094 15.457031 162.617188 C 14.859375 162.738281 14.265625 162.890625 13.679688 163.070312 C 13.097656 163.25 12.519531 163.457031 11.957031 163.691406 C 11.390625 163.929688 10.839844 164.191406 10.300781 164.480469 C 9.761719 164.769531 9.238281 165.085938 8.730469 165.425781 C 8.222656 165.765625 7.730469 166.132812 7.257812 166.519531 C 6.785156 166.90625 6.332031 167.320312 5.902344 167.75 C 5.46875 168.183594 5.058594 168.636719 4.667969 169.109375 C 4.28125 169.582031 3.917969 170.074219 3.574219 170.582031 C 3.234375 171.089844 2.917969 171.613281 2.628906 172.152344 C 2.339844 172.691406 2.078125 173.242188 1.84375 173.808594 C 1.605469 174.371094 1.398438 174.945312 1.21875 175.53125 C 1.039062 176.117188 0.886719 176.707031 0.765625 177.308594 C 0.644531 177.90625 0.550781 178.511719 0.488281 179.121094 C 0.425781 179.730469 0.394531 180.339844 0.390625 180.949219 C 0.394531 181.910156 0.472656 182.863281 0.621094 183.808594 C 0.773438 184.753906 0.992188 185.683594 1.285156 186.597656 C 1.578125 187.507812 1.941406 188.394531 2.371094 189.25 C 2.796875 190.109375 3.289062 190.925781 3.84375 191.707031 C 4.402344 192.488281 5.011719 193.222656 5.679688 193.910156 C 6.347656 194.597656 7.0625 195.230469 7.828125 195.808594 C 8.59375 196.386719 9.398438 196.902344 10.242188 197.355469 C 11.085938 197.808594 11.960938 198.195312 12.863281 198.515625 L 12.863281 255.796875 C 12.867188 258.898438 13.078125 261.992188 13.503906 265.066406 C 13.925781 268.140625 14.554688 271.175781 15.386719 274.167969 C 16.222656 277.15625 17.253906 280.078125 18.484375 282.929688 C 19.714844 285.777344 21.132812 288.535156 22.734375 291.191406 C 24.339844 293.851562 26.117188 296.386719 28.0625 298.804688 C 30.011719 301.222656 32.117188 303.496094 34.371094 305.628906 C 36.628906 307.761719 39.019531 309.730469 41.546875 311.539062 C 44.070312 313.347656 46.703125 314.976562 49.449219 316.425781 L 39.640625 326.230469 C 39.339844 326.515625 39.074219 326.832031 38.839844 327.171875 C 38.605469 327.511719 38.40625 327.875 38.242188 328.253906 C 38.078125 328.632812 37.953125 329.027344 37.867188 329.433594 C 37.785156 329.839844 37.738281 330.246094 37.734375 330.660156 C 37.730469 331.074219 37.769531 331.484375 37.847656 331.894531 C 37.925781 332.300781 38.042969 332.695312 38.199219 333.078125 C 38.355469 333.460938 38.550781 333.824219 38.777344 334.167969 C 39.007812 334.515625 39.269531 334.832031 39.5625 335.125 C 39.855469 335.417969 40.171875 335.679688 40.519531 335.910156 C 40.863281 336.136719 41.226562 336.332031 41.609375 336.488281 C 41.992188 336.644531 42.390625 336.761719 42.796875 336.839844 C 43.203125 336.917969 43.613281 336.957031 44.027344 336.953125 C 44.441406 336.949219 44.851562 336.90625 45.253906 336.820312 C 45.660156 336.734375 46.054688 336.609375 46.433594 336.445312 C 46.8125 336.28125 47.175781 336.082031 47.515625 335.847656 C 47.855469 335.613281 48.171875 335.347656 48.457031 335.050781 L 59.605469 323.902344 C 60.316406 323.164062 60.808594 322.296875 61.082031 321.308594 C 67.722656 323.375 74.515625 324.40625 81.472656 324.402344 L 293.527344 324.402344 C 300.273438 324.402344 306.871094 323.421875 313.324219 321.464844 C 313.53125 321.863281 313.78125 322.230469 314.066406 322.574219 L 326.460938 334.96875 C 326.75 335.25 327.066406 335.5 327.40625 335.71875 C 327.746094 335.941406 328.105469 336.125 328.480469 336.273438 C 328.859375 336.425781 329.246094 336.535156 329.644531 336.613281 C 330.042969 336.6875 330.441406 336.722656 330.847656 336.71875 C 331.253906 336.714844 331.652344 336.671875 332.050781 336.589844 C 332.445312 336.507812 332.832031 336.390625 333.207031 336.234375 C 333.578125 336.078125 333.933594 335.886719 334.269531 335.660156 C 334.605469 335.433594 334.917969 335.179688 335.203125 334.890625 C 335.492188 334.605469 335.746094 334.292969 335.972656 333.957031 C 336.199219 333.621094 336.390625 333.265625 336.546875 332.894531 C 336.703125 332.519531 336.820312 332.136719 336.902344 331.738281 C 336.984375 331.339844 337.027344 330.941406 337.03125 330.535156 C 337.035156 330.128906 337 329.730469 336.921875 329.332031 C 336.847656 328.933594 336.738281 328.546875 336.585938 328.171875 C 336.4375 327.792969 336.25 327.4375 336.03125 327.09375 C 335.8125 326.753906 335.5625 326.441406 335.28125 326.148438 L 325.554688 316.425781 C 328.300781 314.976562 330.9375 313.34375 333.460938 311.539062 C 335.984375 309.730469 338.375 307.761719 340.632812 305.628906 C 342.886719 303.496094 344.988281 301.222656 346.9375 298.804688 C 348.886719 296.386719 350.664062 293.847656 352.265625 291.191406 C 353.871094 288.53125 355.289062 285.777344 356.515625 282.925781 C 357.746094 280.078125 358.78125 277.15625 359.613281 274.164062 C 360.449219 271.175781 361.074219 268.140625 361.496094 265.066406 C 361.921875 261.988281 362.132812 258.898438 362.136719 255.796875 L 362.136719 198.535156 C 364.777344 197.632812 367.078125 196.191406 369.039062 194.210938 C 369.929688 193.351562 370.722656 192.410156 371.417969 191.390625 C 372.117188 190.371094 372.703125 189.289062 373.183594 188.152344 C 373.660156 187.011719 374.019531 185.835938 374.261719 184.625 C 374.5 183.410156 374.617188 182.1875 374.609375 180.949219 C 374.609375 180.339844 374.582031 179.726562 374.519531 179.117188 C 374.460938 178.507812 374.371094 177.902344 374.25 177.300781 C 374.132812 176.699219 373.980469 176.105469 373.804688 175.519531 C 373.625 174.933594 373.421875 174.355469 373.1875 173.789062 C 372.953125 173.222656 372.691406 172.671875 372.402344 172.128906 C 372.113281 171.589844 371.796875 171.066406 371.457031 170.554688 C 371.117188 170.046875 370.75 169.554688 370.363281 169.082031 C 369.972656 168.605469 369.5625 168.152344 369.128906 167.71875 C 368.695312 167.289062 368.242188 166.875 367.769531 166.488281 C 367.296875 166.097656 366.804688 165.734375 366.292969 165.394531 C 365.785156 165.054688 365.261719 164.738281 364.71875 164.449219 C 364.179688 164.160156 363.625 163.898438 363.058594 163.664062 C 362.492188 163.429688 361.917969 163.222656 361.332031 163.046875 C 360.746094 162.867188 360.152344 162.71875 359.550781 162.601562 C 358.949219 162.480469 358.34375 162.390625 357.734375 162.332031 C 357.125 162.269531 356.511719 162.238281 355.898438 162.238281 Z M 306.003906 99.871094 L 256.105469 99.871094 C 256.105469 99.054688 256.148438 98.238281 256.226562 97.425781 C 256.308594 96.613281 256.425781 95.804688 256.585938 95.003906 C 256.746094 94.203125 256.945312 93.410156 257.179688 92.628906 C 257.417969 91.847656 257.695312 91.078125 258.007812 90.324219 C 258.320312 89.566406 258.667969 88.832031 259.054688 88.109375 C 259.4375 87.390625 259.859375 86.6875 260.3125 86.007812 C 260.765625 85.332031 261.25 84.675781 261.769531 84.042969 C 262.289062 83.410156 262.835938 82.808594 263.414062 82.230469 C 263.992188 81.652344 264.597656 81.101562 265.226562 80.585938 C 265.859375 80.066406 266.515625 79.582031 267.195312 79.125 C 267.875 78.671875 268.574219 78.253906 269.292969 77.867188 C 270.015625 77.484375 270.753906 77.132812 271.507812 76.820312 C 272.261719 76.507812 273.03125 76.234375 273.8125 75.996094 C 274.59375 75.757812 275.386719 75.5625 276.1875 75.402344 C 276.988281 75.242188 277.796875 75.121094 278.609375 75.042969 C 279.421875 74.960938 280.238281 74.921875 281.054688 74.921875 C 281.871094 74.921875 282.6875 74.960938 283.5 75.042969 C 284.3125 75.121094 285.121094 75.242188 285.921875 75.402344 C 286.722656 75.5625 287.515625 75.757812 288.296875 75.996094 C 289.078125 76.234375 289.847656 76.507812 290.601562 76.820312 C 291.355469 77.132812 292.09375 77.484375 292.816406 77.867188 C 293.535156 78.253906 294.234375 78.671875 294.914062 79.125 C 295.59375 79.582031 296.25 80.066406 296.882812 80.585938 C 297.511719 81.101562 298.117188 81.652344 298.695312 82.230469 C 299.273438 82.808594 299.820312 83.410156 300.339844 84.042969 C 300.859375 84.675781 301.34375 85.332031 301.796875 86.007812 C 302.253906 86.6875 302.671875 87.390625 303.058594 88.109375 C 303.441406 88.832031 303.792969 89.566406 304.105469 90.324219 C 304.417969 91.078125 304.691406 91.847656 304.929688 92.628906 C 305.167969 93.410156 305.363281 94.203125 305.523438 95.003906 C 305.683594 95.804688 305.804688 96.613281 305.882812 97.425781 C 305.964844 98.238281 306.003906 99.054688 306.003906 99.871094 Z M 75.234375 168.476562 C 75.234375 168.066406 75.273438 167.660156 75.355469 167.261719 C 75.433594 166.859375 75.550781 166.46875 75.707031 166.089844 C 75.867188 165.710938 76.058594 165.351562 76.285156 165.011719 C 76.511719 164.671875 76.769531 164.355469 77.0625 164.066406 C 77.351562 163.777344 77.664062 163.519531 78.003906 163.292969 C 78.347656 163.0625 78.707031 162.871094 79.085938 162.714844 C 79.460938 162.558594 79.851562 162.441406 80.253906 162.359375 C 80.65625 162.28125 81.0625 162.238281 81.472656 162.238281 L 131.367188 162.238281 C 131.777344 162.238281 132.183594 162.28125 132.582031 162.359375 C 132.984375 162.441406 133.375 162.558594 133.753906 162.714844 C 134.132812 162.871094 134.492188 163.0625 134.832031 163.292969 C 135.171875 163.519531 135.488281 163.777344 135.777344 164.066406 C 136.066406 164.355469 136.324219 164.671875 136.554688 165.011719 C 136.78125 165.351562 136.972656 165.710938 137.128906 166.089844 C 137.285156 166.46875 137.402344 166.859375 137.484375 167.261719 C 137.5625 167.660156 137.605469 168.066406 137.605469 168.476562 L 137.605469 224.609375 L 75.234375 224.609375 Z M 75.234375 237.085938 L 137.605469 237.085938 L 137.605469 249.558594 L 75.234375 249.558594 Z M 12.863281 180.949219 C 12.863281 180.109375 13.027344 179.304688 13.359375 178.535156 C 13.691406 177.761719 14.160156 177.085938 14.773438 176.511719 C 15.339844 175.929688 16 175.480469 16.753906 175.167969 C 17.503906 174.859375 18.289062 174.707031 19.101562 174.714844 L 62.761719 174.714844 L 62.761719 187.1875 L 19.101562 187.1875 C 18.691406 187.1875 18.285156 187.148438 17.882812 187.066406 C 17.480469 186.988281 17.09375 186.871094 16.714844 186.714844 C 16.335938 186.554688 15.976562 186.363281 15.636719 186.136719 C 15.296875 185.910156 14.980469 185.652344 14.691406 185.363281 C 14.402344 185.070312 14.140625 184.757812 13.914062 184.417969 C 13.6875 184.074219 13.496094 183.714844 13.339844 183.339844 C 13.183594 182.960938 13.0625 182.570312 12.984375 182.167969 C 12.902344 181.765625 12.863281 181.359375 12.863281 180.949219 Z M 349.664062 255.796875 C 349.660156 257.632812 349.566406 259.464844 349.386719 261.296875 C 349.203125 263.125 348.933594 264.941406 348.574219 266.742188 C 348.214844 268.542969 347.765625 270.324219 347.230469 272.082031 C 346.695312 273.839844 346.078125 275.570312 345.371094 277.265625 C 344.667969 278.964844 343.882812 280.625 343.015625 282.242188 C 342.148438 283.863281 341.203125 285.4375 340.183594 286.964844 C 339.160156 288.496094 338.066406 289.96875 336.902344 291.390625 C 335.734375 292.808594 334.503906 294.167969 333.203125 295.46875 C 331.902344 296.769531 330.542969 298 329.121094 299.167969 C 327.703125 300.332031 326.226562 301.425781 324.699219 302.449219 C 323.171875 303.46875 321.597656 304.414062 319.976562 305.28125 C 318.355469 306.148438 316.699219 306.933594 315 307.640625 C 313.304688 308.34375 311.574219 308.960938 309.816406 309.496094 C 308.058594 310.03125 306.277344 310.480469 304.476562 310.839844 C 302.671875 311.199219 300.859375 311.46875 299.027344 311.652344 C 297.199219 311.835938 295.367188 311.925781 293.527344 311.929688 L 81.472656 311.929688 C 79.632812 311.925781 77.800781 311.835938 75.972656 311.652344 C 74.140625 311.46875 72.328125 311.199219 70.523438 310.839844 C 68.722656 310.480469 66.941406 310.03125 65.183594 309.496094 C 63.425781 308.960938 61.695312 308.34375 60 307.640625 C 58.300781 306.933594 56.644531 306.148438 55.023438 305.28125 C 53.402344 304.414062 51.828125 303.46875 50.300781 302.449219 C 48.773438 301.425781 47.296875 300.332031 45.878906 299.167969 C 44.457031 298 43.097656 296.769531 41.796875 295.46875 C 40.496094 294.167969 39.265625 292.808594 38.097656 291.390625 C 36.933594 289.96875 35.839844 288.496094 34.816406 286.964844 C 33.796875 285.4375 32.851562 283.863281 31.984375 282.242188 C 31.117188 280.625 30.332031 278.964844 29.628906 277.265625 C 28.921875 275.570312 28.304688 273.839844 27.769531 272.082031 C 27.234375 270.324219 26.785156 268.542969 26.425781 266.742188 C 26.066406 264.941406 25.796875 263.125 25.613281 261.296875 C 25.433594 259.464844 25.339844 257.632812 25.335938 255.796875 L 25.335938 199.664062 L 62.761719 199.664062 L 62.761719 255.796875 C 62.761719 256.203125 62.800781 256.609375 62.878906 257.011719 C 62.960938 257.414062 63.078125 257.804688 63.234375 258.183594 C 63.390625 258.558594 63.582031 258.917969 63.8125 259.261719 C 64.039062 259.601562 64.296875 259.914062 64.585938 260.207031 C 64.875 260.496094 65.191406 260.753906 65.53125 260.980469 C 65.871094 261.207031 66.230469 261.402344 66.609375 261.558594 C 66.988281 261.714844 67.378906 261.832031 67.78125 261.914062 C 68.183594 261.992188 68.585938 262.03125 68.996094 262.03125 L 143.839844 262.03125 C 144.25 262.03125 144.65625 261.992188 145.058594 261.914062 C 145.460938 261.832031 145.847656 261.714844 146.226562 261.558594 C 146.605469 261.402344 146.964844 261.207031 147.304688 260.980469 C 147.648438 260.753906 147.960938 260.496094 148.25 260.207031 C 148.539062 259.914062 148.800781 259.601562 149.027344 259.261719 C 149.253906 258.917969 149.445312 258.558594 149.601562 258.183594 C 149.761719 257.804688 149.878906 257.414062 149.957031 257.011719 C 150.039062 256.609375 150.078125 256.203125 150.078125 255.796875 L 150.078125 199.664062 L 349.664062 199.664062 Z M 360.226562 185.390625 C 359.660156 185.972656 359 186.421875 358.246094 186.734375 C 357.496094 187.042969 356.710938 187.195312 355.898438 187.1875 L 150.078125 187.1875 L 150.078125 174.714844 L 355.898438 174.714844 C 356.308594 174.714844 356.714844 174.753906 357.117188 174.832031 C 357.515625 174.914062 357.90625 175.03125 358.285156 175.1875 C 358.664062 175.34375 359.023438 175.539062 359.363281 175.765625 C 359.703125 175.992188 360.019531 176.25 360.308594 176.539062 C 360.597656 176.832031 360.859375 177.144531 361.085938 177.484375 C 361.3125 177.828125 361.503906 178.1875 361.660156 178.5625 C 361.816406 178.941406 361.9375 179.332031 362.015625 179.734375 C 362.097656 180.136719 362.136719 180.542969 362.136719 180.949219 C 362.136719 181.792969 361.972656 182.597656 361.640625 183.367188 C 361.308594 184.140625 360.835938 184.816406 360.226562 185.390625 Z M 360.226562 185.390625 " fill-opacity="1" fill-rule="nonzero"/></g></svg>