<svg xmlns="http://www.w3.org/2000/svg" xmlns:xlink="http://www.w3.org/1999/xlink" width="500" zoomAndPan="magnify" viewBox="0 0 375 374.999991" height="500" preserveAspectRatio="xMidYMid meet" version="1.0"><defs><clipPath id="d99b411832"><path d="M 263 57.1875 L 375 57.1875 L 375 270 L 263 270 Z M 263 57.1875 " clip-rule="nonzero"/></clipPath><clipPath id="033cc55640"><path d="M 0 90 L 302 90 L 302 318.1875 L 0 318.1875 Z M 0 90 " clip-rule="nonzero"/></clipPath></defs><g clip-path="url(#d99b411832)"><path fill="#000000" d="M 374.773438 265.511719 L 374.773438 151.480469 C 374.773438 151.210938 374.746094 150.941406 374.691406 150.675781 C 374.640625 150.410156 374.5625 150.152344 374.457031 149.902344 C 374.355469 149.652344 374.226562 149.414062 374.078125 149.1875 C 373.925781 148.960938 373.757812 148.753906 373.566406 148.5625 C 373.375 148.371094 373.164062 148.199219 372.941406 148.050781 C 372.714844 147.898438 372.476562 147.769531 372.226562 147.667969 C 371.976562 147.5625 371.71875 147.484375 371.457031 147.433594 C 371.191406 147.378906 370.921875 147.351562 370.652344 147.351562 L 320.746094 147.351562 L 320.746094 114.714844 L 338.675781 114.714844 C 338.984375 114.714844 339.289062 114.683594 339.589844 114.613281 C 339.890625 114.546875 340.179688 114.445312 340.457031 114.3125 C 340.734375 114.179688 340.992188 114.015625 341.234375 113.824219 C 341.476562 113.632812 341.691406 113.417969 341.886719 113.175781 C 342.078125 112.9375 342.242188 112.675781 342.378906 112.398438 C 342.511719 112.121094 342.617188 111.835938 342.6875 111.535156 C 342.757812 111.234375 342.792969 110.929688 342.796875 110.621094 C 342.796875 110.3125 342.765625 110.007812 342.699219 109.707031 L 333.457031 67.484375 C 333.296875 66.757812 333.074219 66.054688 332.792969 65.367188 C 332.511719 64.683594 332.175781 64.023438 331.785156 63.394531 C 331.394531 62.765625 330.953125 62.175781 330.464844 61.621094 C 329.972656 61.066406 329.4375 60.554688 328.863281 60.089844 C 328.285156 59.625 327.671875 59.214844 327.027344 58.851562 C 326.378906 58.492188 325.707031 58.1875 325.011719 57.9375 C 324.3125 57.691406 323.601562 57.5 322.871094 57.375 C 322.140625 57.246094 321.40625 57.179688 320.667969 57.179688 L 295.238281 57.179688 C 294.496094 57.179688 293.761719 57.246094 293.035156 57.375 C 292.304688 57.503906 291.59375 57.691406 290.894531 57.9375 C 290.195312 58.1875 289.523438 58.492188 288.878906 58.851562 C 288.234375 59.214844 287.621094 59.625 287.042969 60.089844 C 286.46875 60.554688 285.933594 61.066406 285.441406 61.621094 C 284.953125 62.175781 284.511719 62.765625 284.121094 63.394531 C 283.730469 64.023438 283.394531 64.683594 283.113281 65.367188 C 282.832031 66.054688 282.609375 66.757812 282.449219 67.480469 L 273.203125 109.707031 C 273.136719 110.007812 273.105469 110.3125 273.109375 110.621094 C 273.113281 110.929688 273.148438 111.234375 273.21875 111.535156 C 273.289062 111.835938 273.390625 112.121094 273.527344 112.398438 C 273.660156 112.675781 273.824219 112.9375 274.019531 113.175781 C 274.210938 113.417969 274.429688 113.632812 274.671875 113.824219 C 274.910156 114.015625 275.171875 114.179688 275.449219 114.3125 C 275.726562 114.445312 276.015625 114.546875 276.316406 114.613281 C 276.617188 114.683594 276.921875 114.714844 277.230469 114.714844 L 295.164062 114.714844 L 295.164062 147.351562 L 267.660156 147.351562 C 267.390625 147.351562 267.121094 147.378906 266.855469 147.433594 C 266.589844 147.484375 266.332031 147.5625 266.082031 147.667969 C 265.832031 147.769531 265.59375 147.898438 265.371094 148.050781 C 265.144531 148.199219 264.9375 148.371094 264.746094 148.5625 C 264.554688 148.753906 264.382812 148.960938 264.234375 149.1875 C 264.082031 149.414062 263.957031 149.652344 263.851562 149.902344 C 263.75 150.152344 263.671875 150.410156 263.617188 150.675781 C 263.566406 150.941406 263.539062 151.210938 263.539062 151.480469 C 263.539062 151.75 263.566406 152.019531 263.617188 152.285156 C 263.671875 152.550781 263.75 152.808594 263.851562 153.058594 C 263.957031 153.308594 264.082031 153.546875 264.234375 153.773438 C 264.382812 154 264.554688 154.207031 264.746094 154.398438 C 264.9375 154.589844 265.144531 154.761719 265.371094 154.914062 C 265.59375 155.0625 265.832031 155.191406 266.082031 155.292969 C 266.332031 155.398438 266.589844 155.476562 266.855469 155.527344 C 267.121094 155.582031 267.390625 155.609375 267.660156 155.609375 L 366.53125 155.609375 L 366.53125 190.910156 L 307.953125 190.910156 C 307.683594 190.910156 307.414062 190.9375 307.148438 190.988281 C 306.886719 191.042969 306.628906 191.121094 306.378906 191.222656 C 306.128906 191.328125 305.890625 191.457031 305.664062 191.605469 C 305.441406 191.757812 305.230469 191.925781 305.039062 192.117188 C 304.847656 192.3125 304.679688 192.519531 304.527344 192.746094 C 304.378906 192.96875 304.25 193.207031 304.148438 193.457031 C 304.042969 193.707031 303.964844 193.964844 303.914062 194.230469 C 303.859375 194.5 303.832031 194.765625 303.832031 195.039062 C 303.832031 195.308594 303.859375 195.578125 303.914062 195.84375 C 303.964844 196.109375 304.042969 196.367188 304.148438 196.617188 C 304.25 196.867188 304.378906 197.105469 304.527344 197.332031 C 304.679688 197.554688 304.847656 197.765625 305.039062 197.957031 C 305.230469 198.148438 305.441406 198.320312 305.664062 198.46875 C 305.890625 198.621094 306.128906 198.746094 306.378906 198.851562 C 306.628906 198.953125 306.886719 199.03125 307.148438 199.085938 C 307.414062 199.136719 307.683594 199.164062 307.953125 199.164062 L 366.53125 199.164062 L 366.53125 234.46875 L 315.734375 234.46875 C 315.460938 234.460938 315.1875 234.484375 314.917969 234.535156 C 314.648438 234.582031 314.386719 234.660156 314.132812 234.761719 C 313.878906 234.863281 313.640625 234.988281 313.410156 235.136719 C 313.179688 235.289062 312.96875 235.457031 312.773438 235.652344 C 312.578125 235.84375 312.402344 236.050781 312.25 236.277344 C 312.097656 236.503906 311.96875 236.746094 311.863281 237 C 311.757812 237.25 311.675781 237.511719 311.621094 237.78125 C 311.570312 238.046875 311.542969 238.320312 311.542969 238.59375 C 311.542969 238.867188 311.570312 239.140625 311.621094 239.40625 C 311.675781 239.675781 311.757812 239.9375 311.863281 240.1875 C 311.96875 240.441406 312.097656 240.683594 312.25 240.910156 C 312.402344 241.136719 312.578125 241.34375 312.773438 241.535156 C 312.96875 241.730469 313.179688 241.898438 313.410156 242.050781 C 313.640625 242.199219 313.878906 242.324219 314.132812 242.425781 C 314.386719 242.527344 314.648438 242.605469 314.917969 242.652344 C 315.1875 242.703125 315.460938 242.726562 315.734375 242.71875 L 336.15625 242.71875 C 336.496094 242.925781 336.855469 243.078125 337.238281 243.175781 C 354.96875 247.519531 353.609375 264.394531 353.542969 265.089844 C 353.515625 265.378906 353.515625 265.664062 353.546875 265.953125 C 353.574219 266.238281 353.636719 266.519531 353.726562 266.792969 C 353.816406 267.070312 353.933594 267.332031 354.078125 267.582031 C 354.222656 267.832031 354.390625 268.0625 354.582031 268.277344 C 354.777344 268.492188 354.988281 268.683594 355.222656 268.851562 C 355.457031 269.023438 355.703125 269.167969 355.96875 269.285156 C 356.230469 269.402344 356.503906 269.488281 356.785156 269.550781 C 357.070312 269.609375 357.355469 269.640625 357.640625 269.640625 L 370.648438 269.640625 C 370.917969 269.640625 371.1875 269.613281 371.453125 269.558594 C 371.71875 269.507812 371.976562 269.429688 372.226562 269.324219 C 372.476562 269.222656 372.714844 269.09375 372.941406 268.945312 C 373.164062 268.792969 373.375 268.621094 373.566406 268.429688 C 373.757812 268.238281 373.925781 268.03125 374.078125 267.804688 C 374.226562 267.582031 374.355469 267.34375 374.457031 267.09375 C 374.5625 266.839844 374.640625 266.582031 374.691406 266.316406 C 374.746094 266.050781 374.773438 265.785156 374.773438 265.511719 Z M 290.5 69.25 C 290.621094 68.710938 290.828125 68.207031 291.121094 67.738281 C 291.410156 67.265625 291.773438 66.859375 292.203125 66.511719 C 292.632812 66.164062 293.105469 65.898438 293.628906 65.714844 C 294.148438 65.527344 294.683594 65.433594 295.234375 65.429688 L 320.667969 65.429688 C 321.21875 65.433594 321.753906 65.527344 322.277344 65.714844 C 322.796875 65.898438 323.269531 66.164062 323.699219 66.511719 C 324.128906 66.859375 324.492188 67.265625 324.78125 67.738281 C 325.074219 68.207031 325.28125 68.710938 325.402344 69.25 L 333.546875 106.460938 L 282.351562 106.460938 Z M 303.402344 114.714844 L 312.5 114.714844 L 312.5 147.351562 L 303.402344 147.351562 Z M 361.78125 261.386719 C 361.667969 259.640625 361.398438 257.921875 360.976562 256.222656 C 360.554688 254.527344 359.984375 252.882812 359.265625 251.289062 C 358.546875 249.695312 357.691406 248.179688 356.703125 246.742188 C 355.714844 245.300781 354.601562 243.960938 353.375 242.71875 L 366.53125 242.71875 L 366.53125 261.386719 Z M 361.78125 261.386719 " fill-opacity="1" fill-rule="nonzero"/></g><g clip-path="url(#033cc55640)"><path fill="#000000" d="M 4.347656 318.195312 L 21.15625 318.195312 C 21.664062 318.195312 22.15625 318.105469 22.632812 317.921875 C 23.109375 317.738281 23.535156 317.476562 23.914062 317.132812 C 24.292969 316.792969 24.597656 316.394531 24.828125 315.9375 C 25.058594 315.484375 25.203125 315.003906 25.253906 314.496094 C 25.382812 313.28125 28.667969 284.675781 53.472656 278.996094 C 53.605469 278.964844 53.726562 278.910156 53.855469 278.867188 L 247.371094 278.867188 C 247.488281 278.902344 247.589844 278.953125 247.710938 278.984375 C 272.574219 284.632812 275.863281 313.28125 275.992188 314.492188 C 276.042969 315 276.183594 315.484375 276.414062 315.9375 C 276.644531 316.394531 276.949219 316.792969 277.328125 317.136719 C 277.707031 317.480469 278.132812 317.742188 278.609375 317.925781 C 279.085938 318.109375 279.578125 318.203125 280.089844 318.203125 L 296.898438 318.203125 C 297.167969 318.203125 297.4375 318.175781 297.703125 318.121094 C 297.964844 318.070312 298.222656 317.992188 298.472656 317.886719 C 298.722656 317.785156 298.960938 317.65625 299.1875 317.507812 C 299.410156 317.355469 299.621094 317.183594 299.8125 316.992188 C 300.003906 316.800781 300.171875 316.59375 300.324219 316.367188 C 300.472656 316.144531 300.601562 315.90625 300.703125 315.65625 C 300.808594 315.40625 300.886719 315.148438 300.9375 314.878906 C 300.992188 314.613281 301.019531 314.347656 301.019531 314.074219 L 301.019531 223.554688 C 301.015625 221.492188 300.828125 219.449219 300.449219 217.421875 C 300.070312 215.398438 299.511719 213.421875 298.773438 211.5 C 298.03125 209.574219 297.125 207.734375 296.046875 205.980469 C 294.96875 204.222656 293.738281 202.578125 292.359375 201.050781 C 278.695312 185.824219 259.957031 173.570312 250.375 167.816406 C 251.910156 166.371094 253.097656 164.679688 253.933594 162.742188 C 254.769531 160.804688 255.1875 158.78125 255.1875 156.667969 C 255.1875 154.785156 254.996094 152.917969 254.609375 151.074219 C 254.21875 149.230469 253.648438 147.445312 252.890625 145.71875 C 252.132812 143.992188 251.207031 142.363281 250.109375 140.828125 C 249.015625 139.296875 247.773438 137.890625 246.386719 136.617188 L 246.386719 113.742188 C 246.382812 112.976562 246.347656 112.214844 246.269531 111.457031 C 246.195312 110.699219 246.082031 109.945312 245.933594 109.195312 C 245.785156 108.449219 245.597656 107.707031 245.378906 106.976562 C 245.15625 106.246094 244.898438 105.53125 244.605469 104.824219 C 244.316406 104.121094 243.988281 103.433594 243.628906 102.757812 C 243.269531 102.085938 242.878906 101.433594 242.457031 100.796875 C 242.03125 100.164062 241.578125 99.550781 241.09375 98.960938 C 240.609375 98.371094 240.101562 97.808594 239.5625 97.269531 C 239.023438 96.726562 238.457031 96.214844 237.871094 95.730469 C 237.28125 95.246094 236.667969 94.792969 236.035156 94.371094 C 235.402344 93.945312 234.75 93.554688 234.078125 93.191406 C 233.40625 92.832031 232.71875 92.507812 232.015625 92.214844 C 231.308594 91.921875 230.59375 91.664062 229.863281 91.441406 C 229.136719 91.222656 228.398438 91.035156 227.648438 90.886719 C 226.902344 90.734375 226.148438 90.625 225.390625 90.546875 C 224.632812 90.472656 223.875 90.433594 223.113281 90.433594 L 78.136719 90.433594 C 77.375 90.433594 76.613281 90.472656 75.855469 90.546875 C 75.097656 90.625 74.34375 90.738281 73.597656 90.886719 C 72.851562 91.035156 72.113281 91.222656 71.382812 91.441406 C 70.65625 91.664062 69.9375 91.921875 69.234375 92.214844 C 68.53125 92.507812 67.84375 92.832031 67.171875 93.195312 C 66.5 93.554688 65.847656 93.945312 65.214844 94.371094 C 64.578125 94.792969 63.96875 95.25 63.378906 95.734375 C 62.789062 96.214844 62.226562 96.730469 61.6875 97.269531 C 61.148438 97.808594 60.636719 98.371094 60.15625 98.960938 C 59.671875 99.550781 59.21875 100.164062 58.792969 100.796875 C 58.371094 101.433594 57.980469 102.085938 57.621094 102.757812 C 57.261719 103.433594 56.933594 104.121094 56.640625 104.824219 C 56.351562 105.53125 56.09375 106.25 55.871094 106.976562 C 55.648438 107.707031 55.464844 108.449219 55.316406 109.195312 C 55.167969 109.945312 55.054688 110.699219 54.980469 111.457031 C 54.902344 112.214844 54.863281 112.976562 54.863281 113.742188 L 54.863281 136.617188 C 53.476562 137.890625 52.234375 139.296875 51.140625 140.828125 C 50.042969 142.363281 49.117188 143.992188 48.359375 145.71875 C 47.601562 147.445312 47.03125 149.230469 46.644531 151.074219 C 46.253906 152.917969 46.0625 154.785156 46.0625 156.667969 C 46.0625 158.78125 46.480469 160.804688 47.316406 162.742188 C 48.15625 164.679688 49.339844 166.371094 50.875 167.816406 C 41.289062 173.570312 22.554688 185.824219 8.890625 201.050781 C 7.511719 202.578125 6.285156 204.222656 5.207031 205.980469 C 4.128906 207.734375 3.21875 209.574219 2.480469 211.5 C 1.738281 213.421875 1.179688 215.398438 0.800781 217.421875 C 0.425781 219.449219 0.234375 221.492188 0.230469 223.554688 L 0.230469 314.070312 C 0.230469 314.339844 0.257812 314.609375 0.3125 314.875 C 0.363281 315.140625 0.441406 315.398438 0.546875 315.648438 C 0.648438 315.898438 0.773438 316.136719 0.925781 316.363281 C 1.074219 316.585938 1.246094 316.796875 1.4375 316.988281 C 1.628906 317.179688 1.835938 317.347656 2.0625 317.5 C 2.285156 317.652344 2.523438 317.777344 2.773438 317.882812 C 3.023438 317.984375 3.28125 318.0625 3.546875 318.117188 C 3.8125 318.171875 4.078125 318.195312 4.347656 318.195312 Z M 292.78125 270.609375 L 8.46875 270.609375 L 8.46875 243.902344 L 292.78125 243.902344 Z M 17.648438 309.945312 L 8.46875 309.945312 L 8.46875 278.867188 L 35.128906 278.867188 C 23.183594 288.476562 19 303.109375 17.648438 309.945312 Z M 283.601562 309.945312 C 282.25 303.109375 278.066406 288.476562 266.121094 278.867188 L 292.777344 278.867188 L 292.777344 309.945312 Z M 239.851562 163.78125 L 154.75 163.78125 L 154.75 157.847656 C 154.738281 157.144531 154.761719 156.445312 154.816406 155.742188 C 154.875 155.042969 154.960938 154.347656 155.085938 153.65625 C 155.207031 152.964844 155.363281 152.277344 155.546875 151.601562 C 155.734375 150.925781 155.953125 150.257812 156.207031 149.601562 C 156.457031 148.945312 156.738281 148.300781 157.046875 147.671875 C 157.359375 147.042969 157.699219 146.429688 158.070312 145.832031 C 158.441406 145.234375 158.839844 144.65625 159.261719 144.097656 C 159.6875 143.539062 160.136719 143 160.613281 142.484375 C 161.089844 141.96875 161.589844 141.476562 162.113281 141.007812 C 162.636719 140.539062 163.179688 140.097656 163.746094 139.679688 C 164.308594 139.261719 164.890625 138.875 165.496094 138.511719 C 166.097656 138.152344 166.714844 137.820312 167.347656 137.515625 C 167.980469 137.214844 168.625 136.941406 169.285156 136.703125 C 169.945312 136.460938 170.613281 136.253906 171.292969 136.074219 C 171.972656 135.898438 172.660156 135.753906 173.351562 135.644531 C 174.042969 135.53125 174.742188 135.453125 175.441406 135.40625 C 175.875 135.386719 176.3125 135.375 176.761719 135.375 L 212.515625 135.375 C 212.570312 135.375 212.632812 135.375 212.6875 135.375 C 212.824219 135.367188 226.179688 134.867188 236.476562 139.765625 C 237.261719 140.152344 238.019531 140.589844 238.742188 141.082031 C 239.464844 141.570312 240.152344 142.109375 240.800781 142.699219 C 241.449219 143.285156 242.054688 143.914062 242.613281 144.585938 C 243.171875 145.257812 243.683594 145.964844 244.144531 146.710938 C 244.605469 147.453125 245.011719 148.226562 245.367188 149.027344 C 245.71875 149.828125 246.015625 150.648438 246.25 151.492188 C 246.488281 152.335938 246.667969 153.191406 246.785156 154.058594 C 246.902344 154.925781 246.960938 155.796875 246.953125 156.671875 C 246.953125 157.140625 246.90625 157.601562 246.816406 158.058594 C 246.726562 158.515625 246.589844 158.960938 246.410156 159.394531 C 246.230469 159.824219 246.011719 160.234375 245.753906 160.621094 C 245.496094 161.007812 245.199219 161.367188 244.871094 161.699219 C 244.539062 162.027344 244.183594 162.324219 243.792969 162.582031 C 243.40625 162.84375 242.996094 163.0625 242.566406 163.238281 C 242.136719 163.417969 241.691406 163.554688 241.234375 163.644531 C 240.777344 163.738281 240.316406 163.78125 239.851562 163.78125 Z M 78.136719 98.691406 L 223.117188 98.691406 C 224.101562 98.695312 225.082031 98.792969 226.046875 98.984375 C 227.015625 99.179688 227.953125 99.464844 228.867188 99.84375 C 229.777344 100.222656 230.644531 100.683594 231.464844 101.234375 C 232.285156 101.785156 233.042969 102.40625 233.742188 103.105469 C 234.4375 103.804688 235.0625 104.566406 235.609375 105.386719 C 236.15625 106.207031 236.621094 107.074219 237 107.988281 C 237.378906 108.902344 237.664062 109.839844 237.855469 110.808594 C 238.050781 111.777344 238.148438 112.757812 238.148438 113.746094 L 238.148438 131.484375 C 226.785156 126.753906 213.789062 127.074219 212.433594 127.121094 L 176.757812 127.121094 C 176.167969 127.121094 175.589844 127.136719 175.023438 127.164062 C 173.777344 127.230469 172.539062 127.375 171.308594 127.597656 C 170.082031 127.816406 168.871094 128.117188 167.679688 128.488281 C 166.488281 128.863281 165.324219 129.308594 164.1875 129.828125 C 163.054688 130.351562 161.953125 130.9375 160.890625 131.597656 C 159.832031 132.253906 158.8125 132.976562 157.84375 133.761719 C 156.871094 134.546875 155.953125 135.390625 155.085938 136.292969 C 154.222656 137.195312 153.414062 138.144531 152.667969 139.148438 C 151.921875 140.152344 151.242188 141.195312 150.625 142.285156 C 150.011719 141.195312 149.328125 140.152344 148.582031 139.148438 C 147.835938 138.144531 147.03125 137.195312 146.164062 136.292969 C 145.300781 135.390625 144.382812 134.546875 143.410156 133.761719 C 142.4375 132.976562 141.421875 132.253906 140.359375 131.597656 C 139.296875 130.9375 138.199219 130.351562 137.066406 129.832031 C 135.929688 129.308594 134.765625 128.863281 133.574219 128.488281 C 132.382812 128.117188 131.171875 127.816406 129.945312 127.597656 C 128.714844 127.375 127.476562 127.230469 126.230469 127.164062 C 125.660156 127.132812 125.082031 127.121094 124.496094 127.121094 L 88.820312 127.121094 C 87.464844 127.074219 74.464844 126.753906 63.101562 131.484375 L 63.101562 113.746094 C 63.105469 112.757812 63.203125 111.777344 63.394531 110.808594 C 63.589844 109.839844 63.875 108.898438 64.25 107.988281 C 64.628906 107.074219 65.09375 106.207031 65.640625 105.386719 C 66.191406 104.5625 66.8125 103.804688 67.511719 103.105469 C 68.210938 102.40625 68.96875 101.78125 69.789062 101.234375 C 70.609375 100.683594 71.476562 100.222656 72.386719 99.84375 C 73.296875 99.464844 74.238281 99.175781 75.207031 98.984375 C 76.171875 98.789062 77.148438 98.695312 78.136719 98.691406 Z M 64.777344 139.765625 C 73.308594 135.703125 84.03125 135.355469 87.460938 135.355469 C 88.152344 135.355469 88.546875 135.371094 88.566406 135.371094 C 88.625 135.371094 88.6875 135.371094 88.742188 135.371094 L 124.496094 135.371094 C 124.941406 135.371094 125.382812 135.382812 125.816406 135.40625 C 126.515625 135.449219 127.214844 135.527344 127.90625 135.640625 C 128.597656 135.753906 129.285156 135.898438 129.964844 136.074219 C 130.640625 136.25 131.3125 136.460938 131.96875 136.699219 C 132.628906 136.941406 133.277344 137.210938 133.910156 137.515625 C 134.542969 137.816406 135.160156 138.148438 135.761719 138.511719 C 136.363281 138.871094 136.945312 139.261719 137.511719 139.675781 C 138.078125 140.09375 138.621094 140.535156 139.144531 141.003906 C 139.664062 141.472656 140.164062 141.964844 140.640625 142.484375 C 141.117188 143 141.566406 143.535156 141.992188 144.097656 C 142.417969 144.65625 142.816406 145.234375 143.183594 145.832031 C 143.554688 146.425781 143.894531 147.039062 144.207031 147.671875 C 144.519531 148.300781 144.800781 148.941406 145.050781 149.597656 C 145.300781 150.253906 145.519531 150.921875 145.707031 151.597656 C 145.894531 152.277344 146.046875 152.960938 146.167969 153.652344 C 146.292969 154.34375 146.378906 155.039062 146.4375 155.742188 C 146.492188 156.441406 146.515625 157.144531 146.503906 157.84375 L 146.503906 163.78125 L 61.40625 163.78125 C 60.9375 163.78125 60.476562 163.734375 60.019531 163.640625 C 59.5625 163.550781 59.117188 163.414062 58.6875 163.238281 C 58.257812 163.058594 57.847656 162.839844 57.460938 162.578125 C 57.074219 162.320312 56.714844 162.023438 56.386719 161.695312 C 56.054688 161.363281 55.761719 161.003906 55.503906 160.617188 C 55.242188 160.230469 55.023438 159.820312 54.847656 159.386719 C 54.667969 158.957031 54.53125 158.511719 54.441406 158.054688 C 54.351562 157.597656 54.304688 157.136719 54.304688 156.667969 C 54.296875 155.792969 54.355469 154.921875 54.472656 154.054688 C 54.589844 153.1875 54.769531 152.332031 55.007812 151.488281 C 55.242188 150.648438 55.539062 149.824219 55.890625 149.023438 C 56.242188 148.222656 56.652344 147.453125 57.113281 146.707031 C 57.574219 145.964844 58.082031 145.253906 58.644531 144.582031 C 59.203125 143.910156 59.808594 143.28125 60.457031 142.695312 C 61.105469 142.109375 61.789062 141.570312 62.515625 141.078125 C 63.238281 140.585938 63.992188 140.148438 64.777344 139.765625 Z M 15.015625 206.566406 C 31.085938 188.660156 55.519531 174.5625 60.15625 171.972656 C 60.570312 172.007812 60.984375 172.035156 61.402344 172.035156 L 239.851562 172.035156 C 240.269531 172.035156 240.679688 172.007812 241.09375 171.972656 C 245.734375 174.566406 270.164062 188.660156 286.234375 206.566406 C 287.277344 207.722656 288.203125 208.960938 289.019531 210.285156 C 289.832031 211.613281 290.519531 213 291.082031 214.453125 C 291.640625 215.90625 292.0625 217.394531 292.347656 218.925781 C 292.632812 220.457031 292.777344 222 292.78125 223.554688 L 292.78125 235.644531 L 8.46875 235.644531 L 8.46875 223.554688 C 8.476562 220.417969 9.042969 217.382812 10.171875 214.453125 C 11.300781 211.523438 12.914062 208.894531 15.015625 206.566406 Z M 15.015625 206.566406 " fill-opacity="1" fill-rule="nonzero"/></g><path fill="#000000" d="M 322.09375 172.273438 C 322.09375 172.546875 322.066406 172.816406 322.015625 173.082031 C 321.960938 173.347656 321.882812 173.605469 321.78125 173.855469 C 321.675781 174.105469 321.550781 174.34375 321.398438 174.566406 C 321.25 174.792969 321.078125 175 320.886719 175.195312 C 320.695312 175.386719 320.488281 175.554688 320.261719 175.707031 C 320.039062 175.855469 319.800781 175.984375 319.550781 176.089844 C 319.300781 176.191406 319.042969 176.269531 318.777344 176.324219 C 318.511719 176.375 318.242188 176.402344 317.972656 176.402344 C 317.703125 176.402344 317.433594 176.375 317.167969 176.324219 C 316.902344 176.269531 316.644531 176.191406 316.394531 176.089844 C 316.144531 175.984375 315.910156 175.855469 315.683594 175.707031 C 315.457031 175.554688 315.25 175.386719 315.058594 175.195312 C 314.867188 175 314.695312 174.792969 314.546875 174.566406 C 314.394531 174.34375 314.269531 174.105469 314.164062 173.855469 C 314.0625 173.605469 313.984375 173.347656 313.929688 173.082031 C 313.878906 172.816406 313.851562 172.546875 313.851562 172.273438 C 313.851562 172.003906 313.878906 171.734375 313.929688 171.46875 C 313.984375 171.203125 314.0625 170.945312 314.164062 170.695312 C 314.269531 170.445312 314.394531 170.207031 314.546875 169.980469 C 314.695312 169.757812 314.867188 169.546875 315.058594 169.355469 C 315.25 169.164062 315.457031 168.996094 315.683594 168.84375 C 315.910156 168.691406 316.144531 168.566406 316.394531 168.460938 C 316.644531 168.359375 316.902344 168.28125 317.167969 168.226562 C 317.433594 168.175781 317.703125 168.148438 317.972656 168.148438 C 318.242188 168.148438 318.511719 168.175781 318.777344 168.226562 C 319.042969 168.28125 319.300781 168.359375 319.550781 168.460938 C 319.800781 168.566406 320.039062 168.691406 320.261719 168.84375 C 320.488281 168.996094 320.695312 169.164062 320.886719 169.355469 C 321.078125 169.546875 321.25 169.757812 321.398438 169.980469 C 321.550781 170.207031 321.675781 170.445312 321.78125 170.695312 C 321.882812 170.945312 321.960938 171.203125 322.015625 171.46875 C 322.066406 171.734375 322.09375 172.003906 322.09375 172.273438 Z M 322.09375 172.273438 " fill-opacity="1" fill-rule="nonzero"/><path fill="#000000" d="M 322.09375 217.796875 C 322.09375 218.070312 322.066406 218.339844 322.015625 218.605469 C 321.960938 218.871094 321.882812 219.128906 321.78125 219.378906 C 321.675781 219.628906 321.550781 219.867188 321.398438 220.089844 C 321.25 220.316406 321.078125 220.523438 320.886719 220.71875 C 320.695312 220.910156 320.488281 221.078125 320.261719 221.230469 C 320.039062 221.378906 319.800781 221.507812 319.550781 221.613281 C 319.300781 221.714844 319.042969 221.792969 318.777344 221.847656 C 318.511719 221.898438 318.242188 221.925781 317.972656 221.925781 C 317.703125 221.925781 317.433594 221.898438 317.167969 221.847656 C 316.902344 221.792969 316.644531 221.714844 316.394531 221.613281 C 316.144531 221.507812 315.910156 221.378906 315.683594 221.230469 C 315.457031 221.078125 315.25 220.910156 315.058594 220.71875 C 314.867188 220.523438 314.695312 220.316406 314.546875 220.089844 C 314.394531 219.867188 314.269531 219.628906 314.164062 219.378906 C 314.0625 219.128906 313.984375 218.871094 313.929688 218.605469 C 313.878906 218.339844 313.851562 218.070312 313.851562 217.796875 C 313.851562 217.527344 313.878906 217.257812 313.929688 216.992188 C 313.984375 216.726562 314.0625 216.46875 314.164062 216.21875 C 314.269531 215.96875 314.394531 215.730469 314.546875 215.503906 C 314.695312 215.28125 314.867188 215.070312 315.058594 214.878906 C 315.25 214.6875 315.457031 214.515625 315.683594 214.367188 C 315.910156 214.214844 316.144531 214.089844 316.394531 213.984375 C 316.644531 213.882812 316.902344 213.804688 317.167969 213.75 C 317.433594 213.699219 317.703125 213.671875 317.972656 213.671875 C 318.242188 213.671875 318.511719 213.699219 318.777344 213.75 C 319.042969 213.804688 319.300781 213.882812 319.550781 213.984375 C 319.800781 214.089844 320.039062 214.214844 320.261719 214.367188 C 320.488281 214.515625 320.695312 214.6875 320.886719 214.878906 C 321.078125 215.070312 321.25 215.28125 321.398438 215.503906 C 321.550781 215.730469 321.675781 215.96875 321.78125 216.21875 C 321.882812 216.46875 321.960938 216.726562 322.015625 216.992188 C 322.066406 217.257812 322.09375 217.527344 322.09375 217.796875 Z M 322.09375 217.796875 " fill-opacity="1" fill-rule="nonzero"/></svg>