<svg xmlns="http://www.w3.org/2000/svg" xmlns:xlink="http://www.w3.org/1999/xlink" width="500" zoomAndPan="magnify" viewBox="0 0 375 374.999991" height="500" preserveAspectRatio="xMidYMid meet" version="1.0"><defs><clipPath id="42314af5e3"><path d="M 375.023438 187.5 C 375.023438 291.066406 291.066406 375.023438 187.5 375.023438 C 83.929688 375.023438 -0.0234375 291.066406 -0.0234375 187.5 C -0.0234375 83.933594 83.929688 -0.0234375 187.5 -0.0234375 C 291.066406 -0.0234375 375.023438 83.933594 375.023438 187.5 " clip-rule="nonzero"/></clipPath><clipPath id="cfc0bec88e"><path d="M 0 221 L 153 221 L 153 375 L 0 375 Z M 0 221 " clip-rule="nonzero"/></clipPath><clipPath id="44e7d49309"><path d="M 375.023438 187.5 C 375.023438 291.066406 291.066406 375.023438 187.5 375.023438 C 83.929688 375.023438 -0.0234375 291.066406 -0.0234375 187.5 C -0.0234375 83.933594 83.929688 -0.0234375 187.5 -0.0234375 C 291.066406 -0.0234375 375.023438 83.933594 375.023438 187.5 " clip-rule="nonzero"/></clipPath><clipPath id="b6e0102c50"><path d="M 221 0 L 375 0 L 375 180.769531 L 221 180.769531 Z M 221 0 " clip-rule="nonzero"/></clipPath><clipPath id="8ecfd9cbf9"><path d="M 375.023438 187.5 C 375.023438 291.066406 291.066406 375.023438 187.5 375.023438 C 83.929688 375.023438 -0.0234375 291.066406 -0.0234375 187.5 C -0.0234375 83.933594 83.929688 -0.0234375 187.5 -0.0234375 C 291.066406 -0.0234375 375.023438 83.933594 375.023438 187.5 " clip-rule="nonzero"/></clipPath><clipPath id="f431898a07"><path d="M 375.023438 187.5 C 375.023438 291.066406 291.066406 375.023438 187.5 375.023438 C 83.929688 375.023438 -0.0234375 291.066406 -0.0234375 187.5 C -0.0234375 83.933594 83.929688 -0.0234375 187.5 -0.0234375 C 291.066406 -0.0234375 375.023438 83.933594 375.023438 187.5 " clip-rule="nonzero"/></clipPath><clipPath id="943a7075ed"><path d="M 0 16.617188 L 152 16.617188 L 152 211 L 0 211 Z M 0 16.617188 " clip-rule="nonzero"/></clipPath><clipPath id="1128c075c0"><path d="M 375.023438 187.5 C 375.023438 291.066406 291.066406 375.023438 187.5 375.023438 C 83.929688 375.023438 -0.0234375 291.066406 -0.0234375 187.5 C -0.0234375 83.933594 83.929688 -0.0234375 187.5 -0.0234375 C 291.066406 -0.0234375 375.023438 83.933594 375.023438 187.5 " clip-rule="nonzero"/></clipPath><clipPath id="3dae141e95"><path d="M 235 202 L 375 202 L 375 375 L 235 375 Z M 235 202 " clip-rule="nonzero"/></clipPath><clipPath id="40ab336190"><path d="M 375.023438 187.5 C 375.023438 291.066406 291.066406 375.023438 187.5 375.023438 C 83.929688 375.023438 -0.0234375 291.066406 -0.0234375 187.5 C -0.0234375 83.933594 83.929688 -0.0234375 187.5 -0.0234375 C 291.066406 -0.0234375 375.023438 83.933594 375.023438 187.5 " clip-rule="nonzero"/></clipPath><clipPath id="c07d1d5464"><path d="M 375.023438 187.5 C 375.023438 291.066406 291.066406 375.023438 187.5 375.023438 C 83.929688 375.023438 -0.0234375 291.066406 -0.0234375 187.5 C -0.0234375 83.933594 83.929688 -0.0234375 187.5 -0.0234375 C 291.066406 -0.0234375 375.023438 83.933594 375.023438 187.5 " clip-rule="nonzero"/></clipPath><clipPath id="9a797fbe23"><path d="M 61 282 L 133.871094 282 L 133.871094 345.941406 L 61 345.941406 Z M 61 282 " clip-rule="nonzero"/></clipPath><clipPath id="9bee015c8f"><path d="M 375.023438 187.5 C 375.023438 291.066406 291.066406 375.023438 187.5 375.023438 C 83.929688 375.023438 -0.0234375 291.066406 -0.0234375 187.5 C -0.0234375 83.933594 83.929688 -0.0234375 187.5 -0.0234375 C 291.066406 -0.0234375 375.023438 83.933594 375.023438 187.5 " clip-rule="nonzero"/></clipPath><clipPath id="36795a78fe"><path d="M 51 277.628906 L 133.871094 277.628906 L 133.871094 326 L 51 326 Z M 51 277.628906 " clip-rule="nonzero"/></clipPath><clipPath id="070a24eaa0"><path d="M 375.023438 187.5 C 375.023438 291.066406 291.066406 375.023438 187.5 375.023438 C 83.929688 375.023438 -0.0234375 291.066406 -0.0234375 187.5 C -0.0234375 83.933594 83.929688 -0.0234375 187.5 -0.0234375 C 291.066406 -0.0234375 375.023438 83.933594 375.023438 187.5 " clip-rule="nonzero"/></clipPath><clipPath id="a2265c0527"><path d="M 46.1875 303.121094 L 72.695312 303.121094 L 72.695312 316.375 L 46.1875 316.375 Z M 46.1875 303.121094 " clip-rule="nonzero"/></clipPath><clipPath id="a7bb4a5df6"><path d="M 375.023438 187.5 C 375.023438 291.066406 291.066406 375.023438 187.5 375.023438 C 83.929688 375.023438 -0.0234375 291.066406 -0.0234375 187.5 C -0.0234375 83.933594 83.929688 -0.0234375 187.5 -0.0234375 C 291.066406 -0.0234375 375.023438 83.933594 375.023438 187.5 " clip-rule="nonzero"/></clipPath><clipPath id="9acf63f2b0"><path d="M 133 265.394531 L 156 265.394531 L 156 334.726562 L 133 334.726562 Z M 133 265.394531 " clip-rule="nonzero"/></clipPath><clipPath id="0cb7405342"><path d="M 375.023438 187.5 C 375.023438 291.066406 291.066406 375.023438 187.5 375.023438 C 83.929688 375.023438 -0.0234375 291.066406 -0.0234375 187.5 C -0.0234375 83.933594 83.929688 -0.0234375 187.5 -0.0234375 C 291.066406 -0.0234375 375.023438 83.933594 375.023438 187.5 " clip-rule="nonzero"/></clipPath><clipPath id="f59fdc8771"><path d="M 241 281 L 245 281 L 245 286 L 241 286 Z M 241 281 " clip-rule="nonzero"/></clipPath><clipPath id="6bcfb87fc6"><path d="M 375.023438 187.5 C 375.023438 291.066406 291.066406 375.023438 187.5 375.023438 C 83.929688 375.023438 -0.0234375 291.066406 -0.0234375 187.5 C -0.0234375 83.933594 83.929688 -0.0234375 187.5 -0.0234375 C 291.066406 -0.0234375 375.023438 83.933594 375.023438 187.5 " clip-rule="nonzero"/></clipPath><clipPath id="7cdf58ca4d"><path d="M 241 236 L 306 236 L 306 283.746094 L 241 283.746094 Z M 241 236 " clip-rule="nonzero"/></clipPath><clipPath id="7bcb65ffd5"><path d="M 375.023438 187.5 C 375.023438 291.066406 291.066406 375.023438 187.5 375.023438 C 83.929688 375.023438 -0.0234375 291.066406 -0.0234375 187.5 C -0.0234375 83.933594 83.929688 -0.0234375 187.5 -0.0234375 C 291.066406 -0.0234375 375.023438 83.933594 375.023438 187.5 " clip-rule="nonzero"/></clipPath><clipPath id="c43a14e653"><path d="M 241 236 L 300 236 L 300 260.296875 L 241 260.296875 Z M 241 236 " clip-rule="nonzero"/></clipPath><clipPath id="19d30fb21a"><path d="M 375.023438 187.5 C 375.023438 291.066406 291.066406 375.023438 187.5 375.023438 C 83.929688 375.023438 -0.0234375 291.066406 -0.0234375 187.5 C -0.0234375 83.933594 83.929688 -0.0234375 187.5 -0.0234375 C 291.066406 -0.0234375 375.023438 83.933594 375.023438 187.5 " clip-rule="nonzero"/></clipPath><clipPath id="2505b20e39"><path d="M 216 219.515625 L 324.53125 219.515625 L 324.53125 301 L 216 301 Z M 216 219.515625 " clip-rule="nonzero"/></clipPath><clipPath id="004cc3ed09"><path d="M 375.023438 187.5 C 375.023438 291.066406 291.066406 375.023438 187.5 375.023438 C 83.929688 375.023438 -0.0234375 291.066406 -0.0234375 187.5 C -0.0234375 83.933594 83.929688 -0.0234375 187.5 -0.0234375 C 291.066406 -0.0234375 375.023438 83.933594 375.023438 187.5 " clip-rule="nonzero"/></clipPath><clipPath id="38d555a480"><path d="M 325.550781 68 L 369 68 L 369 138.96875 L 325.550781 138.96875 Z M 325.550781 68 " clip-rule="nonzero"/></clipPath><clipPath id="b84cd654da"><path d="M 375.023438 187.5 C 375.023438 291.066406 291.066406 375.023438 187.5 375.023438 C 83.929688 375.023438 -0.0234375 291.066406 -0.0234375 187.5 C -0.0234375 83.933594 83.929688 -0.0234375 187.5 -0.0234375 C 291.066406 -0.0234375 375.023438 83.933594 375.023438 187.5 " clip-rule="nonzero"/></clipPath><clipPath id="2151134425"><path d="M 321 74 L 354 74 L 354 111 L 321 111 Z M 321 74 " clip-rule="nonzero"/></clipPath><clipPath id="5382ff6fb3"><path d="M 375.023438 187.5 C 375.023438 291.066406 291.066406 375.023438 187.5 375.023438 C 83.929688 375.023438 -0.0234375 291.066406 -0.0234375 187.5 C -0.0234375 83.933594 83.929688 -0.0234375 187.5 -0.0234375 C 291.066406 -0.0234375 375.023438 83.933594 375.023438 187.5 " clip-rule="nonzero"/></clipPath><clipPath id="d8375413a6"><path d="M 346 138 L 373 138 L 373 159 L 346 159 Z M 346 138 " clip-rule="nonzero"/></clipPath><clipPath id="805ac182e5"><path d="M 375.023438 187.5 C 375.023438 291.066406 291.066406 375.023438 187.5 375.023438 C 83.929688 375.023438 -0.0234375 291.066406 -0.0234375 187.5 C -0.0234375 83.933594 83.929688 -0.0234375 187.5 -0.0234375 C 291.066406 -0.0234375 375.023438 83.933594 375.023438 187.5 " clip-rule="nonzero"/></clipPath><clipPath id="5ed56768ce"><path d="M 155.28125 158.339844 L 374 158.339844 L 374 328 L 155.28125 328 Z M 155.28125 158.339844 " clip-rule="nonzero"/></clipPath><clipPath id="b9c893e22e"><path d="M 375.023438 187.5 C 375.023438 291.066406 291.066406 375.023438 187.5 375.023438 C 83.929688 375.023438 -0.0234375 291.066406 -0.0234375 187.5 C -0.0234375 83.933594 83.929688 -0.0234375 187.5 -0.0234375 C 291.066406 -0.0234375 375.023438 83.933594 375.023438 187.5 " clip-rule="nonzero"/></clipPath><clipPath id="e8ac7ad932"><path d="M 87 236 L 369 236 L 369 367.351562 L 87 367.351562 Z M 87 236 " clip-rule="nonzero"/></clipPath><clipPath id="e4b02bc591"><path d="M 375.023438 187.5 C 375.023438 291.066406 291.066406 375.023438 187.5 375.023438 C 83.929688 375.023438 -0.0234375 291.066406 -0.0234375 187.5 C -0.0234375 83.933594 83.929688 -0.0234375 187.5 -0.0234375 C 291.066406 -0.0234375 375.023438 83.933594 375.023438 187.5 " clip-rule="nonzero"/></clipPath><clipPath id="8db522ada1"><path d="M 244 236 L 361.234375 236 L 361.234375 325.550781 L 244 325.550781 Z M 244 236 " clip-rule="nonzero"/></clipPath><clipPath id="5f1f393e17"><path d="M 375.023438 187.5 C 375.023438 291.066406 291.066406 375.023438 187.5 375.023438 C 83.929688 375.023438 -0.0234375 291.066406 -0.0234375 187.5 C -0.0234375 83.933594 83.929688 -0.0234375 187.5 -0.0234375 C 291.066406 -0.0234375 375.023438 83.933594 375.023438 187.5 " clip-rule="nonzero"/></clipPath><clipPath id="3fbb337d6b"><path d="M 277.628906 241 L 354 241 L 354 298 L 277.628906 298 Z M 277.628906 241 " clip-rule="nonzero"/></clipPath><clipPath id="97d934c1f2"><path d="M 375.023438 187.5 C 375.023438 291.066406 291.066406 375.023438 187.5 375.023438 C 83.929688 375.023438 -0.0234375 291.066406 -0.0234375 187.5 C -0.0234375 83.933594 83.929688 -0.0234375 187.5 -0.0234375 C 291.066406 -0.0234375 375.023438 83.933594 375.023438 187.5 " clip-rule="nonzero"/></clipPath><clipPath id="89537e5fe4"><path d="M 133 219.515625 L 372.449219 219.515625 L 372.449219 373 L 133 373 Z M 133 219.515625 " clip-rule="nonzero"/></clipPath><clipPath id="2413050092"><path d="M 375.023438 187.5 C 375.023438 291.066406 291.066406 375.023438 187.5 375.023438 C 83.929688 375.023438 -0.0234375 291.066406 -0.0234375 187.5 C -0.0234375 83.933594 83.929688 -0.0234375 187.5 -0.0234375 C 291.066406 -0.0234375 375.023438 83.933594 375.023438 187.5 " clip-rule="nonzero"/></clipPath><clipPath id="828b726491"><path d="M 155.28125 164.457031 L 375 164.457031 L 375 375 L 155.28125 375 Z M 155.28125 164.457031 " clip-rule="nonzero"/></clipPath><clipPath id="dcbecd89b0"><path d="M 375.023438 187.5 C 375.023438 291.066406 291.066406 375.023438 187.5 375.023438 C 83.929688 375.023438 -0.0234375 291.066406 -0.0234375 187.5 C -0.0234375 83.933594 83.929688 -0.0234375 187.5 -0.0234375 C 291.066406 -0.0234375 375.023438 83.933594 375.023438 187.5 " clip-rule="nonzero"/></clipPath></defs><g clip-path="url(#42314af5e3)"><rect x="-37.5" width="450" fill="#283284" y="-37.499999" height="449.999989" fill-opacity="1"/><path fill="#ffffff" d="M -31.898438 381.460938 L -101.269531 381.132812 L -101.269531 330.808594 L 442.132812 -6.457031 L 477.921875 -6.457031 L 477.921875 76.726562 L -31.898438 381.460938 " fill-opacity="1" fill-rule="nonzero"/></g><g clip-path="url(#cfc0bec88e)"><g clip-path="url(#44e7d49309)"><path fill="#c21e3a" d="M 152.816406 221.242188 L -101.269531 381.132812 L -55.710938 381.132812 L 152.816406 254.4375 L 152.816406 221.242188 " fill-opacity="1" fill-rule="nonzero"/></g></g><g clip-path="url(#b6e0102c50)"><g clip-path="url(#8ecfd9cbf9)"><path fill="#c21e3a" d="M 221.359375 180.070312 L 477.921875 23.269531 L 477.921875 -6.457031 L 468.832031 -6.457031 L 221.359375 145.417969 L 221.359375 180.070312 " fill-opacity="1" fill-rule="nonzero"/></g></g><g clip-path="url(#f431898a07)"><path fill="#ffffff" d="M 408.546875 381.460938 L 477.921875 381.132812 L 477.921875 330.808594 L -65.488281 -6.457031 L -101.269531 -6.457031 L -101.269531 76.726562 L 408.546875 381.460938 " fill-opacity="1" fill-rule="nonzero"/></g><g clip-path="url(#943a7075ed)"><g clip-path="url(#1128c075c0)"><path fill="#c21e3a" d="M 151.988281 176.035156 L -101.269531 16.664062 L -101.269531 56.910156 L 151.988281 210.785156 L 151.988281 176.035156 " fill-opacity="1" fill-rule="nonzero"/></g></g><g clip-path="url(#3dae141e95)"><g clip-path="url(#40ab336190)"><path fill="#c21e3a" d="M 235.675781 202.109375 L 235.675781 234.882812 L 477.921875 381.132812 L 477.921875 350.796875 L 235.675781 202.109375 " fill-opacity="1" fill-rule="nonzero"/></g></g><g clip-path="url(#c07d1d5464)"><path fill="#ffffff" d="M 477.921875 138.015625 L 241.175781 138.015625 L 241.175781 -6.457031 L 133.820312 -6.457031 L 133.820312 138.015625 L -102.917969 138.015625 L -102.917969 236.664062 L 133.820312 236.664062 L 133.820312 381.132812 L 241.175781 381.132812 L 241.175781 236.664062 L 477.921875 236.664062 L 477.921875 138.015625 " fill-opacity="1" fill-rule="nonzero"/><path fill="#c21e3a" d="M 477.921875 158.4375 L 216.398438 158.4375 L 216.398438 -6.457031 L 158.597656 -6.457031 L 158.597656 158.4375 L -102.917969 158.4375 L -102.917969 216.242188 L 155.289062 216.242188 L 155.289062 381.132812 L 216.398438 381.132812 L 216.398438 219.546875 L 477.921875 219.546875 L 477.921875 158.4375 " fill-opacity="1" fill-rule="nonzero"/></g><g clip-path="url(#9a797fbe23)"><g clip-path="url(#9bee015c8f)"><path fill="#1c235d" d="M 87.101562 345.914062 C 77.8125 340.015625 69.078125 333.320312 61 325.933594 L 133.820312 282.402344 L 133.820312 334.71875 C 118.484375 339.304688 102.890625 343.042969 87.101562 345.914062 " fill-opacity="1" fill-rule="nonzero"/></g></g><g clip-path="url(#36795a78fe)"><g clip-path="url(#070a24eaa0)"><path fill="#a9b5bb" d="M 61 325.933594 C 57.589844 322.8125 54.300781 319.582031 51.128906 316.222656 L 72.066406 303.503906 C 93.277344 296.488281 113.929688 287.855469 133.820312 277.679688 L 133.820312 282.402344 L 61 325.933594 " fill-opacity="1" fill-rule="nonzero"/></g></g><g clip-path="url(#a2265c0527)"><g clip-path="url(#a7bb4a5df6)"><path fill="#851729" d="M 51.128906 316.222656 C 49.542969 314.542969 47.992188 312.835938 46.46875 311.101562 C 55.078125 308.832031 63.621094 306.292969 72.066406 303.503906 L 51.128906 316.222656 " fill-opacity="1" fill-rule="nonzero"/></g></g><g clip-path="url(#9acf63f2b0)"><g clip-path="url(#0cb7405342)"><path fill="#a9b5bb" d="M 133.820312 334.71875 L 133.820312 277.679688 C 141.082031 273.960938 148.238281 270.042969 155.289062 265.925781 L 155.289062 327.6875 C 148.195312 330.214844 141.039062 332.558594 133.820312 334.71875 " fill-opacity="1" fill-rule="nonzero"/></g></g><g clip-path="url(#f59fdc8771)"><g clip-path="url(#6bcfb87fc6)"><path fill="#1c235d" d="M 241.175781 285.996094 L 241.175781 281.417969 L 244.886719 283.636719 C 243.65625 284.425781 242.417969 285.21875 241.175781 285.996094 " fill-opacity="1" fill-rule="nonzero"/></g></g><g clip-path="url(#7cdf58ca4d)"><g clip-path="url(#7bcb65ffd5)"><path fill="#a9b5bb" d="M 244.886719 283.636719 L 241.175781 281.417969 L 241.175781 238.207031 L 277.726562 260.269531 C 267.128906 268.582031 256.175781 276.371094 244.886719 283.636719 M 299.96875 241.574219 L 291.96875 236.664062 L 305.339844 236.664062 C 303.558594 238.316406 301.773438 239.953125 299.96875 241.574219 " fill-opacity="1" fill-rule="nonzero"/></g></g><g clip-path="url(#c43a14e653)"><g clip-path="url(#19d30fb21a)"><path fill="#851729" d="M 277.726562 260.269531 L 241.175781 238.207031 L 241.175781 236.664062 L 291.96875 236.664062 L 299.96875 241.574219 C 292.757812 248.066406 285.332031 254.304688 277.726562 260.269531 " fill-opacity="1" fill-rule="nonzero"/></g></g><g clip-path="url(#2505b20e39)"><g clip-path="url(#004cc3ed09)"><path fill="#a9b5bb" d="M 216.398438 300.472656 L 216.398438 222.707031 C 217.644531 221.660156 218.867188 220.609375 220.097656 219.546875 L 324.171875 219.546875 C 319.808594 223.605469 315.371094 227.566406 310.855469 231.433594 C 309.03125 233.191406 307.1875 234.941406 305.339844 236.664062 L 241.175781 236.664062 L 241.175781 285.996094 C 233.074219 291.097656 224.8125 295.921875 216.398438 300.472656 " fill-opacity="1" fill-rule="nonzero"/></g></g><g clip-path="url(#38d555a480)"><g clip-path="url(#b84cd654da)"><path fill="#a9b5bb" d="M 368.429688 138.015625 L 346.246094 138.015625 C 343.261719 128.582031 339.300781 119.523438 334.460938 110.945312 L 353.152344 99.523438 C 359.589844 111.625 364.746094 124.519531 368.429688 138.015625 M 325.886719 81.265625 C 328.007812 76.882812 330.058594 72.460938 332.03125 68.007812 C 333.757812 70.09375 335.453125 72.234375 337.089844 74.390625 L 325.886719 81.265625 " fill-opacity="1" fill-rule="nonzero"/></g></g><g clip-path="url(#2151134425)"><g clip-path="url(#5382ff6fb3)"><path fill="#851729" d="M 334.460938 110.945312 C 330.53125 103.976562 326.027344 97.324219 321.007812 91.039062 C 322.675781 87.800781 324.300781 84.542969 325.886719 81.265625 L 337.089844 74.390625 C 343.078125 82.304688 348.457031 90.703125 353.152344 99.523438 L 334.460938 110.945312 " fill-opacity="1" fill-rule="nonzero"/></g></g><g clip-path="url(#d8375413a6)"><g clip-path="url(#805ac182e5)"><path fill="#a9b5bb" d="M 372.785156 158.4375 L 351.046875 158.4375 C 349.957031 151.460938 348.34375 144.648438 346.246094 138.015625 L 368.429688 138.015625 C 370.25 144.683594 371.707031 151.492188 372.785156 158.4375 " fill-opacity="1" fill-rule="nonzero"/></g></g><g clip-path="url(#5ed56768ce)"><g clip-path="url(#b9c893e22e)"><path fill="#851729" d="M 155.289062 327.6875 L 155.289062 265.925781 C 176.796875 253.351562 197.265625 238.902344 216.398438 222.707031 L 216.398438 300.472656 C 196.761719 311.09375 176.3125 320.199219 155.289062 327.6875 M 324.171875 219.546875 L 220.097656 219.546875 C 227.8125 212.867188 235.304688 205.898438 242.554688 198.644531 C 248.75 192.449219 254.75 186.066406 260.53125 179.527344 C 290.476562 193.445312 315.421875 210.039062 331.785156 212.285156 C 329.273438 214.738281 326.738281 217.160156 324.171875 219.546875 M 352.199219 190.894531 C 352.550781 187.695312 352.730469 184.09375 352.730469 180.050781 C 352.730469 172.714844 352.15625 165.492188 351.046875 158.4375 L 372.785156 158.4375 C 373.113281 160.535156 373.40625 162.65625 373.660156 164.78125 C 366.867188 173.742188 359.707031 182.460938 352.199219 190.894531 " fill-opacity="1" fill-rule="nonzero"/></g></g><g clip-path="url(#e8ac7ad932)"><g clip-path="url(#e4b02bc591)"><path fill="#12173e" d="M 241.175781 367.230469 L 241.175781 285.996094 C 242.417969 285.21875 243.65625 284.425781 244.886719 283.636719 L 314.652344 325.335938 C 293.941406 344.453125 268.90625 358.960938 241.175781 367.230469 M 133.820312 367.230469 C 117.15625 362.257812 101.46875 355.039062 87.101562 345.914062 C 102.890625 343.042969 118.484375 339.304688 133.820312 334.71875 L 133.820312 367.230469 M 361.179688 258.355469 L 326.230469 236.664062 L 368.515625 236.664062 C 366.503906 244.089844 364.046875 251.324219 361.179688 258.355469 " fill-opacity="1" fill-rule="nonzero"/></g></g><g clip-path="url(#8db522ada1)"><g clip-path="url(#5f1f393e17)"><path fill="#6d7c85" d="M 314.652344 325.335938 L 244.886719 283.636719 C 256.175781 276.371094 267.128906 268.582031 277.726562 260.269531 L 339.390625 297.5 C 332.078125 307.582031 323.785156 316.90625 314.652344 325.335938 M 353.652344 274.523438 L 299.96875 241.574219 C 301.773438 239.953125 303.558594 238.316406 305.339844 236.664062 L 326.230469 236.664062 L 361.179688 258.355469 C 358.921875 263.882812 356.410156 269.273438 353.652344 274.523438 " fill-opacity="1" fill-rule="nonzero"/></g></g><g clip-path="url(#3fbb337d6b)"><g clip-path="url(#97d934c1f2)"><path fill="#57101c" d="M 339.390625 297.5 L 277.726562 260.269531 C 285.332031 254.304688 292.757812 248.066406 299.96875 241.574219 L 353.652344 274.523438 C 349.445312 282.546875 344.675781 290.21875 339.390625 297.5 " fill-opacity="1" fill-rule="nonzero"/></g></g><g clip-path="url(#89537e5fe4)"><g clip-path="url(#2413050092)"><path fill="#6d7c85" d="M 216.398438 372.8125 L 216.398438 300.472656 C 224.8125 295.921875 233.074219 291.097656 241.175781 285.996094 L 241.175781 367.230469 C 233.136719 369.632812 224.859375 371.503906 216.398438 372.8125 M 155.289062 372.269531 C 147.984375 371.003906 140.8125 369.3125 133.820312 367.230469 L 133.820312 334.71875 C 141.039062 332.558594 148.195312 330.214844 155.289062 327.6875 L 155.289062 372.269531 M 368.515625 236.664062 L 305.339844 236.664062 C 307.1875 234.941406 309.03125 233.191406 310.855469 231.433594 C 315.371094 227.566406 319.808594 223.605469 324.171875 219.546875 L 372.300781 219.546875 C 371.300781 225.347656 370.035156 231.054688 368.515625 236.664062 " fill-opacity="1" fill-rule="nonzero"/></g></g><g clip-path="url(#828b726491)"><g clip-path="url(#dcbecd89b0)"><path fill="#57101c" d="M 187.5 375.023438 C 176.511719 375.023438 165.757812 374.082031 155.289062 372.269531 L 155.289062 327.6875 C 176.3125 320.199219 196.761719 311.09375 216.398438 300.472656 L 216.398438 372.8125 C 206.980469 374.269531 197.332031 375.023438 187.5 375.023438 M 372.300781 219.546875 L 324.171875 219.546875 C 326.738281 217.160156 329.273438 214.738281 331.785156 212.285156 C 333.011719 212.457031 334.183594 212.542969 335.3125 212.542969 C 344.5625 212.542969 350.464844 206.640625 352.199219 190.894531 C 359.707031 182.460938 366.867188 173.742188 373.660156 164.78125 C 374.5625 172.226562 375.023438 179.8125 375.023438 187.5 C 375.023438 198.425781 374.09375 209.136719 372.300781 219.546875 " fill-opacity="1" fill-rule="nonzero"/></g></g><path fill="#373b8d" d="M 241.175781 118.265625 L 241.175781 37.15625 C 266.933594 45.242188 289.824219 58.988281 308.054688 76.757812 L 241.175781 118.265625 M 133.820312 117.242188 L 67.589844 76.136719 C 85.714844 58.660156 108.363281 45.148438 133.820312 37.15625 L 133.820312 117.242188 " fill-opacity="1" fill-rule="nonzero"/><path fill="#ffffff" d="M 292.9375 138.015625 L 290.167969 138.015625 L 294.90625 135.121094 C 294.25 136.09375 293.597656 137.046875 292.9375 138.015625 M 241.175781 133.253906 L 241.175781 118.265625 L 308.054688 76.757812 C 311.28125 79.902344 314.351562 83.167969 317.273438 86.550781 L 241.175781 133.253906 " fill-opacity="1" fill-rule="nonzero"/><path fill="#c73043" d="M 290.167969 138.015625 L 241.175781 138.015625 L 241.175781 133.253906 L 317.273438 86.550781 C 318.550781 88.023438 319.796875 89.527344 321.007812 91.039062 C 313.1875 106.214844 304.472656 120.9375 294.90625 135.121094 L 290.167969 138.015625 " fill-opacity="1" fill-rule="nonzero"/><path fill="#ffffff" d="M 133.820312 138.015625 L 91.574219 138.015625 L 42.691406 107.253906 C 49.527344 95.914062 57.914062 85.460938 67.589844 76.136719 L 133.820312 117.242188 L 133.820312 138.015625 M 32.222656 138.015625 L 28.753906 138.015625 C 28.9375 137.429688 29.128906 136.835938 29.324219 136.257812 L 32.222656 138.015625 " fill-opacity="1" fill-rule="nonzero"/><path fill="#c73043" d="M 91.574219 138.015625 L 32.222656 138.015625 L 29.324219 136.257812 C 32.683594 126.09375 37.1875 116.390625 42.691406 107.253906 L 91.574219 138.015625 " fill-opacity="1" fill-rule="nonzero"/><path fill="#ffffff" d="M 278.015625 158.4375 L 216.398438 158.4375 L 216.398438 31.3125 C 224.902344 32.679688 233.175781 34.644531 241.175781 37.15625 L 241.175781 138.015625 L 292.9375 138.015625 C 288.167969 144.957031 283.195312 151.769531 278.015625 158.4375 M 158.597656 158.4375 L 23.953125 158.4375 C 25.042969 151.460938 26.65625 144.648438 28.753906 138.015625 L 133.820312 138.015625 L 133.820312 37.15625 C 141.824219 34.648438 150.09375 32.683594 158.597656 31.3125 L 158.597656 158.4375 " fill-opacity="1" fill-rule="nonzero"/><path fill="#c73043" d="M 38.773438 212.542969 C 28.179688 212.542969 22.269531 204.011719 22.269531 180.050781 C 22.269531 172.714844 22.84375 165.492188 23.953125 158.4375 L 158.597656 158.4375 L 158.597656 31.3125 C 167.980469 29.796875 177.644531 29.007812 187.5 29.007812 C 197.359375 29.007812 207.015625 29.796875 216.398438 31.3125 L 216.398438 158.4375 L 278.015625 158.4375 C 272.425781 165.636719 266.59375 172.675781 260.53125 179.527344 C 237.789062 168.957031 212.15625 159.9375 185.21875 159.9375 C 120.175781 159.9375 65.066406 212.53125 38.773438 212.542969 " fill-opacity="1" fill-rule="nonzero"/><path fill="#b2bdc2" d="M 346.246094 138.015625 L 292.9375 138.015625 C 293.597656 137.046875 294.25 136.09375 294.90625 135.121094 L 334.460938 110.945312 C 339.300781 119.523438 343.261719 128.582031 346.246094 138.015625 " fill-opacity="1" fill-rule="nonzero"/><path fill="#8e2532" d="M 294.90625 135.121094 C 304.472656 120.9375 313.1875 106.214844 321.007812 91.039062 C 326.027344 97.324219 330.53125 103.976562 334.460938 110.945312 L 294.90625 135.121094 " fill-opacity="1" fill-rule="nonzero"/><path fill="#b2bdc2" d="M 351.046875 158.4375 L 278.015625 158.4375 C 283.195312 151.769531 288.167969 144.957031 292.9375 138.015625 L 346.246094 138.015625 C 348.34375 144.648438 349.957031 151.460938 351.046875 158.4375 " fill-opacity="1" fill-rule="nonzero"/><path fill="#8e2532" d="M 331.785156 212.285156 C 315.421875 210.039062 290.476562 193.445312 260.53125 179.527344 C 266.59375 172.675781 272.425781 165.636719 278.015625 158.4375 L 351.046875 158.4375 C 352.15625 165.492188 352.730469 172.714844 352.730469 180.050781 C 352.730469 184.09375 352.550781 187.695312 352.199219 190.894531 C 346.710938 197.058594 341.035156 203.078125 335.171875 208.9375 C 334.050781 210.058594 332.917969 211.179688 331.785156 212.285156 " fill-opacity="1" fill-rule="nonzero"/><path fill="#631b24" d="M 335.3125 212.542969 C 334.183594 212.542969 333.011719 212.457031 331.785156 212.285156 C 332.917969 211.179688 334.050781 210.058594 335.171875 208.9375 C 341.035156 203.078125 346.710938 197.058594 352.199219 190.894531 C 350.464844 206.640625 344.5625 212.542969 335.3125 212.542969 " fill-opacity="1" fill-rule="nonzero"/></svg>