<svg xmlns="http://www.w3.org/2000/svg" xmlns:xlink="http://www.w3.org/1999/xlink" width="692" zoomAndPan="magnify" viewBox="0 0 519 414.749985" height="553" preserveAspectRatio="xMidYMid meet" version="1.0"><defs><clipPath id="373192451b"><path d="M 0.15625 0 L 518.09375 0 L 518.09375 139 L 0.15625 139 Z M 0.15625 0 " clip-rule="nonzero"/></clipPath><clipPath id="f3486a01be"><path d="M 0.15625 276 L 518.09375 276 L 518.09375 414.5 L 0.15625 414.5 Z M 0.15625 276 " clip-rule="nonzero"/></clipPath><clipPath id="4db89f99b3"><path d="M 0.15625 138 L 518.09375 138 L 518.09375 277 L 0.15625 277 Z M 0.15625 138 " clip-rule="nonzero"/></clipPath></defs><g clip-path="url(#373192451b)"><path fill="#000000" d="M 500.828125 51.8125 L 187.617188 51.8125 C 187.148438 49.976562 186.605469 48.164062 185.988281 46.371094 C 185.371094 44.582031 184.683594 42.820312 183.921875 41.085938 C 183.160156 39.351562 182.324219 37.652344 181.421875 35.988281 C 180.519531 34.324219 179.550781 32.699219 178.511719 31.113281 C 177.476562 29.527344 176.375 27.988281 175.210938 26.496094 C 174.046875 25.003906 172.824219 23.558594 171.539062 22.167969 C 170.257812 20.773438 168.917969 19.4375 167.523438 18.15625 C 166.128906 16.871094 164.6875 15.652344 163.191406 14.488281 C 161.695312 13.324219 160.15625 12.226562 158.570312 11.191406 C 156.984375 10.15625 155.359375 9.1875 153.691406 8.289062 C 152.027344 7.386719 150.328125 6.558594 148.59375 5.796875 C 146.859375 5.035156 145.097656 4.347656 143.304688 3.734375 C 141.515625 3.121094 139.703125 2.582031 137.867188 2.117188 C 136.03125 1.652344 134.179688 1.261719 132.3125 0.953125 C 130.441406 0.640625 128.566406 0.40625 126.679688 0.25 C 124.792969 0.09375 122.902344 0.015625 121.007812 0.015625 C 119.113281 0.015625 117.226562 0.09375 115.339844 0.25 C 113.449219 0.40625 111.574219 0.640625 109.707031 0.953125 C 107.839844 1.261719 105.988281 1.652344 104.152344 2.117188 C 102.316406 2.582031 100.503906 3.121094 98.710938 3.734375 C 96.921875 4.347656 95.15625 5.035156 93.421875 5.796875 C 91.6875 6.558594 89.988281 7.386719 88.324219 8.289062 C 86.65625 9.1875 85.03125 10.15625 83.445312 11.191406 C 81.859375 12.226562 80.320312 13.324219 78.828125 14.488281 C 77.332031 15.652344 75.886719 16.871094 74.492188 18.15625 C 73.097656 19.4375 71.761719 20.773438 70.476562 22.167969 C 69.195312 23.558594 67.96875 25.003906 66.804688 26.496094 C 65.640625 27.988281 64.539062 29.527344 63.503906 31.113281 C 62.464844 32.699219 61.496094 34.324219 60.59375 35.988281 C 59.691406 37.652344 58.859375 39.351562 58.097656 41.085938 C 57.332031 42.820312 56.644531 44.582031 56.027344 46.371094 C 55.410156 48.164062 54.867188 49.976562 54.402344 51.8125 L 17.421875 51.8125 C 16.855469 51.8125 16.292969 51.839844 15.730469 51.894531 C 15.164062 51.949219 14.605469 52.035156 14.054688 52.144531 C 13.5 52.253906 12.949219 52.390625 12.410156 52.554688 C 11.867188 52.71875 11.335938 52.910156 10.8125 53.128906 C 10.292969 53.34375 9.78125 53.585938 9.28125 53.851562 C 8.785156 54.117188 8.300781 54.410156 7.828125 54.722656 C 7.359375 55.039062 6.90625 55.375 6.46875 55.734375 C 6.03125 56.089844 5.613281 56.472656 5.214844 56.871094 C 4.8125 57.269531 4.433594 57.691406 4.074219 58.125 C 3.714844 58.5625 3.378906 59.019531 3.066406 59.488281 C 2.75 59.957031 2.460938 60.441406 2.195312 60.941406 C 1.929688 61.441406 1.6875 61.953125 1.46875 62.472656 C 1.253906 62.996094 1.0625 63.527344 0.898438 64.070312 C 0.734375 64.609375 0.597656 65.160156 0.488281 65.714844 C 0.378906 66.269531 0.292969 66.828125 0.238281 67.390625 C 0.183594 67.953125 0.15625 68.519531 0.15625 69.082031 C 0.15625 69.648438 0.183594 70.214844 0.238281 70.777344 C 0.292969 71.339844 0.378906 71.898438 0.488281 72.453125 C 0.597656 73.007812 0.734375 73.554688 0.898438 74.097656 C 1.0625 74.636719 1.253906 75.171875 1.46875 75.691406 C 1.6875 76.214844 1.929688 76.726562 2.195312 77.226562 C 2.460938 77.722656 2.75 78.207031 3.066406 78.679688 C 3.378906 79.148438 3.714844 79.601562 4.074219 80.039062 C 4.433594 80.476562 4.8125 80.894531 5.214844 81.296875 C 5.613281 81.695312 6.03125 82.074219 6.46875 82.433594 C 6.90625 82.792969 7.359375 83.128906 7.828125 83.445312 C 8.300781 83.757812 8.785156 84.046875 9.28125 84.316406 C 9.78125 84.582031 10.292969 84.824219 10.8125 85.039062 C 11.335938 85.257812 11.867188 85.445312 12.410156 85.609375 C 12.949219 85.773438 13.5 85.910156 14.054688 86.023438 C 14.605469 86.132812 15.164062 86.214844 15.730469 86.269531 C 16.292969 86.328125 16.855469 86.355469 17.421875 86.355469 L 54.402344 86.355469 C 54.867188 88.191406 55.410156 90.003906 56.027344 91.792969 C 56.644531 93.585938 57.332031 95.347656 58.097656 97.082031 C 58.859375 98.8125 59.691406 100.511719 60.59375 102.179688 C 61.496094 103.84375 62.464844 105.46875 63.503906 107.054688 C 64.539062 108.636719 65.640625 110.175781 66.804688 111.671875 C 67.96875 113.164062 69.195312 114.609375 70.476562 116 C 71.761719 117.394531 73.097656 118.730469 74.492188 120.011719 C 75.886719 121.292969 77.332031 122.515625 78.824219 123.679688 C 80.320312 124.839844 81.859375 125.941406 83.445312 126.976562 C 85.03125 128.011719 86.65625 128.976562 88.324219 129.878906 C 89.988281 130.777344 91.6875 131.609375 93.421875 132.371094 C 95.15625 133.128906 96.921875 133.816406 98.710938 134.433594 C 100.503906 135.046875 102.316406 135.585938 104.152344 136.050781 C 105.988281 136.515625 107.839844 136.902344 109.707031 137.214844 C 111.574219 137.527344 113.449219 137.761719 115.339844 137.917969 C 117.226562 138.074219 119.113281 138.152344 121.007812 138.152344 C 122.902344 138.152344 124.792969 138.074219 126.679688 137.917969 C 128.566406 137.761719 130.441406 137.527344 132.3125 137.214844 C 134.179688 136.902344 136.03125 136.515625 137.867188 136.050781 C 139.703125 135.585938 141.515625 135.046875 143.304688 134.433594 C 145.097656 133.816406 146.859375 133.128906 148.59375 132.371094 C 150.328125 131.609375 152.027344 130.777344 153.691406 129.878906 C 155.359375 128.976562 156.984375 128.011719 158.570312 126.976562 C 160.15625 125.941406 161.695312 124.839844 163.191406 123.679688 C 164.6875 122.515625 166.128906 121.292969 167.523438 120.011719 C 168.917969 118.730469 170.257812 117.394531 171.539062 116 C 172.824219 114.609375 174.046875 113.164062 175.210938 111.671875 C 176.375 110.175781 177.476562 108.636719 178.511719 107.054688 C 179.550781 105.46875 180.519531 103.84375 181.421875 102.179688 C 182.324219 100.511719 183.160156 98.8125 183.921875 97.082031 C 184.683594 95.347656 185.371094 93.585938 185.988281 91.792969 C 186.605469 90.003906 187.148438 88.191406 187.617188 86.355469 L 500.828125 86.355469 C 501.394531 86.355469 501.960938 86.328125 502.523438 86.269531 C 503.085938 86.214844 503.644531 86.132812 504.199219 86.023438 C 504.753906 85.910156 505.300781 85.773438 505.839844 85.609375 C 506.382812 85.445312 506.914062 85.257812 507.4375 85.039062 C 507.957031 84.824219 508.46875 84.582031 508.96875 84.316406 C 509.464844 84.046875 509.949219 83.757812 510.421875 83.445312 C 510.890625 83.128906 511.34375 82.792969 511.78125 82.433594 C 512.21875 82.074219 512.636719 81.695312 513.039062 81.296875 C 513.4375 80.894531 513.816406 80.476562 514.175781 80.039062 C 514.535156 79.601562 514.871094 79.148438 515.183594 78.679688 C 515.5 78.207031 515.789062 77.722656 516.054688 77.226562 C 516.320312 76.726562 516.5625 76.214844 516.78125 75.691406 C 516.996094 75.171875 517.1875 74.636719 517.351562 74.097656 C 517.515625 73.554688 517.652344 73.007812 517.761719 72.453125 C 517.871094 71.898438 517.957031 71.339844 518.011719 70.777344 C 518.066406 70.214844 518.09375 69.648438 518.09375 69.082031 C 518.09375 68.519531 518.066406 67.953125 518.011719 67.390625 C 517.957031 66.828125 517.871094 66.269531 517.761719 65.714844 C 517.652344 65.160156 517.515625 64.609375 517.351562 64.070312 C 517.1875 63.527344 516.996094 62.996094 516.78125 62.472656 C 516.5625 61.953125 516.320312 61.441406 516.054688 60.941406 C 515.789062 60.441406 515.5 59.957031 515.183594 59.488281 C 514.871094 59.019531 514.535156 58.5625 514.175781 58.125 C 513.816406 57.691406 513.4375 57.269531 513.039062 56.871094 C 512.636719 56.472656 512.21875 56.089844 511.78125 55.734375 C 511.34375 55.375 510.890625 55.039062 510.421875 54.722656 C 509.949219 54.410156 509.464844 54.117188 508.96875 53.851562 C 508.46875 53.585938 507.957031 53.34375 507.4375 53.128906 C 506.914062 52.910156 506.382812 52.71875 505.839844 52.554688 C 505.300781 52.390625 504.753906 52.253906 504.199219 52.144531 C 503.644531 52.035156 503.085938 51.949219 502.523438 51.894531 C 501.960938 51.839844 501.394531 51.8125 500.828125 51.8125 Z M 121.007812 103.625 C 119.878906 103.625 118.75 103.570312 117.625 103.457031 C 116.5 103.347656 115.382812 103.183594 114.273438 102.960938 C 113.164062 102.742188 112.066406 102.464844 110.984375 102.136719 C 109.902344 101.808594 108.839844 101.429688 107.792969 100.996094 C 106.75 100.5625 105.730469 100.078125 104.730469 99.546875 C 103.734375 99.011719 102.765625 98.433594 101.824219 97.804688 C 100.886719 97.175781 99.976562 96.503906 99.101562 95.785156 C 98.230469 95.066406 97.390625 94.308594 96.59375 93.507812 C 95.792969 92.707031 95.035156 91.871094 94.316406 90.996094 C 93.601562 90.121094 92.925781 89.214844 92.296875 88.273438 C 91.671875 87.332031 91.089844 86.363281 90.554688 85.367188 C 90.023438 84.367188 89.539062 83.347656 89.109375 82.300781 C 88.675781 81.257812 88.292969 80.191406 87.964844 79.109375 C 87.636719 78.027344 87.363281 76.929688 87.144531 75.820312 C 86.921875 74.710938 86.757812 73.59375 86.644531 72.46875 C 86.535156 71.34375 86.480469 70.214844 86.480469 69.082031 C 86.480469 67.953125 86.535156 66.824219 86.644531 65.699219 C 86.757812 64.570312 86.921875 63.453125 87.144531 62.34375 C 87.363281 61.234375 87.636719 60.140625 87.964844 59.054688 C 88.292969 57.972656 88.675781 56.910156 89.109375 55.863281 C 89.539062 54.820312 90.023438 53.796875 90.554688 52.800781 C 91.089844 51.804688 91.671875 50.832031 92.296875 49.894531 C 92.925781 48.953125 93.601562 48.042969 94.316406 47.171875 C 95.035156 46.296875 95.792969 45.457031 96.59375 44.660156 C 97.390625 43.859375 98.230469 43.101562 99.101562 42.382812 C 99.976562 41.664062 100.886719 40.992188 101.824219 40.363281 C 102.765625 39.734375 103.734375 39.152344 104.730469 38.621094 C 105.730469 38.085938 106.75 37.605469 107.792969 37.171875 C 108.839844 36.738281 109.902344 36.355469 110.984375 36.027344 C 112.066406 35.699219 113.164062 35.425781 114.273438 35.207031 C 115.382812 34.984375 116.5 34.820312 117.625 34.707031 C 118.75 34.597656 119.878906 34.542969 121.007812 34.542969 C 122.140625 34.542969 123.265625 34.597656 124.394531 34.707031 C 125.519531 34.820312 126.636719 34.984375 127.746094 35.207031 C 128.855469 35.425781 129.949219 35.699219 131.03125 36.027344 C 132.113281 36.355469 133.175781 36.738281 134.222656 37.171875 C 135.265625 37.605469 136.289062 38.085938 137.285156 38.621094 C 138.28125 39.152344 139.25 39.734375 140.191406 40.363281 C 141.132812 40.992188 142.039062 41.664062 142.914062 42.382812 C 143.789062 43.101562 144.625 43.859375 145.425781 44.660156 C 146.222656 45.457031 146.984375 46.296875 147.699219 47.171875 C 148.417969 48.042969 149.089844 48.953125 149.71875 49.894531 C 150.347656 50.832031 150.925781 51.804688 151.460938 52.800781 C 151.992188 53.796875 152.476562 54.820312 152.910156 55.863281 C 153.34375 56.910156 153.722656 57.972656 154.050781 59.054688 C 154.378906 60.140625 154.652344 61.234375 154.875 62.34375 C 155.09375 63.453125 155.261719 64.570312 155.371094 65.699219 C 155.480469 66.824219 155.539062 67.953125 155.539062 69.082031 C 155.539062 70.214844 155.480469 71.34375 155.371094 72.46875 C 155.261719 73.59375 155.09375 74.710938 154.875 75.820312 C 154.652344 76.929688 154.378906 78.027344 154.050781 79.109375 C 153.722656 80.191406 153.34375 81.257812 152.910156 82.300781 C 152.476562 83.347656 151.992188 84.367188 151.460938 85.367188 C 150.925781 86.363281 150.347656 87.332031 149.71875 88.273438 C 149.089844 89.214844 148.417969 90.121094 147.699219 90.996094 C 146.984375 91.871094 146.222656 92.707031 145.425781 93.507812 C 144.625 94.308594 143.789062 95.066406 142.914062 95.785156 C 142.039062 96.503906 141.132812 97.175781 140.191406 97.804688 C 139.25 98.433594 138.28125 99.011719 137.285156 99.546875 C 136.289062 100.078125 135.265625 100.5625 134.222656 100.996094 C 133.175781 101.429688 132.113281 101.808594 131.03125 102.136719 C 129.949219 102.464844 128.855469 102.742188 127.746094 102.960938 C 126.636719 103.183594 125.519531 103.347656 124.394531 103.457031 C 123.265625 103.570312 122.140625 103.625 121.007812 103.625 Z M 121.007812 103.625 " fill-opacity="1" fill-rule="nonzero"/></g><g clip-path="url(#f3486a01be)"><path fill="#000000" d="M 500.828125 328.144531 L 273.9375 328.144531 C 273.472656 326.308594 272.929688 324.496094 272.3125 322.707031 C 271.695312 320.914062 271.007812 319.152344 270.242188 317.417969 C 269.480469 315.6875 268.648438 313.988281 267.746094 312.320312 C 266.84375 310.65625 265.875 309.03125 264.835938 307.445312 C 263.800781 305.863281 262.699219 304.324219 261.535156 302.828125 C 260.371094 301.335938 259.144531 299.890625 257.863281 298.5 C 256.578125 297.109375 255.242188 295.769531 253.847656 294.488281 C 252.453125 293.207031 251.007812 291.984375 249.515625 290.820312 C 248.019531 289.660156 246.480469 288.558594 244.894531 287.523438 C 243.308594 286.488281 241.683594 285.523438 240.015625 284.621094 C 238.351562 283.722656 236.652344 282.890625 234.917969 282.128906 C 233.183594 281.371094 231.417969 280.683594 229.628906 280.066406 C 227.835938 279.453125 226.023438 278.914062 224.1875 278.449219 C 222.351562 277.984375 220.5 277.597656 218.632812 277.285156 C 216.765625 276.972656 214.890625 276.738281 213.003906 276.582031 C 211.113281 276.425781 209.226562 276.347656 207.332031 276.347656 C 205.4375 276.347656 203.546875 276.425781 201.660156 276.582031 C 199.773438 276.738281 197.898438 276.972656 196.027344 277.285156 C 194.160156 277.597656 192.308594 277.984375 190.472656 278.449219 C 188.636719 278.914062 186.824219 279.453125 185.035156 280.066406 C 183.242188 280.683594 181.480469 281.371094 179.746094 282.128906 C 178.011719 282.890625 176.3125 283.722656 174.648438 284.621094 C 172.980469 285.523438 171.355469 286.488281 169.769531 287.523438 C 168.183594 288.558594 166.644531 289.660156 165.148438 290.820312 C 163.652344 291.984375 162.210938 293.207031 160.816406 294.488281 C 159.421875 295.769531 158.082031 297.105469 156.800781 298.5 C 155.515625 299.890625 154.292969 301.335938 153.128906 302.828125 C 151.964844 304.324219 150.863281 305.863281 149.828125 307.445312 C 148.789062 309.03125 147.820312 310.65625 146.917969 312.320312 C 146.015625 313.988281 145.179688 315.6875 144.417969 317.417969 C 143.65625 319.152344 142.96875 320.914062 142.351562 322.707031 C 141.734375 324.496094 141.191406 326.308594 140.726562 328.144531 L 17.421875 328.144531 C 16.855469 328.144531 16.292969 328.171875 15.730469 328.230469 C 15.164062 328.285156 14.605469 328.367188 14.054688 328.476562 C 13.5 328.589844 12.949219 328.726562 12.410156 328.890625 C 11.867188 329.054688 11.335938 329.242188 10.8125 329.460938 C 10.292969 329.675781 9.78125 329.917969 9.28125 330.183594 C 8.785156 330.453125 8.300781 330.742188 7.828125 331.054688 C 7.359375 331.371094 6.90625 331.707031 6.46875 332.066406 C 6.03125 332.425781 5.613281 332.804688 5.214844 333.203125 C 4.8125 333.605469 4.433594 334.023438 4.074219 334.460938 C 3.714844 334.898438 3.378906 335.351562 3.066406 335.820312 C 2.75 336.292969 2.460938 336.777344 2.195312 337.273438 C 1.929688 337.773438 1.6875 338.285156 1.46875 338.808594 C 1.253906 339.328125 1.0625 339.863281 0.898438 340.402344 C 0.734375 340.945312 0.597656 341.492188 0.488281 342.046875 C 0.378906 342.601562 0.292969 343.160156 0.238281 343.722656 C 0.183594 344.285156 0.15625 344.851562 0.15625 345.417969 C 0.15625 345.980469 0.183594 346.546875 0.238281 347.109375 C 0.292969 347.671875 0.378906 348.230469 0.488281 348.785156 C 0.597656 349.339844 0.734375 349.890625 0.898438 350.429688 C 1.0625 350.972656 1.253906 351.503906 1.46875 352.027344 C 1.6875 352.546875 1.929688 353.058594 2.195312 353.558594 C 2.460938 354.058594 2.75 354.542969 3.066406 355.011719 C 3.378906 355.480469 3.714844 355.9375 4.074219 356.375 C 4.433594 356.808594 4.8125 357.230469 5.214844 357.628906 C 5.613281 358.027344 6.03125 358.410156 6.46875 358.765625 C 6.90625 359.125 7.359375 359.460938 7.828125 359.777344 C 8.300781 360.089844 8.785156 360.382812 9.28125 360.648438 C 9.78125 360.914062 10.292969 361.15625 10.8125 361.371094 C 11.335938 361.589844 11.867188 361.78125 12.410156 361.945312 C 12.949219 362.109375 13.5 362.246094 14.054688 362.355469 C 14.605469 362.464844 15.164062 362.550781 15.730469 362.605469 C 16.292969 362.660156 16.855469 362.6875 17.421875 362.6875 L 140.726562 362.6875 C 141.191406 364.523438 141.734375 366.335938 142.351562 368.128906 C 142.96875 369.917969 143.65625 371.679688 144.417969 373.414062 C 145.179688 375.148438 146.015625 376.847656 146.917969 378.511719 C 147.820312 380.175781 148.789062 381.800781 149.828125 383.386719 C 150.863281 384.972656 151.964844 386.511719 153.128906 388.003906 C 154.292969 389.496094 155.515625 390.941406 156.800781 392.332031 C 158.082031 393.726562 159.421875 395.0625 160.816406 396.34375 C 162.210938 397.628906 163.652344 398.847656 165.148438 400.011719 C 166.644531 401.175781 168.183594 402.273438 169.769531 403.308594 C 171.355469 404.34375 172.980469 405.3125 174.648438 406.210938 C 176.3125 407.113281 178.011719 407.941406 179.746094 408.703125 C 181.480469 409.464844 183.242188 410.152344 185.035156 410.765625 C 186.824219 411.378906 188.636719 411.917969 190.472656 412.382812 C 192.308594 412.847656 194.160156 413.238281 196.027344 413.546875 C 197.898438 413.859375 199.773438 414.09375 201.660156 414.25 C 203.546875 414.40625 205.4375 414.484375 207.332031 414.484375 C 209.226562 414.484375 211.113281 414.40625 213 414.25 C 214.890625 414.09375 216.765625 413.859375 218.632812 413.546875 C 220.5 413.238281 222.351562 412.847656 224.1875 412.382812 C 226.023438 411.917969 227.835938 411.378906 229.628906 410.765625 C 231.417969 410.152344 233.183594 409.464844 234.917969 408.703125 C 236.652344 407.941406 238.351562 407.113281 240.015625 406.210938 C 241.683594 405.3125 243.308594 404.34375 244.894531 403.308594 C 246.480469 402.273438 248.019531 401.175781 249.515625 400.011719 C 251.007812 398.847656 252.453125 397.628906 253.847656 396.34375 C 255.242188 395.0625 256.578125 393.726562 257.863281 392.332031 C 259.144531 390.941406 260.371094 389.496094 261.535156 388.003906 C 262.699219 386.511719 263.800781 384.972656 264.835938 383.386719 C 265.875 381.800781 266.84375 380.175781 267.746094 378.511719 C 268.648438 376.847656 269.480469 375.148438 270.242188 373.414062 C 271.007812 371.679688 271.695312 369.917969 272.3125 368.128906 C 272.929688 366.335938 273.472656 364.523438 273.9375 362.6875 L 500.828125 362.6875 C 501.394531 362.6875 501.960938 362.660156 502.523438 362.605469 C 503.085938 362.550781 503.644531 362.464844 504.199219 362.355469 C 504.753906 362.246094 505.300781 362.109375 505.839844 361.945312 C 506.382812 361.78125 506.914062 361.589844 507.4375 361.371094 C 507.957031 361.15625 508.46875 360.914062 508.96875 360.648438 C 509.464844 360.382812 509.949219 360.089844 510.421875 359.777344 C 510.890625 359.460938 511.34375 359.125 511.78125 358.765625 C 512.21875 358.410156 512.636719 358.027344 513.039062 357.628906 C 513.4375 357.230469 513.816406 356.808594 514.175781 356.375 C 514.535156 355.9375 514.871094 355.480469 515.183594 355.011719 C 515.5 354.542969 515.789062 354.058594 516.054688 353.558594 C 516.320312 353.058594 516.5625 352.546875 516.78125 352.027344 C 516.996094 351.503906 517.1875 350.972656 517.351562 350.429688 C 517.515625 349.890625 517.652344 349.339844 517.761719 348.785156 C 517.871094 348.230469 517.957031 347.671875 518.011719 347.109375 C 518.066406 346.546875 518.09375 345.980469 518.09375 345.417969 C 518.09375 344.851562 518.066406 344.285156 518.011719 343.722656 C 517.957031 343.160156 517.871094 342.601562 517.761719 342.046875 C 517.652344 341.492188 517.515625 340.945312 517.351562 340.402344 C 517.1875 339.863281 516.996094 339.328125 516.78125 338.808594 C 516.5625 338.285156 516.320312 337.773438 516.054688 337.273438 C 515.789062 336.777344 515.5 336.292969 515.183594 335.820312 C 514.871094 335.351562 514.535156 334.898438 514.175781 334.460938 C 513.816406 334.023438 513.4375 333.605469 513.039062 333.203125 C 512.636719 332.804688 512.21875 332.425781 511.78125 332.066406 C 511.34375 331.707031 510.890625 331.371094 510.421875 331.054688 C 509.949219 330.742188 509.464844 330.453125 508.96875 330.183594 C 508.46875 329.917969 507.957031 329.675781 507.4375 329.460938 C 506.914062 329.242188 506.382812 329.054688 505.839844 328.890625 C 505.300781 328.726562 504.753906 328.589844 504.199219 328.476562 C 503.644531 328.367188 503.085938 328.285156 502.523438 328.230469 C 501.960938 328.171875 501.394531 328.144531 500.828125 328.144531 Z M 207.332031 379.957031 C 206.199219 379.957031 205.074219 379.902344 203.945312 379.792969 C 202.820312 379.679688 201.703125 379.515625 200.59375 379.292969 C 199.484375 379.074219 198.390625 378.800781 197.308594 378.472656 C 196.226562 378.144531 195.164062 377.761719 194.117188 377.328125 C 193.074219 376.894531 192.050781 376.414062 191.054688 375.878906 C 190.058594 375.347656 189.089844 374.765625 188.148438 374.136719 C 187.207031 373.507812 186.300781 372.835938 185.425781 372.117188 C 184.550781 371.398438 183.714844 370.640625 182.914062 369.839844 C 182.117188 369.042969 181.359375 368.203125 180.640625 367.328125 C 179.921875 366.457031 179.25 365.546875 178.621094 364.605469 C 177.992188 363.667969 177.414062 362.695312 176.878906 361.699219 C 176.347656 360.703125 175.863281 359.679688 175.429688 358.636719 C 174.996094 357.589844 174.617188 356.527344 174.289062 355.445312 C 173.960938 354.359375 173.6875 353.265625 173.464844 352.15625 C 173.246094 351.046875 173.078125 349.929688 172.96875 348.800781 C 172.859375 347.675781 172.800781 346.546875 172.800781 345.417969 C 172.800781 344.285156 172.859375 343.15625 172.96875 342.03125 C 173.078125 340.90625 173.246094 339.789062 173.464844 338.679688 C 173.6875 337.570312 173.960938 336.472656 174.289062 335.390625 C 174.617188 334.308594 174.996094 333.242188 175.429688 332.199219 C 175.863281 331.152344 176.347656 330.132812 176.878906 329.132812 C 177.414062 328.136719 177.992188 327.167969 178.621094 326.226562 C 179.25 325.285156 179.921875 324.378906 180.640625 323.503906 C 181.359375 322.628906 182.117188 321.792969 182.914062 320.992188 C 183.714844 320.191406 184.550781 319.433594 185.425781 318.714844 C 186.300781 317.996094 187.207031 317.324219 188.148438 316.695312 C 189.089844 316.066406 190.058594 315.488281 191.054688 314.953125 C 192.050781 314.421875 193.074219 313.9375 194.117188 313.503906 C 195.164062 313.070312 196.226562 312.691406 197.308594 312.363281 C 198.390625 312.035156 199.484375 311.757812 200.59375 311.539062 C 201.703125 311.316406 202.820312 311.152344 203.945312 311.042969 C 205.074219 310.929688 206.199219 310.875 207.332031 310.875 C 208.460938 310.875 209.589844 310.929688 210.714844 311.042969 C 211.839844 311.152344 212.957031 311.316406 214.066406 311.539062 C 215.175781 311.757812 216.273438 312.035156 217.355469 312.363281 C 218.4375 312.691406 219.5 313.070312 220.546875 313.503906 C 221.589844 313.9375 222.609375 314.421875 223.609375 314.953125 C 224.605469 315.488281 225.574219 316.066406 226.515625 316.695312 C 227.457031 317.324219 228.363281 317.996094 229.238281 318.714844 C 230.109375 319.433594 230.949219 320.191406 231.746094 320.992188 C 232.546875 321.792969 233.304688 322.628906 234.023438 323.503906 C 234.742188 324.378906 235.414062 325.285156 236.042969 326.226562 C 236.667969 327.167969 237.25 328.136719 237.785156 329.132812 C 238.316406 330.132812 238.800781 331.152344 239.230469 332.199219 C 239.664062 333.242188 240.046875 334.308594 240.375 335.390625 C 240.703125 336.472656 240.976562 337.570312 241.195312 338.679688 C 241.417969 339.789062 241.582031 340.90625 241.695312 342.03125 C 241.804688 343.15625 241.859375 344.285156 241.859375 345.417969 C 241.859375 346.546875 241.804688 347.675781 241.695312 348.800781 C 241.582031 349.929688 241.417969 351.046875 241.195312 352.15625 C 240.976562 353.265625 240.703125 354.359375 240.375 355.445312 C 240.046875 356.527344 239.664062 357.589844 239.230469 358.636719 C 238.800781 359.679688 238.316406 360.703125 237.785156 361.699219 C 237.25 362.695312 236.667969 363.667969 236.042969 364.605469 C 235.414062 365.546875 234.742188 366.457031 234.023438 367.328125 C 233.304688 368.203125 232.546875 369.042969 231.746094 369.839844 C 230.949219 370.640625 230.109375 371.398438 229.238281 372.117188 C 228.363281 372.835938 227.457031 373.507812 226.515625 374.136719 C 225.574219 374.765625 224.605469 375.347656 223.609375 375.878906 C 222.609375 376.414062 221.589844 376.894531 220.546875 377.328125 C 219.5 377.761719 218.4375 378.144531 217.355469 378.472656 C 216.273438 378.800781 215.175781 379.074219 214.066406 379.292969 C 212.957031 379.515625 211.839844 379.679688 210.714844 379.792969 C 209.589844 379.902344 208.460938 379.957031 207.332031 379.957031 Z M 207.332031 379.957031 " fill-opacity="1" fill-rule="nonzero"/></g><g clip-path="url(#4db89f99b3)"><path fill="#000000" d="M 500.828125 189.980469 L 481.113281 189.980469 C 480.644531 188.144531 480.105469 186.332031 479.488281 184.539062 C 478.871094 182.75 478.179688 180.988281 477.417969 179.253906 C 476.65625 177.519531 475.824219 175.820312 474.921875 174.15625 C 474.019531 172.488281 473.046875 170.863281 472.011719 169.28125 C 470.972656 167.695312 469.875 166.15625 468.710938 164.664062 C 467.546875 163.167969 466.320312 161.726562 465.039062 160.332031 C 463.753906 158.941406 462.414062 157.601562 461.023438 156.320312 C 459.628906 155.039062 458.183594 153.816406 456.6875 152.65625 C 455.195312 151.492188 453.652344 150.394531 452.066406 149.359375 C 450.480469 148.324219 448.855469 147.355469 447.191406 146.453125 C 445.527344 145.554688 443.824219 144.722656 442.089844 143.964844 C 440.355469 143.203125 438.59375 142.515625 436.804688 141.902344 C 435.011719 141.285156 433.199219 140.746094 431.363281 140.28125 C 429.527344 139.820312 427.675781 139.429688 425.808594 139.117188 C 423.941406 138.808594 422.0625 138.574219 420.175781 138.417969 C 418.289062 138.261719 416.398438 138.183594 414.507812 138.183594 C 412.613281 138.183594 410.722656 138.261719 408.835938 138.417969 C 406.949219 138.574219 405.070312 138.808594 403.203125 139.117188 C 401.335938 139.429688 399.484375 139.820312 397.648438 140.28125 C 395.8125 140.746094 394 141.285156 392.210938 141.902344 C 390.417969 142.515625 388.65625 143.203125 386.921875 143.964844 C 385.1875 144.722656 383.488281 145.554688 381.820312 146.453125 C 380.15625 147.355469 378.53125 148.324219 376.945312 149.359375 C 375.359375 150.394531 373.820312 151.492188 372.324219 152.65625 C 370.828125 153.816406 369.386719 155.039062 367.992188 156.320312 C 366.597656 157.601562 365.257812 158.941406 363.976562 160.332031 C 362.691406 161.726562 361.46875 163.167969 360.304688 164.664062 C 359.140625 166.15625 358.039062 167.695312 357 169.28125 C 355.964844 170.863281 354.996094 172.488281 354.09375 174.15625 C 353.1875 175.820312 352.355469 177.519531 351.59375 179.253906 C 350.832031 180.988281 350.140625 182.75 349.527344 184.539062 C 348.910156 186.332031 348.367188 188.144531 347.898438 189.980469 L 17.421875 189.980469 C 16.855469 189.980469 16.292969 190.007812 15.730469 190.0625 C 15.164062 190.117188 14.605469 190.199219 14.054688 190.3125 C 13.5 190.421875 12.949219 190.558594 12.410156 190.722656 C 11.867188 190.886719 11.335938 191.078125 10.8125 191.292969 C 10.292969 191.511719 9.78125 191.75 9.28125 192.019531 C 8.785156 192.285156 8.300781 192.574219 7.828125 192.890625 C 7.359375 193.203125 6.90625 193.539062 6.46875 193.898438 C 6.03125 194.257812 5.613281 194.636719 5.214844 195.039062 C 4.8125 195.4375 4.433594 195.855469 4.074219 196.292969 C 3.714844 196.730469 3.378906 197.183594 3.066406 197.65625 C 2.75 198.125 2.460938 198.609375 2.195312 199.109375 C 1.929688 199.609375 1.6875 200.117188 1.46875 200.640625 C 1.253906 201.164062 1.0625 201.695312 0.898438 202.238281 C 0.734375 202.777344 0.597656 203.324219 0.488281 203.878906 C 0.378906 204.433594 0.292969 204.996094 0.238281 205.558594 C 0.183594 206.121094 0.15625 206.683594 0.15625 207.25 C 0.15625 207.816406 0.183594 208.378906 0.238281 208.941406 C 0.292969 209.503906 0.378906 210.066406 0.488281 210.621094 C 0.597656 211.175781 0.734375 211.722656 0.898438 212.261719 C 1.0625 212.804688 1.253906 213.335938 1.46875 213.859375 C 1.6875 214.382812 1.929688 214.894531 2.195312 215.390625 C 2.460938 215.890625 2.75 216.375 3.066406 216.84375 C 3.378906 217.316406 3.714844 217.769531 4.074219 218.207031 C 4.433594 218.644531 4.8125 219.0625 5.214844 219.460938 C 5.613281 219.863281 6.03125 220.242188 6.46875 220.601562 C 6.90625 220.960938 7.359375 221.296875 7.828125 221.609375 C 8.300781 221.925781 8.785156 222.214844 9.28125 222.480469 C 9.78125 222.75 10.292969 222.988281 10.8125 223.207031 C 11.335938 223.421875 11.867188 223.613281 12.410156 223.777344 C 12.949219 223.941406 13.5 224.078125 14.054688 224.1875 C 14.605469 224.300781 15.164062 224.382812 15.730469 224.4375 C 16.292969 224.492188 16.855469 224.519531 17.421875 224.519531 L 347.898438 224.519531 C 348.367188 226.355469 348.910156 228.167969 349.527344 229.960938 C 350.140625 231.75 350.832031 233.511719 351.59375 235.246094 C 352.355469 236.980469 353.1875 238.679688 354.09375 240.34375 C 354.996094 242.011719 355.964844 243.636719 357 245.21875 C 358.039062 246.804688 359.140625 248.34375 360.304688 249.835938 C 361.46875 251.332031 362.691406 252.773438 363.976562 254.167969 C 365.257812 255.558594 366.597656 256.894531 367.992188 258.179688 C 369.386719 259.460938 370.828125 260.683594 372.324219 261.84375 C 373.820312 263.007812 375.359375 264.105469 376.945312 265.140625 C 378.53125 266.175781 380.15625 267.144531 381.820312 268.046875 C 383.488281 268.945312 385.1875 269.777344 386.921875 270.535156 C 388.65625 271.296875 390.417969 271.984375 392.210938 272.597656 C 394 273.214844 395.8125 273.753906 397.648438 274.21875 C 399.484375 274.683594 401.335938 275.070312 403.203125 275.382812 C 405.070312 275.691406 406.949219 275.925781 408.835938 276.082031 C 410.722656 276.238281 412.613281 276.316406 414.507812 276.316406 C 416.398438 276.316406 418.289062 276.238281 420.175781 276.082031 C 422.0625 275.925781 423.941406 275.691406 425.808594 275.382812 C 427.675781 275.070312 429.527344 274.683594 431.363281 274.21875 C 433.199219 273.753906 435.011719 273.214844 436.804688 272.597656 C 438.59375 271.984375 440.355469 271.296875 442.089844 270.535156 C 443.824219 269.777344 445.527344 268.945312 447.191406 268.046875 C 448.855469 267.144531 450.480469 266.175781 452.066406 265.140625 C 453.652344 264.105469 455.195312 263.007812 456.6875 261.84375 C 458.183594 260.683594 459.628906 259.460938 461.023438 258.179688 C 462.414062 256.894531 463.753906 255.558594 465.039062 254.167969 C 466.320312 252.773438 467.546875 251.332031 468.710938 249.835938 C 469.875 248.34375 470.972656 246.804688 472.011719 245.21875 C 473.046875 243.636719 474.019531 242.011719 474.921875 240.34375 C 475.824219 238.679688 476.65625 236.980469 477.417969 235.246094 C 478.179688 233.511719 478.871094 231.75 479.488281 229.960938 C 480.105469 228.167969 480.644531 226.355469 481.113281 224.519531 L 500.828125 224.519531 C 501.394531 224.519531 501.960938 224.492188 502.523438 224.4375 C 503.085938 224.382812 503.644531 224.300781 504.199219 224.1875 C 504.753906 224.078125 505.300781 223.941406 505.839844 223.777344 C 506.382812 223.613281 506.914062 223.421875 507.4375 223.207031 C 507.957031 222.988281 508.46875 222.75 508.96875 222.480469 C 509.464844 222.214844 509.949219 221.925781 510.421875 221.609375 C 510.890625 221.296875 511.34375 220.960938 511.78125 220.601562 C 512.21875 220.242188 512.636719 219.863281 513.039062 219.460938 C 513.4375 219.0625 513.816406 218.644531 514.175781 218.207031 C 514.535156 217.769531 514.871094 217.316406 515.183594 216.84375 C 515.5 216.375 515.789062 215.890625 516.054688 215.390625 C 516.320312 214.894531 516.5625 214.382812 516.78125 213.859375 C 516.996094 213.335938 517.1875 212.804688 517.351562 212.261719 C 517.515625 211.722656 517.652344 211.175781 517.761719 210.621094 C 517.871094 210.066406 517.957031 209.503906 518.011719 208.941406 C 518.066406 208.378906 518.09375 207.816406 518.09375 207.25 C 518.09375 206.683594 518.066406 206.121094 518.011719 205.558594 C 517.957031 204.996094 517.871094 204.433594 517.761719 203.878906 C 517.652344 203.324219 517.515625 202.777344 517.351562 202.238281 C 517.1875 201.695312 516.996094 201.164062 516.78125 200.640625 C 516.5625 200.117188 516.320312 199.609375 516.054688 199.109375 C 515.789062 198.609375 515.5 198.125 515.183594 197.65625 C 514.871094 197.183594 514.535156 196.730469 514.175781 196.292969 C 513.816406 195.855469 513.4375 195.4375 513.039062 195.039062 C 512.636719 194.636719 512.21875 194.257812 511.78125 193.898438 C 511.34375 193.539062 510.890625 193.203125 510.421875 192.890625 C 509.949219 192.574219 509.464844 192.285156 508.96875 192.019531 C 508.46875 191.75 507.957031 191.511719 507.4375 191.292969 C 506.914062 191.078125 506.382812 190.886719 505.839844 190.722656 C 505.300781 190.558594 504.753906 190.421875 504.199219 190.3125 C 503.644531 190.199219 503.085938 190.117188 502.523438 190.0625 C 501.960938 190.007812 501.394531 189.980469 500.828125 189.980469 Z M 414.507812 241.792969 C 413.375 241.792969 412.246094 241.734375 411.121094 241.625 C 409.996094 241.515625 408.878906 241.347656 407.769531 241.128906 C 406.660156 240.90625 405.566406 240.632812 404.484375 240.304688 C 403.402344 239.976562 402.335938 239.59375 401.292969 239.164062 C 400.246094 238.730469 399.226562 238.246094 398.230469 237.714844 C 397.230469 237.179688 396.261719 236.597656 395.324219 235.96875 C 394.382812 235.34375 393.476562 234.667969 392.601562 233.949219 C 391.726562 233.234375 390.890625 232.472656 390.089844 231.675781 C 389.292969 230.875 388.53125 230.039062 387.816406 229.164062 C 387.097656 228.289062 386.425781 227.382812 385.796875 226.441406 C 385.167969 225.5 384.585938 224.53125 384.054688 223.53125 C 383.519531 222.535156 383.039062 221.515625 382.605469 220.46875 C 382.171875 219.421875 381.792969 218.359375 381.464844 217.277344 C 381.136719 216.195312 380.863281 215.097656 380.640625 213.988281 C 380.421875 212.878906 380.253906 211.761719 380.144531 210.636719 C 380.03125 209.511719 379.976562 208.382812 379.976562 207.25 C 379.976562 206.117188 380.03125 204.988281 380.144531 203.863281 C 380.253906 202.738281 380.421875 201.621094 380.640625 200.511719 C 380.863281 199.402344 381.136719 198.304688 381.464844 197.222656 C 381.792969 196.140625 382.171875 195.078125 382.605469 194.03125 C 383.039062 192.984375 383.519531 191.964844 384.054688 190.96875 C 384.585938 189.96875 385.167969 189 385.796875 188.058594 C 386.425781 187.117188 387.097656 186.210938 387.816406 185.335938 C 388.53125 184.460938 389.292969 183.625 390.089844 182.824219 C 390.890625 182.027344 391.726562 181.265625 392.601562 180.550781 C 393.476562 179.832031 394.382812 179.15625 395.324219 178.53125 C 396.261719 177.902344 397.230469 177.320312 398.230469 176.785156 C 399.226562 176.253906 400.246094 175.769531 401.292969 175.335938 C 402.335938 174.90625 403.402344 174.523438 404.484375 174.195312 C 405.566406 173.867188 406.660156 173.59375 407.769531 173.371094 C 408.878906 173.152344 409.996094 172.984375 411.121094 172.875 C 412.246094 172.765625 413.375 172.707031 414.507812 172.707031 C 415.636719 172.707031 416.765625 172.765625 417.890625 172.875 C 419.015625 172.984375 420.132812 173.152344 421.242188 173.371094 C 422.351562 173.59375 423.449219 173.867188 424.53125 174.195312 C 425.613281 174.523438 426.675781 174.90625 427.71875 175.335938 C 428.765625 175.769531 429.785156 176.253906 430.785156 176.785156 C 431.78125 177.320312 432.75 177.902344 433.691406 178.53125 C 434.628906 179.15625 435.539062 179.832031 436.410156 180.550781 C 437.285156 181.265625 438.121094 182.027344 438.921875 182.824219 C 439.722656 183.625 440.480469 184.460938 441.199219 185.335938 C 441.914062 186.210938 442.589844 187.117188 443.214844 188.058594 C 443.84375 189 444.425781 189.96875 444.957031 190.96875 C 445.492188 191.964844 445.972656 192.984375 446.40625 194.03125 C 446.839844 195.078125 447.21875 196.140625 447.546875 197.222656 C 447.878906 198.304688 448.152344 199.402344 448.371094 200.511719 C 448.59375 201.621094 448.757812 202.738281 448.871094 203.863281 C 448.980469 204.988281 449.035156 206.117188 449.035156 207.25 C 449.035156 208.382812 448.980469 209.511719 448.871094 210.636719 C 448.757812 211.761719 448.59375 212.878906 448.371094 213.988281 C 448.152344 215.097656 447.878906 216.195312 447.550781 217.277344 C 447.21875 218.359375 446.839844 219.421875 446.40625 220.46875 C 445.972656 221.515625 445.492188 222.535156 444.957031 223.53125 C 444.425781 224.53125 443.84375 225.5 443.214844 226.441406 C 442.589844 227.382812 441.914062 228.289062 441.199219 229.164062 C 440.480469 230.039062 439.722656 230.875 438.921875 231.675781 C 438.121094 232.472656 437.285156 233.234375 436.410156 233.949219 C 435.539062 234.667969 434.628906 235.34375 433.691406 235.96875 C 432.75 236.597656 431.78125 237.179688 430.785156 237.714844 C 429.785156 238.246094 428.765625 238.730469 427.71875 239.164062 C 426.675781 239.59375 425.613281 239.976562 424.53125 240.304688 C 423.449219 240.632812 422.351562 240.90625 421.242188 241.128906 C 420.132812 241.347656 419.015625 241.515625 417.890625 241.625 C 416.765625 241.734375 415.636719 241.792969 414.507812 241.792969 Z M 414.507812 241.792969 " fill-opacity="1" fill-rule="nonzero"/></g></svg>