<svg xmlns="http://www.w3.org/2000/svg" xmlns:xlink="http://www.w3.org/1999/xlink" width="500" zoomAndPan="magnify" viewBox="0 0 375 374.999991" height="500" preserveAspectRatio="xMidYMid meet" version="1.0"><defs><g/></defs><g fill="#3d3b3a" fill-opacity="1"><g transform="translate(52.857425, 216.447319)"><g><path d="M 7.5 -20.25 L 15.046875 -20.25 L 15.046875 -15.25 L 7.5 -15.25 L 7.5 -5 L 17 -5 L 17 0 L 2 0 L 2 -35 L 17 -35 L 17 -30 L 7.5 -30 Z M 7.5 -20.25 "/></g></g></g><g fill="#3d3b3a" fill-opacity="1"><g transform="translate(74.255608, 216.447319)"><g><path d="M 1.296875 -26.59375 C 1.296875 -29.425781 1.96875 -31.601562 3.3125 -33.125 C 4.664062 -34.644531 6.695312 -35.40625 9.40625 -35.40625 C 12.101562 -35.40625 14.125 -34.644531 15.46875 -33.125 C 16.820312 -31.601562 17.5 -29.425781 17.5 -26.59375 L 17.5 -25.5 L 12.296875 -25.5 L 12.296875 -26.953125 C 12.296875 -28.210938 12.050781 -29.101562 11.5625 -29.625 C 11.082031 -30.144531 10.410156 -30.40625 9.546875 -30.40625 C 8.679688 -30.40625 8.003906 -30.144531 7.515625 -29.625 C 7.035156 -29.101562 6.796875 -28.210938 6.796875 -26.953125 C 6.796875 -25.753906 7.0625 -24.695312 7.59375 -23.78125 C 8.132812 -22.863281 8.800781 -21.992188 9.59375 -21.171875 C 10.394531 -20.359375 11.253906 -19.539062 12.171875 -18.71875 C 13.085938 -17.90625 13.945312 -17.015625 14.75 -16.046875 C 15.550781 -15.078125 16.21875 -13.976562 16.75 -12.75 C 17.28125 -11.519531 17.546875 -10.070312 17.546875 -8.40625 C 17.546875 -5.570312 16.851562 -3.394531 15.46875 -1.875 C 14.09375 -0.351562 12.050781 0.40625 9.34375 0.40625 C 6.644531 0.40625 4.601562 -0.351562 3.21875 -1.875 C 1.84375 -3.394531 1.15625 -5.570312 1.15625 -8.40625 L 1.15625 -10.546875 L 6.34375 -10.546875 L 6.34375 -8.046875 C 6.34375 -6.785156 6.601562 -5.90625 7.125 -5.40625 C 7.644531 -4.90625 8.335938 -4.65625 9.203125 -4.65625 C 10.066406 -4.65625 10.753906 -4.90625 11.265625 -5.40625 C 11.785156 -5.90625 12.046875 -6.785156 12.046875 -8.046875 C 12.046875 -9.242188 11.78125 -10.300781 11.25 -11.21875 C 10.71875 -12.132812 10.050781 -13 9.25 -13.8125 C 8.445312 -14.632812 7.585938 -15.453125 6.671875 -16.265625 C 5.753906 -17.085938 4.894531 -17.984375 4.09375 -18.953125 C 3.300781 -19.921875 2.632812 -21.019531 2.09375 -22.25 C 1.5625 -23.476562 1.296875 -24.925781 1.296875 -26.59375 Z M 1.296875 -26.59375 "/></g></g></g><g fill="#3d3b3a" fill-opacity="1"><g transform="translate(95.953754, 216.447319)"><g><path d="M 0.40625 -35 L 17.40625 -35 L 17.40625 -30 L 11.65625 -30 L 11.65625 0 L 6.15625 0 L 6.15625 -30 L 0.40625 -30 Z M 0.40625 -35 "/></g></g></g><g fill="#3d3b3a" fill-opacity="1"><g transform="translate(116.751995, 216.447319)"><g><path d="M 7.5 -20.25 L 15.046875 -20.25 L 15.046875 -15.25 L 7.5 -15.25 L 7.5 -5 L 17 -5 L 17 0 L 2 0 L 2 -35 L 17 -35 L 17 -30 L 7.5 -30 Z M 7.5 -20.25 "/></g></g></g><g fill="#3d3b3a" fill-opacity="1"><g transform="translate(138.150178, 216.447319)"><g><path d="M 2 -35 L 7.5 -35 L 7.5 -5 L 16.546875 -5 L 16.546875 0 L 2 0 Z M 2 -35 "/></g></g></g><g fill="#3d3b3a" fill-opacity="1"><g transform="translate(158.098495, 216.447319)"><g><path d="M 2 -35 L 7.5 -35 L 7.5 -5 L 16.546875 -5 L 16.546875 0 L 2 0 Z M 2 -35 "/></g></g></g><g fill="#3d3b3a" fill-opacity="1"><g transform="translate(178.046812, 216.447319)"><g><path d="M 7.5 -20.25 L 15.046875 -20.25 L 15.046875 -15.25 L 7.5 -15.25 L 7.5 -5 L 17 -5 L 17 0 L 2 0 L 2 -35 L 17 -35 L 17 -30 L 7.5 -30 Z M 7.5 -20.25 "/></g></g></g><g fill="#3d3b3a" fill-opacity="1"><g transform="translate(199.444987, 216.447319)"><g/></g></g><g fill="#3d3b3a" fill-opacity="1"><g transform="translate(210.194222, 216.447319)"><g><path d="M 2 -35 L 10.703125 -35 C 13.460938 -35 15.519531 -34.265625 16.875 -32.796875 C 18.226562 -31.328125 18.90625 -29.175781 18.90625 -26.34375 L 18.90625 -8.65625 C 18.90625 -5.820312 18.226562 -3.671875 16.875 -2.203125 C 15.519531 -0.734375 13.460938 0 10.703125 0 L 2 0 Z M 7.5 -30 L 7.5 -5 L 10.59375 -5 C 11.46875 -5 12.15625 -5.25 12.65625 -5.75 C 13.15625 -6.25 13.40625 -7.132812 13.40625 -8.40625 L 13.40625 -26.59375 C 13.40625 -27.863281 13.15625 -28.75 12.65625 -29.25 C 12.15625 -29.75 11.46875 -30 10.59375 -30 Z M 7.5 -30 "/></g></g></g><g fill="#3d3b3a" fill-opacity="1"><g transform="translate(233.592209, 216.447319)"><g><path d="M 19.796875 0 L 14.25 0 L 13.296875 -6.34375 L 6.546875 -6.34375 L 5.59375 0 L 0.546875 0 L 6.15625 -35 L 14.203125 -35 Z M 7.25 -11.09375 L 12.546875 -11.09375 L 9.90625 -28.796875 Z M 7.25 -11.09375 "/></g></g></g><g fill="#3d3b3a" fill-opacity="1"><g transform="translate(256.940186, 216.447319)"><g><path d="M 13.5 0 C 13.4375 -0.226562 13.367188 -0.441406 13.296875 -0.640625 C 13.234375 -0.847656 13.175781 -1.097656 13.125 -1.390625 C 13.070312 -1.691406 13.035156 -2.078125 13.015625 -2.546875 C 13.003906 -3.015625 13 -3.597656 13 -4.296875 L 13 -9.796875 C 13 -11.429688 12.710938 -12.582031 12.140625 -13.25 C 11.578125 -13.914062 10.664062 -14.25 9.40625 -14.25 L 7.5 -14.25 L 7.5 0 L 2 0 L 2 -35 L 10.296875 -35 C 13.160156 -35 15.234375 -34.332031 16.515625 -33 C 17.804688 -31.664062 18.453125 -29.648438 18.453125 -26.953125 L 18.453125 -24.203125 C 18.453125 -20.597656 17.25 -18.226562 14.84375 -17.09375 C 16.25 -16.53125 17.207031 -15.609375 17.71875 -14.328125 C 18.238281 -13.046875 18.5 -11.488281 18.5 -9.65625 L 18.5 -4.25 C 18.5 -3.382812 18.53125 -2.625 18.59375 -1.96875 C 18.664062 -1.320312 18.832031 -0.664062 19.09375 0 Z M 7.5 -30 L 7.5 -19.25 L 9.65625 -19.25 C 10.6875 -19.25 11.492188 -19.515625 12.078125 -20.046875 C 12.660156 -20.578125 12.953125 -21.546875 12.953125 -22.953125 L 12.953125 -26.40625 C 12.953125 -27.664062 12.722656 -28.578125 12.265625 -29.140625 C 11.816406 -29.710938 11.113281 -30 10.15625 -30 Z M 7.5 -30 "/></g></g></g><g fill="#3d3b3a" fill-opacity="1"><g transform="translate(280.038195, 216.447319)"><g><path d="M 17.953125 -13.046875 L 17.953125 -8.40625 C 17.953125 -5.570312 17.257812 -3.394531 15.875 -1.875 C 14.488281 -0.351562 12.445312 0.40625 9.75 0.40625 C 7.050781 0.40625 5.007812 -0.351562 3.625 -1.875 C 2.238281 -3.394531 1.546875 -5.570312 1.546875 -8.40625 L 1.546875 -26.59375 C 1.546875 -29.425781 2.238281 -31.601562 3.625 -33.125 C 5.007812 -34.644531 7.050781 -35.40625 9.75 -35.40625 C 12.445312 -35.40625 14.488281 -34.644531 15.875 -33.125 C 17.257812 -31.601562 17.953125 -29.425781 17.953125 -26.59375 L 17.953125 -23.203125 L 12.75 -23.203125 L 12.75 -26.953125 C 12.75 -28.210938 12.488281 -29.101562 11.96875 -29.625 C 11.457031 -30.144531 10.769531 -30.40625 9.90625 -30.40625 C 9.03125 -30.40625 8.332031 -30.144531 7.8125 -29.625 C 7.300781 -29.101562 7.046875 -28.210938 7.046875 -26.953125 L 7.046875 -8.046875 C 7.046875 -6.785156 7.300781 -5.90625 7.8125 -5.40625 C 8.332031 -4.90625 9.03125 -4.65625 9.90625 -4.65625 C 10.769531 -4.65625 11.457031 -4.90625 11.96875 -5.40625 C 12.488281 -5.90625 12.75 -6.785156 12.75 -8.046875 L 12.75 -13.046875 Z M 17.953125 -13.046875 "/></g></g></g><g fill="#3d3b3a" fill-opacity="1"><g transform="translate(302.336291, 216.447319)"><g><path d="M 7.15625 -11.59375 L 0.203125 -35 L 5.953125 -35 L 10.15625 -19.046875 L 14.34375 -35 L 19.59375 -35 L 12.65625 -11.59375 L 12.65625 0 L 7.15625 0 Z M 7.15625 -11.59375 "/></g></g></g><path stroke-linecap="butt" transform="matrix(-0.00928519, -0.937454, 0.937454, -0.00928519, 26.342242, 238.693417)" fill="none" stroke-linejoin="miter" d="M -0.0017993 2.501713 L 73.589316 2.501408 " stroke="#3d3b3a" stroke-width="5" stroke-opacity="1" stroke-miterlimit="4"/><path stroke-linecap="butt" transform="matrix(-0.937491, -0.00412021, 0.00412021, -0.937491, 109.559023, 239.931942)" fill="none" stroke-linejoin="miter" d="M -0.00106263 2.498267 L 88.628975 2.500414 " stroke="#3d3b3a" stroke-width="5" stroke-opacity="1" stroke-miterlimit="4"/><path stroke-linecap="butt" transform="matrix(0.662913, -0.662913, 0.662913, 0.662913, 25.676522, 169.446786)" fill="none" stroke-linejoin="miter" d="M -0.00239392 2.49972 L 62.24952 2.502667 " stroke="#3d3b3a" stroke-width="5" stroke-opacity="1" stroke-miterlimit="4"/><path stroke-linecap="butt" transform="matrix(0.662913, 0.662913, -0.662913, 0.662913, 67.483198, 128.19566)" fill="none" stroke-linejoin="miter" d="M -0.00232067 2.50024 L 62.234862 2.50024 " stroke="#3d3b3a" stroke-width="5" stroke-opacity="1" stroke-miterlimit="4"/><g fill="#3d3b3a" fill-opacity="1"><g transform="translate(125.419764, 241.444568)"><g><path d="M 6.765625 -6.578125 C 6.515625 -6.578125 6.269531 -6.46875 6.03125 -6.25 C 5.800781 -6.039062 5.570312 -5.742188 5.34375 -5.359375 C 5.113281 -4.972656 4.875 -4.519531 4.625 -4 C 4.3125 -3.3125 4.035156 -2.609375 3.796875 -1.890625 C 3.554688 -1.179688 3.375 -0.550781 3.25 0 L 0.640625 0 C 0.828125 -0.550781 1.015625 -1.164062 1.203125 -1.84375 C 1.398438 -2.53125 1.585938 -3.210938 1.765625 -3.890625 C 1.941406 -4.566406 2.082031 -5.179688 2.1875 -5.734375 C 2.289062 -6.296875 2.34375 -6.722656 2.34375 -7.015625 C 2.09375 -6.859375 1.84375 -6.648438 1.59375 -6.390625 C 1.34375 -6.140625 1.085938 -5.828125 0.828125 -5.453125 L 0.21875 -6.234375 C 0.539062 -6.671875 0.910156 -7.082031 1.328125 -7.46875 C 1.742188 -7.851562 2.164062 -8.160156 2.59375 -8.390625 C 3.03125 -8.617188 3.4375 -8.734375 3.8125 -8.734375 C 4.09375 -8.734375 4.304688 -8.65625 4.453125 -8.5 C 4.597656 -8.34375 4.671875 -8.082031 4.671875 -7.71875 C 4.671875 -7.519531 4.628906 -7.171875 4.546875 -6.671875 C 4.460938 -6.179688 4.316406 -5.550781 4.109375 -4.78125 C 3.898438 -4.019531 3.597656 -3.125 3.203125 -2.09375 L 3.125 -2.09375 C 3.445312 -2.976562 3.769531 -3.820312 4.09375 -4.625 C 4.414062 -5.425781 4.742188 -6.132812 5.078125 -6.75 C 5.421875 -7.363281 5.78125 -7.847656 6.15625 -8.203125 C 6.539062 -8.554688 6.96875 -8.734375 7.4375 -8.734375 C 7.789062 -8.734375 8.054688 -8.640625 8.234375 -8.453125 C 8.421875 -8.265625 8.515625 -8 8.515625 -7.65625 C 8.515625 -7.394531 8.457031 -7.117188 8.34375 -6.828125 C 8.226562 -6.546875 8.054688 -6.289062 7.828125 -6.0625 C 7.671875 -6.21875 7.492188 -6.34375 7.296875 -6.4375 C 7.109375 -6.53125 6.929688 -6.578125 6.765625 -6.578125 Z M 6.765625 -6.578125 "/></g></g></g><g fill="#3d3b3a" fill-opacity="1"><g transform="translate(137.562299, 241.444568)"><g><path d="M 3.734375 0.15625 C 2.742188 0.15625 1.957031 -0.117188 1.375 -0.671875 C 0.800781 -1.222656 0.515625 -1.976562 0.515625 -2.9375 C 0.515625 -3.71875 0.648438 -4.453125 0.921875 -5.140625 C 1.203125 -5.835938 1.582031 -6.457031 2.0625 -7 C 2.550781 -7.539062 3.113281 -7.960938 3.75 -8.265625 C 4.382812 -8.578125 5.054688 -8.734375 5.765625 -8.734375 C 6.515625 -8.734375 7.082031 -8.578125 7.46875 -8.265625 C 7.863281 -7.960938 8.0625 -7.570312 8.0625 -7.09375 C 8.0625 -6.820312 7.988281 -6.535156 7.84375 -6.234375 C 7.695312 -5.929688 7.429688 -5.617188 7.046875 -5.296875 C 6.671875 -4.984375 6.144531 -4.644531 5.46875 -4.28125 C 4.789062 -3.925781 3.921875 -3.5625 2.859375 -3.1875 L 2.859375 -4.21875 C 3.566406 -4.507812 4.128906 -4.800781 4.546875 -5.09375 C 4.960938 -5.394531 5.253906 -5.703125 5.421875 -6.015625 C 5.597656 -6.328125 5.6875 -6.644531 5.6875 -6.96875 C 5.6875 -7.175781 5.625 -7.34375 5.5 -7.46875 C 5.382812 -7.59375 5.238281 -7.65625 5.0625 -7.65625 C 4.757812 -7.65625 4.457031 -7.476562 4.15625 -7.125 C 3.863281 -6.78125 3.617188 -6.296875 3.421875 -5.671875 C 3.222656 -5.046875 3.125 -4.316406 3.125 -3.484375 C 3.125 -2.867188 3.253906 -2.410156 3.515625 -2.109375 C 3.773438 -1.804688 4.117188 -1.65625 4.546875 -1.65625 C 4.878906 -1.65625 5.28125 -1.753906 5.75 -1.953125 C 6.21875 -2.148438 6.664062 -2.507812 7.09375 -3.03125 L 7.671875 -2.15625 C 7.085938 -1.351562 6.4375 -0.765625 5.71875 -0.390625 C 5.007812 -0.0234375 4.347656 0.15625 3.734375 0.15625 Z M 3.734375 0.15625 "/></g></g></g><g fill="#3d3b3a" fill-opacity="1"><g transform="translate(149.802467, 241.444568)"><g><path d="M 2.265625 0.15625 C 1.703125 0.15625 1.25 -0.0507812 0.90625 -0.46875 C 0.570312 -0.882812 0.40625 -1.421875 0.40625 -2.078125 C 0.40625 -2.992188 0.578125 -3.851562 0.921875 -4.65625 C 1.273438 -5.46875 1.726562 -6.179688 2.28125 -6.796875 C 2.84375 -7.410156 3.457031 -7.890625 4.125 -8.234375 C 4.800781 -8.578125 5.457031 -8.75 6.09375 -8.75 C 6.5 -8.75 6.847656 -8.640625 7.140625 -8.421875 C 7.429688 -8.203125 7.726562 -7.894531 8.03125 -7.5 L 7.34375 -6.875 C 7.132812 -7.070312 6.898438 -7.210938 6.640625 -7.296875 C 6.378906 -7.390625 6.113281 -7.4375 5.84375 -7.4375 C 5.46875 -7.4375 5.109375 -7.316406 4.765625 -7.078125 C 4.429688 -6.835938 4.132812 -6.5 3.875 -6.0625 C 3.625 -5.625 3.429688 -5.113281 3.296875 -4.53125 C 3.160156 -3.957031 3.09375 -3.332031 3.09375 -2.65625 C 3.09375 -2.375 3.125 -2.15625 3.1875 -2 C 3.257812 -1.84375 3.363281 -1.765625 3.5 -1.765625 C 3.664062 -1.765625 3.90625 -1.9375 4.21875 -2.28125 C 4.53125 -2.625 4.875 -3.085938 5.25 -3.671875 C 5.632812 -4.253906 6 -4.894531 6.34375 -5.59375 C 6.695312 -6.300781 6.984375 -7.007812 7.203125 -7.71875 L 7.515625 -7.953125 L 8.203125 -8.578125 L 9.890625 -8.578125 C 9.679688 -7.941406 9.472656 -7.269531 9.265625 -6.5625 C 9.054688 -5.863281 8.875 -5.179688 8.71875 -4.515625 C 8.5625 -3.847656 8.429688 -3.253906 8.328125 -2.734375 C 8.222656 -2.222656 8.171875 -1.832031 8.171875 -1.5625 C 8.429688 -1.71875 8.6875 -1.921875 8.9375 -2.171875 C 9.1875 -2.429688 9.441406 -2.722656 9.703125 -3.046875 L 10.3125 -2.359375 C 9.988281 -1.910156 9.617188 -1.492188 9.203125 -1.109375 C 8.785156 -0.722656 8.359375 -0.414062 7.921875 -0.1875 C 7.484375 0.0390625 7.070312 0.15625 6.6875 0.15625 C 6.375 0.15625 6.128906 0.0664062 5.953125 -0.109375 C 5.773438 -0.296875 5.6875 -0.5625 5.6875 -0.90625 C 5.6875 -1.113281 5.722656 -1.414062 5.796875 -1.8125 C 5.878906 -2.207031 6.007812 -2.71875 6.1875 -3.34375 C 6.363281 -3.976562 6.585938 -4.753906 6.859375 -5.671875 L 7.03125 -5.671875 C 6.625 -4.472656 6.15625 -3.4375 5.625 -2.5625 C 5.101562 -1.695312 4.554688 -1.023438 3.984375 -0.546875 C 3.421875 -0.078125 2.847656 0.15625 2.265625 0.15625 Z M 2.265625 0.15625 "/></g></g></g><g fill="#3d3b3a" fill-opacity="1"><g transform="translate(164.327234, 241.444568)"><g><path d="M 1.734375 0.15625 C 1.367188 0.15625 1.085938 0.0664062 0.890625 -0.109375 C 0.703125 -0.296875 0.609375 -0.566406 0.609375 -0.921875 C 0.609375 -1.097656 0.617188 -1.273438 0.640625 -1.453125 C 0.671875 -1.640625 0.726562 -1.921875 0.8125 -2.296875 C 0.894531 -2.679688 1.03125 -3.242188 1.21875 -3.984375 L 3.140625 -11.6875 L 1.734375 -11.875 L 1.921875 -12.65625 L 5.71875 -13.609375 L 6.1875 -13.28125 C 5.957031 -12.488281 5.753906 -11.769531 5.578125 -11.125 C 5.398438 -10.476562 5.238281 -9.882812 5.09375 -9.34375 L 3.6875 -3.96875 C 3.601562 -3.59375 3.523438 -3.242188 3.453125 -2.921875 C 3.378906 -2.597656 3.328125 -2.316406 3.296875 -2.078125 C 3.265625 -1.847656 3.25 -1.675781 3.25 -1.5625 C 3.488281 -1.71875 3.734375 -1.921875 3.984375 -2.171875 C 4.242188 -2.429688 4.503906 -2.722656 4.765625 -3.046875 L 5.375 -2.359375 C 5.050781 -1.910156 4.679688 -1.492188 4.265625 -1.109375 C 3.847656 -0.722656 3.421875 -0.414062 2.984375 -0.1875 C 2.546875 0.0390625 2.128906 0.15625 1.734375 0.15625 Z M 1.734375 0.15625 "/></g></g></g><g fill="#3d3b3a" fill-opacity="1"><g transform="translate(173.950853, 241.444568)"><g/></g></g><g fill="#3d3b3a" fill-opacity="1"><g transform="translate(181.797562, 241.444568)"><g><path d="M 3.734375 0.15625 C 2.742188 0.15625 1.957031 -0.117188 1.375 -0.671875 C 0.800781 -1.222656 0.515625 -1.976562 0.515625 -2.9375 C 0.515625 -3.71875 0.648438 -4.453125 0.921875 -5.140625 C 1.203125 -5.835938 1.582031 -6.457031 2.0625 -7 C 2.550781 -7.539062 3.113281 -7.960938 3.75 -8.265625 C 4.382812 -8.578125 5.054688 -8.734375 5.765625 -8.734375 C 6.515625 -8.734375 7.082031 -8.578125 7.46875 -8.265625 C 7.863281 -7.960938 8.0625 -7.570312 8.0625 -7.09375 C 8.0625 -6.820312 7.988281 -6.535156 7.84375 -6.234375 C 7.695312 -5.929688 7.429688 -5.617188 7.046875 -5.296875 C 6.671875 -4.984375 6.144531 -4.644531 5.46875 -4.28125 C 4.789062 -3.925781 3.921875 -3.5625 2.859375 -3.1875 L 2.859375 -4.21875 C 3.566406 -4.507812 4.128906 -4.800781 4.546875 -5.09375 C 4.960938 -5.394531 5.253906 -5.703125 5.421875 -6.015625 C 5.597656 -6.328125 5.6875 -6.644531 5.6875 -6.96875 C 5.6875 -7.175781 5.625 -7.34375 5.5 -7.46875 C 5.382812 -7.59375 5.238281 -7.65625 5.0625 -7.65625 C 4.757812 -7.65625 4.457031 -7.476562 4.15625 -7.125 C 3.863281 -6.78125 3.617188 -6.296875 3.421875 -5.671875 C 3.222656 -5.046875 3.125 -4.316406 3.125 -3.484375 C 3.125 -2.867188 3.253906 -2.410156 3.515625 -2.109375 C 3.773438 -1.804688 4.117188 -1.65625 4.546875 -1.65625 C 4.878906 -1.65625 5.28125 -1.753906 5.75 -1.953125 C 6.21875 -2.148438 6.664062 -2.507812 7.09375 -3.03125 L 7.671875 -2.15625 C 7.085938 -1.351562 6.4375 -0.765625 5.71875 -0.390625 C 5.007812 -0.0234375 4.347656 0.15625 3.734375 0.15625 Z M 3.734375 0.15625 "/></g></g></g><g fill="#3d3b3a" fill-opacity="1"><g transform="translate(194.037733, 241.444568)"><g><path d="M 2.65625 0.15625 C 2.113281 0.15625 1.632812 0.078125 1.21875 -0.078125 C 0.8125 -0.234375 0.492188 -0.4375 0.265625 -0.6875 C 0.046875 -0.945312 -0.0625 -1.21875 -0.0625 -1.5 C -0.0625 -1.75 -0.00390625 -1.984375 0.109375 -2.203125 C 0.222656 -2.429688 0.363281 -2.628906 0.53125 -2.796875 C 0.945312 -2.296875 1.398438 -1.882812 1.890625 -1.5625 C 2.378906 -1.25 2.796875 -1.09375 3.140625 -1.09375 C 3.398438 -1.09375 3.613281 -1.15625 3.78125 -1.28125 C 3.957031 -1.414062 4.046875 -1.628906 4.046875 -1.921875 C 4.046875 -2.140625 3.957031 -2.351562 3.78125 -2.5625 C 3.601562 -2.769531 3.226562 -3.050781 2.65625 -3.40625 C 2.25 -3.675781 1.921875 -3.929688 1.671875 -4.171875 C 1.421875 -4.410156 1.238281 -4.648438 1.125 -4.890625 C 1.007812 -5.128906 0.953125 -5.394531 0.953125 -5.6875 C 0.953125 -6.28125 1.117188 -6.804688 1.453125 -7.265625 C 1.785156 -7.722656 2.234375 -8.082031 2.796875 -8.34375 C 3.359375 -8.601562 3.96875 -8.734375 4.625 -8.734375 C 5.082031 -8.734375 5.492188 -8.675781 5.859375 -8.5625 C 6.222656 -8.457031 6.515625 -8.289062 6.734375 -8.0625 C 6.960938 -7.84375 7.078125 -7.566406 7.078125 -7.234375 C 7.078125 -6.984375 7.03125 -6.757812 6.9375 -6.5625 C 6.84375 -6.363281 6.71875 -6.1875 6.5625 -6.03125 C 6.125 -6.570312 5.710938 -6.960938 5.328125 -7.203125 C 4.953125 -7.441406 4.601562 -7.5625 4.28125 -7.5625 C 3.96875 -7.5625 3.71875 -7.472656 3.53125 -7.296875 C 3.351562 -7.128906 3.265625 -6.925781 3.265625 -6.6875 C 3.265625 -6.53125 3.300781 -6.382812 3.375 -6.25 C 3.457031 -6.125 3.601562 -5.972656 3.8125 -5.796875 C 4.03125 -5.617188 4.347656 -5.382812 4.765625 -5.09375 C 5.171875 -4.820312 5.488281 -4.570312 5.71875 -4.34375 C 5.957031 -4.113281 6.128906 -3.890625 6.234375 -3.671875 C 6.335938 -3.453125 6.390625 -3.207031 6.390625 -2.9375 C 6.390625 -2.363281 6.222656 -1.84375 5.890625 -1.375 C 5.554688 -0.90625 5.101562 -0.53125 4.53125 -0.25 C 3.96875 0.0195312 3.34375 0.15625 2.65625 0.15625 Z M 2.65625 0.15625 "/></g></g></g><g fill="#3d3b3a" fill-opacity="1"><g transform="translate(205.282053, 241.444568)"><g><path d="M 6.484375 -2.484375 C 5.847656 -1.585938 5.179688 -0.921875 4.484375 -0.484375 C 3.796875 -0.0546875 3.109375 0.15625 2.421875 0.15625 C 1.898438 0.15625 1.5 0.03125 1.21875 -0.21875 C 0.9375 -0.476562 0.796875 -0.84375 0.796875 -1.3125 C 0.796875 -1.457031 0.8125 -1.625 0.84375 -1.8125 C 0.882812 -2.007812 0.929688 -2.226562 0.984375 -2.46875 L 2.1875 -7.328125 L 0.828125 -7.328125 L 0.953125 -7.9375 L 4.84375 -10.5625 L 5.4375 -10.5625 L 4.734375 -7.828125 L 3.578125 -2.96875 C 3.523438 -2.71875 3.484375 -2.535156 3.453125 -2.421875 C 3.429688 -2.304688 3.421875 -2.21875 3.421875 -2.15625 C 3.421875 -1.851562 3.554688 -1.703125 3.828125 -1.703125 C 4.078125 -1.703125 4.363281 -1.816406 4.6875 -2.046875 C 5.007812 -2.285156 5.40625 -2.722656 5.875 -3.359375 Z M 3.6875 -7.328125 L 3.953125 -8.53125 L 7.09375 -8.53125 L 6.84375 -7.328125 Z M 3.6875 -7.328125 "/></g></g></g><g fill="#3d3b3a" fill-opacity="1"><g transform="translate(216.038211, 241.444568)"><g><path d="M 2.265625 0.15625 C 1.703125 0.15625 1.25 -0.0507812 0.90625 -0.46875 C 0.570312 -0.882812 0.40625 -1.421875 0.40625 -2.078125 C 0.40625 -2.992188 0.578125 -3.851562 0.921875 -4.65625 C 1.273438 -5.46875 1.726562 -6.179688 2.28125 -6.796875 C 2.84375 -7.410156 3.457031 -7.890625 4.125 -8.234375 C 4.800781 -8.578125 5.457031 -8.75 6.09375 -8.75 C 6.5 -8.75 6.847656 -8.640625 7.140625 -8.421875 C 7.429688 -8.203125 7.726562 -7.894531 8.03125 -7.5 L 7.34375 -6.875 C 7.132812 -7.070312 6.898438 -7.210938 6.640625 -7.296875 C 6.378906 -7.390625 6.113281 -7.4375 5.84375 -7.4375 C 5.46875 -7.4375 5.109375 -7.316406 4.765625 -7.078125 C 4.429688 -6.835938 4.132812 -6.5 3.875 -6.0625 C 3.625 -5.625 3.429688 -5.113281 3.296875 -4.53125 C 3.160156 -3.957031 3.09375 -3.332031 3.09375 -2.65625 C 3.09375 -2.375 3.125 -2.15625 3.1875 -2 C 3.257812 -1.84375 3.363281 -1.765625 3.5 -1.765625 C 3.664062 -1.765625 3.90625 -1.9375 4.21875 -2.28125 C 4.53125 -2.625 4.875 -3.085938 5.25 -3.671875 C 5.632812 -4.253906 6 -4.894531 6.34375 -5.59375 C 6.695312 -6.300781 6.984375 -7.007812 7.203125 -7.71875 L 7.515625 -7.953125 L 8.203125 -8.578125 L 9.890625 -8.578125 C 9.679688 -7.941406 9.472656 -7.269531 9.265625 -6.5625 C 9.054688 -5.863281 8.875 -5.179688 8.71875 -4.515625 C 8.5625 -3.847656 8.429688 -3.253906 8.328125 -2.734375 C 8.222656 -2.222656 8.171875 -1.832031 8.171875 -1.5625 C 8.429688 -1.71875 8.6875 -1.921875 8.9375 -2.171875 C 9.1875 -2.429688 9.441406 -2.722656 9.703125 -3.046875 L 10.3125 -2.359375 C 9.988281 -1.910156 9.617188 -1.492188 9.203125 -1.109375 C 8.785156 -0.722656 8.359375 -0.414062 7.921875 -0.1875 C 7.484375 0.0390625 7.070312 0.15625 6.6875 0.15625 C 6.375 0.15625 6.128906 0.0664062 5.953125 -0.109375 C 5.773438 -0.296875 5.6875 -0.5625 5.6875 -0.90625 C 5.6875 -1.113281 5.722656 -1.414062 5.796875 -1.8125 C 5.878906 -2.207031 6.007812 -2.71875 6.1875 -3.34375 C 6.363281 -3.976562 6.585938 -4.753906 6.859375 -5.671875 L 7.03125 -5.671875 C 6.625 -4.472656 6.15625 -3.4375 5.625 -2.5625 C 5.101562 -1.695312 4.554688 -1.023438 3.984375 -0.546875 C 3.421875 -0.078125 2.847656 0.15625 2.265625 0.15625 Z M 2.265625 0.15625 "/></g></g></g><g fill="#3d3b3a" fill-opacity="1"><g transform="translate(230.56298, 241.444568)"><g><path d="M 6.484375 -2.484375 C 5.847656 -1.585938 5.179688 -0.921875 4.484375 -0.484375 C 3.796875 -0.0546875 3.109375 0.15625 2.421875 0.15625 C 1.898438 0.15625 1.5 0.03125 1.21875 -0.21875 C 0.9375 -0.476562 0.796875 -0.84375 0.796875 -1.3125 C 0.796875 -1.457031 0.8125 -1.625 0.84375 -1.8125 C 0.882812 -2.007812 0.929688 -2.226562 0.984375 -2.46875 L 2.1875 -7.328125 L 0.828125 -7.328125 L 0.953125 -7.9375 L 4.84375 -10.5625 L 5.4375 -10.5625 L 4.734375 -7.828125 L 3.578125 -2.96875 C 3.523438 -2.71875 3.484375 -2.535156 3.453125 -2.421875 C 3.429688 -2.304688 3.421875 -2.21875 3.421875 -2.15625 C 3.421875 -1.851562 3.554688 -1.703125 3.828125 -1.703125 C 4.078125 -1.703125 4.363281 -1.816406 4.6875 -2.046875 C 5.007812 -2.285156 5.40625 -2.722656 5.875 -3.359375 Z M 3.6875 -7.328125 L 3.953125 -8.53125 L 7.09375 -8.53125 L 6.84375 -7.328125 Z M 3.6875 -7.328125 "/></g></g></g><g fill="#3d3b3a" fill-opacity="1"><g transform="translate(241.319138, 241.444568)"><g><path d="M 3.734375 0.15625 C 2.742188 0.15625 1.957031 -0.117188 1.375 -0.671875 C 0.800781 -1.222656 0.515625 -1.976562 0.515625 -2.9375 C 0.515625 -3.71875 0.648438 -4.453125 0.921875 -5.140625 C 1.203125 -5.835938 1.582031 -6.457031 2.0625 -7 C 2.550781 -7.539062 3.113281 -7.960938 3.75 -8.265625 C 4.382812 -8.578125 5.054688 -8.734375 5.765625 -8.734375 C 6.515625 -8.734375 7.082031 -8.578125 7.46875 -8.265625 C 7.863281 -7.960938 8.0625 -7.570312 8.0625 -7.09375 C 8.0625 -6.820312 7.988281 -6.535156 7.84375 -6.234375 C 7.695312 -5.929688 7.429688 -5.617188 7.046875 -5.296875 C 6.671875 -4.984375 6.144531 -4.644531 5.46875 -4.28125 C 4.789062 -3.925781 3.921875 -3.5625 2.859375 -3.1875 L 2.859375 -4.21875 C 3.566406 -4.507812 4.128906 -4.800781 4.546875 -5.09375 C 4.960938 -5.394531 5.253906 -5.703125 5.421875 -6.015625 C 5.597656 -6.328125 5.6875 -6.644531 5.6875 -6.96875 C 5.6875 -7.175781 5.625 -7.34375 5.5 -7.46875 C 5.382812 -7.59375 5.238281 -7.65625 5.0625 -7.65625 C 4.757812 -7.65625 4.457031 -7.476562 4.15625 -7.125 C 3.863281 -6.78125 3.617188 -6.296875 3.421875 -5.671875 C 3.222656 -5.046875 3.125 -4.316406 3.125 -3.484375 C 3.125 -2.867188 3.253906 -2.410156 3.515625 -2.109375 C 3.773438 -1.804688 4.117188 -1.65625 4.546875 -1.65625 C 4.878906 -1.65625 5.28125 -1.753906 5.75 -1.953125 C 6.21875 -2.148438 6.664062 -2.507812 7.09375 -3.03125 L 7.671875 -2.15625 C 7.085938 -1.351562 6.4375 -0.765625 5.71875 -0.390625 C 5.007812 -0.0234375 4.347656 0.15625 3.734375 0.15625 Z M 3.734375 0.15625 "/></g></g></g></svg>