<svg xmlns="http://www.w3.org/2000/svg" xmlns:xlink="http://www.w3.org/1999/xlink" width="500" zoomAndPan="magnify" viewBox="0 0 375 149.999998" height="200" preserveAspectRatio="xMidYMid meet" version="1.0"><defs><g/></defs><g fill="#3d3b3a" fill-opacity="1"><g transform="translate(34.936901, 110.382272)"><g><path d="M 9.375 -25.328125 L 18.828125 -25.328125 L 18.828125 -19.078125 L 9.375 -19.078125 L 9.375 -6.25 L 21.265625 -6.25 L 21.265625 0 L 2.5 0 L 2.5 -43.765625 L 21.265625 -43.765625 L 21.265625 -37.515625 L 9.375 -37.515625 Z M 9.375 -25.328125 "/></g></g></g><g fill="#3d3b3a" fill-opacity="1"><g transform="translate(61.698088, 110.382272)"><g><path d="M 1.625 -33.265625 C 1.625 -36.804688 2.46875 -39.523438 4.15625 -41.421875 C 5.84375 -43.316406 8.375 -44.265625 11.75 -44.265625 C 15.132812 -44.265625 17.671875 -43.316406 19.359375 -41.421875 C 21.046875 -39.523438 21.890625 -36.804688 21.890625 -33.265625 L 21.890625 -31.890625 L 15.375 -31.890625 L 15.375 -33.703125 C 15.375 -35.285156 15.070312 -36.398438 14.46875 -37.046875 C 13.863281 -37.691406 13.019531 -38.015625 11.9375 -38.015625 C 10.851562 -38.015625 10.007812 -37.691406 9.40625 -37.046875 C 8.800781 -36.398438 8.5 -35.285156 8.5 -33.703125 C 8.5 -32.203125 8.832031 -30.878906 9.5 -29.734375 C 10.164062 -28.585938 11 -27.503906 12 -26.484375 C 13 -25.460938 14.070312 -24.441406 15.21875 -23.421875 C 16.375 -22.398438 17.453125 -21.285156 18.453125 -20.078125 C 19.453125 -18.867188 20.285156 -17.488281 20.953125 -15.9375 C 21.617188 -14.394531 21.953125 -12.582031 21.953125 -10.5 C 21.953125 -6.957031 21.085938 -4.238281 19.359375 -2.34375 C 17.628906 -0.445312 15.070312 0.5 11.6875 0.5 C 8.3125 0.5 5.757812 -0.445312 4.03125 -2.34375 C 2.300781 -4.238281 1.4375 -6.957031 1.4375 -10.5 L 1.4375 -13.1875 L 7.9375 -13.1875 L 7.9375 -10.0625 C 7.9375 -8.476562 8.257812 -7.375 8.90625 -6.75 C 9.550781 -6.125 10.414062 -5.8125 11.5 -5.8125 C 12.582031 -5.8125 13.445312 -6.125 14.09375 -6.75 C 14.738281 -7.375 15.0625 -8.476562 15.0625 -10.0625 C 15.0625 -11.5625 14.726562 -12.882812 14.0625 -14.03125 C 13.394531 -15.1875 12.5625 -16.273438 11.5625 -17.296875 C 10.5625 -18.316406 9.488281 -19.335938 8.34375 -20.359375 C 7.195312 -21.378906 6.125 -22.492188 5.125 -23.703125 C 4.125 -24.910156 3.289062 -26.285156 2.625 -27.828125 C 1.957031 -29.367188 1.625 -31.179688 1.625 -33.265625 Z M 1.625 -33.265625 "/></g></g></g><g fill="#3d3b3a" fill-opacity="1"><g transform="translate(88.834418, 110.382272)"><g><path d="M 0.5 -43.765625 L 21.765625 -43.765625 L 21.765625 -37.515625 L 14.5625 -37.515625 L 14.5625 0 L 7.6875 0 L 7.6875 -37.515625 L 0.5 -37.515625 Z M 0.5 -43.765625 "/></g></g></g><g fill="#3d3b3a" fill-opacity="1"><g transform="translate(114.845299, 110.382272)"><g><path d="M 9.375 -25.328125 L 18.828125 -25.328125 L 18.828125 -19.078125 L 9.375 -19.078125 L 9.375 -6.25 L 21.265625 -6.25 L 21.265625 0 L 2.5 0 L 2.5 -43.765625 L 21.265625 -43.765625 L 21.265625 -37.515625 L 9.375 -37.515625 Z M 9.375 -25.328125 "/></g></g></g><g fill="#3d3b3a" fill-opacity="1"><g transform="translate(141.606486, 110.382272)"><g><path d="M 2.5 -43.765625 L 9.375 -43.765625 L 9.375 -6.25 L 20.703125 -6.25 L 20.703125 0 L 2.5 0 Z M 2.5 -43.765625 "/></g></g></g><g fill="#3d3b3a" fill-opacity="1"><g transform="translate(166.554428, 110.382272)"><g><path d="M 2.5 -43.765625 L 9.375 -43.765625 L 9.375 -6.25 L 20.703125 -6.25 L 20.703125 0 L 2.5 0 Z M 2.5 -43.765625 "/></g></g></g><g fill="#3d3b3a" fill-opacity="1"><g transform="translate(191.50237, 110.382272)"><g><path d="M 9.375 -25.328125 L 18.828125 -25.328125 L 18.828125 -19.078125 L 9.375 -19.078125 L 9.375 -6.25 L 21.265625 -6.25 L 21.265625 0 L 2.5 0 L 2.5 -43.765625 L 21.265625 -43.765625 L 21.265625 -37.515625 L 9.375 -37.515625 Z M 9.375 -25.328125 "/></g></g></g><g fill="#3d3b3a" fill-opacity="1"><g transform="translate(218.263547, 110.382272)"><g/></g></g><g fill="#3d3b3a" fill-opacity="1"><g transform="translate(231.706851, 110.382272)"><g><path d="M 2.5 -43.765625 L 13.375 -43.765625 C 16.84375 -43.765625 19.421875 -42.847656 21.109375 -41.015625 C 22.796875 -39.179688 23.640625 -36.492188 23.640625 -32.953125 L 23.640625 -10.8125 C 23.640625 -7.269531 22.796875 -4.582031 21.109375 -2.75 C 19.421875 -0.914062 16.84375 0 13.375 0 L 2.5 0 Z M 9.375 -37.515625 L 9.375 -6.25 L 13.25 -6.25 C 14.332031 -6.25 15.1875 -6.5625 15.8125 -7.1875 C 16.445312 -7.8125 16.765625 -8.914062 16.765625 -10.5 L 16.765625 -33.265625 C 16.765625 -34.847656 16.445312 -35.953125 15.8125 -36.578125 C 15.1875 -37.203125 14.332031 -37.515625 13.25 -37.515625 Z M 9.375 -37.515625 "/></g></g></g><g fill="#3d3b3a" fill-opacity="1"><g transform="translate(260.969051, 110.382272)"><g><path d="M 24.765625 0 L 17.828125 0 L 16.640625 -7.9375 L 8.1875 -7.9375 L 7 0 L 0.6875 0 L 7.6875 -43.765625 L 17.765625 -43.765625 Z M 9.0625 -13.875 L 15.703125 -13.875 L 12.375 -36.015625 Z M 9.0625 -13.875 "/></g></g></g><g fill="#3d3b3a" fill-opacity="1"><g transform="translate(290.168705, 110.382272)"><g><path d="M 16.890625 0 C 16.804688 -0.289062 16.722656 -0.5625 16.640625 -0.8125 C 16.554688 -1.0625 16.484375 -1.375 16.421875 -1.75 C 16.359375 -2.125 16.316406 -2.601562 16.296875 -3.1875 C 16.273438 -3.769531 16.265625 -4.5 16.265625 -5.375 L 16.265625 -12.25 C 16.265625 -14.289062 15.90625 -15.726562 15.1875 -16.5625 C 14.476562 -17.40625 13.332031 -17.828125 11.75 -17.828125 L 9.375 -17.828125 L 9.375 0 L 2.5 0 L 2.5 -43.765625 L 12.875 -43.765625 C 16.46875 -43.765625 19.066406 -42.929688 20.671875 -41.265625 C 22.273438 -39.597656 23.078125 -37.078125 23.078125 -33.703125 L 23.078125 -30.265625 C 23.078125 -25.765625 21.578125 -22.804688 18.578125 -21.390625 C 20.328125 -20.679688 21.523438 -19.519531 22.171875 -17.90625 C 22.816406 -16.300781 23.140625 -14.351562 23.140625 -12.0625 L 23.140625 -5.3125 C 23.140625 -4.226562 23.179688 -3.28125 23.265625 -2.46875 C 23.347656 -1.65625 23.554688 -0.832031 23.890625 0 Z M 9.375 -37.515625 L 9.375 -24.078125 L 12.0625 -24.078125 C 13.351562 -24.078125 14.363281 -24.410156 15.09375 -25.078125 C 15.832031 -25.742188 16.203125 -26.953125 16.203125 -28.703125 L 16.203125 -33.015625 C 16.203125 -34.597656 15.914062 -35.742188 15.34375 -36.453125 C 14.78125 -37.160156 13.894531 -37.515625 12.6875 -37.515625 Z M 9.375 -37.515625 "/></g></g></g><g fill="#3d3b3a" fill-opacity="1"><g transform="translate(319.055744, 110.382272)"><g><path d="M 22.453125 -16.328125 L 22.453125 -10.5 C 22.453125 -6.957031 21.585938 -4.238281 19.859375 -2.34375 C 18.128906 -0.445312 15.570312 0.5 12.1875 0.5 C 8.8125 0.5 6.257812 -0.445312 4.53125 -2.34375 C 2.800781 -4.238281 1.9375 -6.957031 1.9375 -10.5 L 1.9375 -33.265625 C 1.9375 -36.804688 2.800781 -39.523438 4.53125 -41.421875 C 6.257812 -43.316406 8.8125 -44.265625 12.1875 -44.265625 C 15.570312 -44.265625 18.128906 -43.316406 19.859375 -41.421875 C 21.585938 -39.523438 22.453125 -36.804688 22.453125 -33.265625 L 22.453125 -29.015625 L 15.953125 -29.015625 L 15.953125 -33.703125 C 15.953125 -35.285156 15.625 -36.398438 14.96875 -37.046875 C 14.320312 -37.691406 13.457031 -38.015625 12.375 -38.015625 C 11.289062 -38.015625 10.425781 -37.691406 9.78125 -37.046875 C 9.132812 -36.398438 8.8125 -35.285156 8.8125 -33.703125 L 8.8125 -10.0625 C 8.8125 -8.476562 9.132812 -7.375 9.78125 -6.75 C 10.425781 -6.125 11.289062 -5.8125 12.375 -5.8125 C 13.457031 -5.8125 14.320312 -6.125 14.96875 -6.75 C 15.625 -7.375 15.953125 -8.476562 15.953125 -10.0625 L 15.953125 -16.328125 Z M 22.453125 -16.328125 "/></g></g></g><g fill="#3d3b3a" fill-opacity="1"><g transform="translate(346.942387, 110.382272)"><g><path d="M 8.9375 -14.5 L 0.25 -43.765625 L 7.4375 -43.765625 L 12.6875 -23.828125 L 17.953125 -43.765625 L 24.515625 -43.765625 L 15.828125 -14.5 L 15.828125 0 L 8.9375 0 Z M 8.9375 -14.5 "/></g></g></g><path stroke-linecap="butt" transform="matrix(-0.0116123, -1.172407, 1.172407, -0.0116123, 1.776242, 138.203886)" fill="none" stroke-linejoin="miter" d="M -0.000787936 2.499797 L 73.589148 2.499014 " stroke="#3d3b3a" stroke-width="5" stroke-opacity="1" stroke-miterlimit="4"/><path stroke-linecap="butt" transform="matrix(-1.172453, -0.00515286, 0.00515286, -1.172453, 105.849547, 139.752812)" fill="none" stroke-linejoin="miter" d="M -0.000722017 2.501169 L 88.628891 2.501455 " stroke="#3d3b3a" stroke-width="5" stroke-opacity="1" stroke-miterlimit="4"/><path stroke-linecap="butt" transform="matrix(0.829058, -0.829058, 0.829058, 0.829058, 0.943675, 51.602049)" fill="none" stroke-linejoin="miter" d="M -0.0010749 2.500238 L 62.249573 2.500238 " stroke="#3d3b3a" stroke-width="5" stroke-opacity="1" stroke-miterlimit="4"/><path stroke-linecap="butt" transform="matrix(0.829058, 0.829058, -0.829058, 0.829058, 53.228314, 0.0121938)" fill="none" stroke-linejoin="miter" d="M 0.00101325 2.500313 L 62.232815 2.500313 " stroke="#3d3b3a" stroke-width="5" stroke-opacity="1" stroke-miterlimit="4"/><g fill="#3d3b3a" fill-opacity="1"><g transform="translate(125.685452, 141.64454)"><g><path d="M 8.453125 -8.234375 C 8.140625 -8.234375 7.835938 -8.097656 7.546875 -7.828125 C 7.253906 -7.554688 6.960938 -7.179688 6.671875 -6.703125 C 6.390625 -6.222656 6.097656 -5.660156 5.796875 -5.015625 C 5.398438 -4.148438 5.050781 -3.269531 4.75 -2.375 C 4.445312 -1.476562 4.21875 -0.6875 4.0625 0 L 0.8125 0 C 1.03125 -0.6875 1.257812 -1.457031 1.5 -2.3125 C 1.75 -3.164062 1.984375 -4.015625 2.203125 -4.859375 C 2.429688 -5.703125 2.609375 -6.472656 2.734375 -7.171875 C 2.867188 -7.878906 2.9375 -8.410156 2.9375 -8.765625 C 2.625 -8.578125 2.304688 -8.320312 1.984375 -8 C 1.671875 -7.6875 1.351562 -7.289062 1.03125 -6.8125 L 0.265625 -7.796875 C 0.671875 -8.347656 1.132812 -8.863281 1.65625 -9.34375 C 2.175781 -9.820312 2.707031 -10.203125 3.25 -10.484375 C 3.789062 -10.773438 4.296875 -10.921875 4.765625 -10.921875 C 5.117188 -10.921875 5.382812 -10.820312 5.5625 -10.625 C 5.75 -10.425781 5.84375 -10.101562 5.84375 -9.65625 C 5.84375 -9.40625 5.785156 -8.96875 5.671875 -8.34375 C 5.566406 -7.726562 5.382812 -6.941406 5.125 -5.984375 C 4.863281 -5.023438 4.488281 -3.898438 4 -2.609375 L 3.90625 -2.609375 C 4.3125 -3.722656 4.710938 -4.78125 5.109375 -5.78125 C 5.515625 -6.78125 5.925781 -7.664062 6.34375 -8.4375 C 6.769531 -9.207031 7.222656 -9.8125 7.703125 -10.25 C 8.179688 -10.695312 8.71875 -10.921875 9.3125 -10.921875 C 9.75 -10.921875 10.082031 -10.800781 10.3125 -10.5625 C 10.539062 -10.332031 10.65625 -10.003906 10.65625 -9.578125 C 10.65625 -9.253906 10.582031 -8.910156 10.4375 -8.546875 C 10.289062 -8.191406 10.078125 -7.867188 9.796875 -7.578125 C 9.597656 -7.765625 9.375 -7.921875 9.125 -8.046875 C 8.882812 -8.171875 8.660156 -8.234375 8.453125 -8.234375 Z M 8.453125 -8.234375 "/></g></g></g><g fill="#3d3b3a" fill-opacity="1"><g transform="translate(140.871258, 141.64454)"><g><path d="M 4.671875 0.203125 C 3.429688 0.203125 2.445312 -0.140625 1.71875 -0.828125 C 1 -1.523438 0.640625 -2.472656 0.640625 -3.671875 C 0.640625 -4.640625 0.8125 -5.5625 1.15625 -6.4375 C 1.507812 -7.3125 1.988281 -8.082031 2.59375 -8.75 C 3.195312 -9.425781 3.894531 -9.957031 4.6875 -10.34375 C 5.488281 -10.726562 6.328125 -10.921875 7.203125 -10.921875 C 8.148438 -10.921875 8.867188 -10.726562 9.359375 -10.34375 C 9.847656 -9.957031 10.09375 -9.46875 10.09375 -8.875 C 10.09375 -8.53125 10 -8.171875 9.8125 -7.796875 C 9.625 -7.421875 9.289062 -7.03125 8.8125 -6.625 C 8.34375 -6.226562 7.679688 -5.804688 6.828125 -5.359375 C 5.984375 -4.910156 4.894531 -4.453125 3.5625 -3.984375 L 3.5625 -5.28125 C 4.457031 -5.632812 5.164062 -6 5.6875 -6.375 C 6.207031 -6.75 6.570312 -7.128906 6.78125 -7.515625 C 7 -7.910156 7.109375 -8.3125 7.109375 -8.71875 C 7.109375 -8.976562 7.035156 -9.1875 6.890625 -9.34375 C 6.742188 -9.5 6.554688 -9.578125 6.328125 -9.578125 C 5.953125 -9.578125 5.578125 -9.351562 5.203125 -8.90625 C 4.828125 -8.46875 4.515625 -7.859375 4.265625 -7.078125 C 4.023438 -6.296875 3.90625 -5.382812 3.90625 -4.34375 C 3.90625 -3.582031 4.066406 -3.015625 4.390625 -2.640625 C 4.722656 -2.265625 5.15625 -2.078125 5.6875 -2.078125 C 6.09375 -2.078125 6.585938 -2.195312 7.171875 -2.4375 C 7.765625 -2.6875 8.332031 -3.132812 8.875 -3.78125 L 9.59375 -2.6875 C 8.863281 -1.695312 8.050781 -0.96875 7.15625 -0.5 C 6.257812 -0.03125 5.429688 0.203125 4.671875 0.203125 Z M 4.671875 0.203125 "/></g></g></g><g fill="#3d3b3a" fill-opacity="1"><g transform="translate(156.179166, 141.64454)"><g><path d="M 2.828125 0.203125 C 2.128906 0.203125 1.566406 -0.0546875 1.140625 -0.578125 C 0.722656 -1.109375 0.515625 -1.78125 0.515625 -2.59375 C 0.515625 -3.75 0.726562 -4.832031 1.15625 -5.84375 C 1.59375 -6.851562 2.160156 -7.738281 2.859375 -8.5 C 3.554688 -9.269531 4.320312 -9.867188 5.15625 -10.296875 C 6 -10.722656 6.820312 -10.9375 7.625 -10.9375 C 8.125 -10.9375 8.554688 -10.796875 8.921875 -10.515625 C 9.296875 -10.242188 9.671875 -9.863281 10.046875 -9.375 L 9.1875 -8.59375 C 8.925781 -8.84375 8.628906 -9.023438 8.296875 -9.140625 C 7.972656 -9.253906 7.640625 -9.3125 7.296875 -9.3125 C 6.828125 -9.3125 6.378906 -9.160156 5.953125 -8.859375 C 5.535156 -8.554688 5.164062 -8.128906 4.84375 -7.578125 C 4.53125 -7.035156 4.285156 -6.398438 4.109375 -5.671875 C 3.941406 -4.953125 3.859375 -4.171875 3.859375 -3.328125 C 3.859375 -2.960938 3.898438 -2.679688 3.984375 -2.484375 C 4.078125 -2.296875 4.207031 -2.203125 4.375 -2.203125 C 4.582031 -2.203125 4.878906 -2.414062 5.265625 -2.84375 C 5.660156 -3.28125 6.09375 -3.863281 6.5625 -4.59375 C 7.039062 -5.320312 7.5 -6.125 7.9375 -7 C 8.375 -7.882812 8.734375 -8.769531 9.015625 -9.65625 L 9.40625 -9.9375 L 10.265625 -10.71875 L 12.359375 -10.71875 C 12.097656 -9.925781 11.835938 -9.085938 11.578125 -8.203125 C 11.316406 -7.328125 11.085938 -6.472656 10.890625 -5.640625 C 10.703125 -4.804688 10.539062 -4.066406 10.40625 -3.421875 C 10.28125 -2.785156 10.21875 -2.296875 10.21875 -1.953125 C 10.539062 -2.148438 10.859375 -2.40625 11.171875 -2.71875 C 11.492188 -3.039062 11.816406 -3.40625 12.140625 -3.8125 L 12.90625 -2.953125 C 12.488281 -2.378906 12.019531 -1.851562 11.5 -1.375 C 10.976562 -0.894531 10.445312 -0.507812 9.90625 -0.21875 C 9.363281 0.0625 8.847656 0.203125 8.359375 0.203125 C 7.960938 0.203125 7.65625 0.0859375 7.4375 -0.140625 C 7.21875 -0.367188 7.109375 -0.695312 7.109375 -1.125 C 7.109375 -1.382812 7.15625 -1.757812 7.25 -2.25 C 7.351562 -2.75 7.515625 -3.394531 7.734375 -4.1875 C 7.953125 -4.976562 8.234375 -5.941406 8.578125 -7.078125 L 8.796875 -7.078125 C 8.285156 -5.585938 7.703125 -4.300781 7.046875 -3.21875 C 6.390625 -2.132812 5.707031 -1.289062 5 -0.6875 C 4.289062 -0.09375 3.566406 0.203125 2.828125 0.203125 Z M 2.828125 0.203125 "/></g></g></g><g fill="#3d3b3a" fill-opacity="1"><g transform="translate(174.34426, 141.64454)"><g><path d="M 2.171875 0.203125 C 1.710938 0.203125 1.359375 0.0859375 1.109375 -0.140625 C 0.867188 -0.367188 0.75 -0.703125 0.75 -1.140625 C 0.75 -1.367188 0.765625 -1.597656 0.796875 -1.828125 C 0.835938 -2.054688 0.910156 -2.40625 1.015625 -2.875 C 1.117188 -3.351562 1.285156 -4.054688 1.515625 -4.984375 L 3.9375 -14.609375 L 2.171875 -14.859375 L 2.390625 -15.828125 L 7.15625 -17.03125 L 7.75 -16.609375 C 7.445312 -15.617188 7.1875 -14.71875 6.96875 -13.90625 C 6.75 -13.101562 6.550781 -12.359375 6.375 -11.671875 L 4.609375 -4.953125 C 4.503906 -4.484375 4.40625 -4.046875 4.3125 -3.640625 C 4.21875 -3.242188 4.148438 -2.898438 4.109375 -2.609375 C 4.078125 -2.316406 4.0625 -2.097656 4.0625 -1.953125 C 4.363281 -2.148438 4.671875 -2.40625 4.984375 -2.71875 C 5.304688 -3.039062 5.628906 -3.40625 5.953125 -3.8125 L 6.71875 -2.953125 C 6.3125 -2.378906 5.847656 -1.851562 5.328125 -1.375 C 4.804688 -0.894531 4.269531 -0.507812 3.71875 -0.21875 C 3.175781 0.0625 2.660156 0.203125 2.171875 0.203125 Z M 2.171875 0.203125 "/></g></g></g><g fill="#3d3b3a" fill-opacity="1"><g transform="translate(186.379836, 141.64454)"><g/></g></g><g fill="#3d3b3a" fill-opacity="1"><g transform="translate(196.193157, 141.64454)"><g><path d="M 4.671875 0.203125 C 3.429688 0.203125 2.445312 -0.140625 1.71875 -0.828125 C 1 -1.523438 0.640625 -2.472656 0.640625 -3.671875 C 0.640625 -4.640625 0.8125 -5.5625 1.15625 -6.4375 C 1.507812 -7.3125 1.988281 -8.082031 2.59375 -8.75 C 3.195312 -9.425781 3.894531 -9.957031 4.6875 -10.34375 C 5.488281 -10.726562 6.328125 -10.921875 7.203125 -10.921875 C 8.148438 -10.921875 8.867188 -10.726562 9.359375 -10.34375 C 9.847656 -9.957031 10.09375 -9.46875 10.09375 -8.875 C 10.09375 -8.53125 10 -8.171875 9.8125 -7.796875 C 9.625 -7.421875 9.289062 -7.03125 8.8125 -6.625 C 8.34375 -6.226562 7.679688 -5.804688 6.828125 -5.359375 C 5.984375 -4.910156 4.894531 -4.453125 3.5625 -3.984375 L 3.5625 -5.28125 C 4.457031 -5.632812 5.164062 -6 5.6875 -6.375 C 6.207031 -6.75 6.570312 -7.128906 6.78125 -7.515625 C 7 -7.910156 7.109375 -8.3125 7.109375 -8.71875 C 7.109375 -8.976562 7.035156 -9.1875 6.890625 -9.34375 C 6.742188 -9.5 6.554688 -9.578125 6.328125 -9.578125 C 5.953125 -9.578125 5.578125 -9.351562 5.203125 -8.90625 C 4.828125 -8.46875 4.515625 -7.859375 4.265625 -7.078125 C 4.023438 -6.296875 3.90625 -5.382812 3.90625 -4.34375 C 3.90625 -3.582031 4.066406 -3.015625 4.390625 -2.640625 C 4.722656 -2.265625 5.15625 -2.078125 5.6875 -2.078125 C 6.09375 -2.078125 6.585938 -2.195312 7.171875 -2.4375 C 7.765625 -2.6875 8.332031 -3.132812 8.875 -3.78125 L 9.59375 -2.6875 C 8.863281 -1.695312 8.050781 -0.96875 7.15625 -0.5 C 6.257812 -0.03125 5.429688 0.203125 4.671875 0.203125 Z M 4.671875 0.203125 "/></g></g></g><g fill="#3d3b3a" fill-opacity="1"><g transform="translate(211.501069, 141.64454)"><g><path d="M 3.328125 0.203125 C 2.640625 0.203125 2.035156 0.101562 1.515625 -0.09375 C 1.003906 -0.289062 0.609375 -0.546875 0.328125 -0.859375 C 0.0546875 -1.179688 -0.078125 -1.519531 -0.078125 -1.875 C -0.078125 -2.1875 -0.0078125 -2.476562 0.125 -2.75 C 0.269531 -3.03125 0.445312 -3.28125 0.65625 -3.5 C 1.175781 -2.875 1.742188 -2.363281 2.359375 -1.96875 C 2.972656 -1.570312 3.5 -1.375 3.9375 -1.375 C 4.257812 -1.375 4.523438 -1.453125 4.734375 -1.609375 C 4.953125 -1.773438 5.0625 -2.035156 5.0625 -2.390625 C 5.0625 -2.671875 4.945312 -2.941406 4.71875 -3.203125 C 4.5 -3.460938 4.035156 -3.8125 3.328125 -4.25 C 2.816406 -4.59375 2.398438 -4.914062 2.078125 -5.21875 C 1.765625 -5.519531 1.539062 -5.820312 1.40625 -6.125 C 1.269531 -6.425781 1.203125 -6.753906 1.203125 -7.109375 C 1.203125 -7.859375 1.40625 -8.515625 1.8125 -9.078125 C 2.226562 -9.648438 2.785156 -10.097656 3.484375 -10.421875 C 4.191406 -10.753906 4.960938 -10.921875 5.796875 -10.921875 C 6.359375 -10.921875 6.867188 -10.847656 7.328125 -10.703125 C 7.785156 -10.566406 8.148438 -10.359375 8.421875 -10.078125 C 8.703125 -9.804688 8.84375 -9.457031 8.84375 -9.03125 C 8.84375 -8.726562 8.785156 -8.453125 8.671875 -8.203125 C 8.554688 -7.960938 8.398438 -7.742188 8.203125 -7.546875 C 7.648438 -8.210938 7.132812 -8.695312 6.65625 -9 C 6.1875 -9.300781 5.75 -9.453125 5.34375 -9.453125 C 4.957031 -9.453125 4.648438 -9.34375 4.421875 -9.125 C 4.191406 -8.914062 4.078125 -8.660156 4.078125 -8.359375 C 4.078125 -8.160156 4.125 -7.976562 4.21875 -7.8125 C 4.320312 -7.65625 4.503906 -7.460938 4.765625 -7.234375 C 5.035156 -7.015625 5.429688 -6.726562 5.953125 -6.375 C 6.460938 -6.03125 6.863281 -5.71875 7.15625 -5.4375 C 7.445312 -5.15625 7.65625 -4.875 7.78125 -4.59375 C 7.914062 -4.3125 7.984375 -4.003906 7.984375 -3.671875 C 7.984375 -2.953125 7.773438 -2.296875 7.359375 -1.703125 C 6.953125 -1.117188 6.390625 -0.65625 5.671875 -0.3125 C 4.960938 0.03125 4.179688 0.203125 3.328125 0.203125 Z M 3.328125 0.203125 "/></g></g></g><g fill="#3d3b3a" fill-opacity="1"><g transform="translate(225.563541, 141.64454)"><g><path d="M 8.109375 -3.109375 C 7.304688 -1.984375 6.472656 -1.148438 5.609375 -0.609375 C 4.753906 -0.0664062 3.894531 0.203125 3.03125 0.203125 C 2.375 0.203125 1.867188 0.046875 1.515625 -0.265625 C 1.171875 -0.585938 1 -1.046875 1 -1.640625 C 1 -1.816406 1.019531 -2.023438 1.0625 -2.265625 C 1.101562 -2.515625 1.15625 -2.785156 1.21875 -3.078125 L 2.734375 -9.15625 L 1.03125 -9.15625 L 1.203125 -9.921875 L 6.0625 -13.21875 L 6.796875 -13.21875 L 5.90625 -9.796875 L 4.46875 -3.71875 C 4.40625 -3.40625 4.359375 -3.175781 4.328125 -3.03125 C 4.296875 -2.882812 4.28125 -2.769531 4.28125 -2.6875 C 4.28125 -2.3125 4.445312 -2.125 4.78125 -2.125 C 5.09375 -2.125 5.453125 -2.269531 5.859375 -2.5625 C 6.265625 -2.851562 6.765625 -3.398438 7.359375 -4.203125 Z M 4.609375 -9.15625 L 4.9375 -10.671875 L 8.875 -10.671875 L 8.546875 -9.15625 Z M 4.609375 -9.15625 "/></g></g></g><g fill="#3d3b3a" fill-opacity="1"><g transform="translate(239.015503, 141.64454)"><g><path d="M 2.828125 0.203125 C 2.128906 0.203125 1.566406 -0.0546875 1.140625 -0.578125 C 0.722656 -1.109375 0.515625 -1.78125 0.515625 -2.59375 C 0.515625 -3.75 0.726562 -4.832031 1.15625 -5.84375 C 1.59375 -6.851562 2.160156 -7.738281 2.859375 -8.5 C 3.554688 -9.269531 4.320312 -9.867188 5.15625 -10.296875 C 6 -10.722656 6.820312 -10.9375 7.625 -10.9375 C 8.125 -10.9375 8.554688 -10.796875 8.921875 -10.515625 C 9.296875 -10.242188 9.671875 -9.863281 10.046875 -9.375 L 9.1875 -8.59375 C 8.925781 -8.84375 8.628906 -9.023438 8.296875 -9.140625 C 7.972656 -9.253906 7.640625 -9.3125 7.296875 -9.3125 C 6.828125 -9.3125 6.378906 -9.160156 5.953125 -8.859375 C 5.535156 -8.554688 5.164062 -8.128906 4.84375 -7.578125 C 4.53125 -7.035156 4.285156 -6.398438 4.109375 -5.671875 C 3.941406 -4.953125 3.859375 -4.171875 3.859375 -3.328125 C 3.859375 -2.960938 3.898438 -2.679688 3.984375 -2.484375 C 4.078125 -2.296875 4.207031 -2.203125 4.375 -2.203125 C 4.582031 -2.203125 4.878906 -2.414062 5.265625 -2.84375 C 5.660156 -3.28125 6.09375 -3.863281 6.5625 -4.59375 C 7.039062 -5.320312 7.5 -6.125 7.9375 -7 C 8.375 -7.882812 8.734375 -8.769531 9.015625 -9.65625 L 9.40625 -9.9375 L 10.265625 -10.71875 L 12.359375 -10.71875 C 12.097656 -9.925781 11.835938 -9.085938 11.578125 -8.203125 C 11.316406 -7.328125 11.085938 -6.472656 10.890625 -5.640625 C 10.703125 -4.804688 10.539062 -4.066406 10.40625 -3.421875 C 10.28125 -2.785156 10.21875 -2.296875 10.21875 -1.953125 C 10.539062 -2.148438 10.859375 -2.40625 11.171875 -2.71875 C 11.492188 -3.039062 11.816406 -3.40625 12.140625 -3.8125 L 12.90625 -2.953125 C 12.488281 -2.378906 12.019531 -1.851562 11.5 -1.375 C 10.976562 -0.894531 10.445312 -0.507812 9.90625 -0.21875 C 9.363281 0.0625 8.847656 0.203125 8.359375 0.203125 C 7.960938 0.203125 7.65625 0.0859375 7.4375 -0.140625 C 7.21875 -0.367188 7.109375 -0.695312 7.109375 -1.125 C 7.109375 -1.382812 7.15625 -1.757812 7.25 -2.25 C 7.351562 -2.75 7.515625 -3.394531 7.734375 -4.1875 C 7.953125 -4.976562 8.234375 -5.941406 8.578125 -7.078125 L 8.796875 -7.078125 C 8.285156 -5.585938 7.703125 -4.300781 7.046875 -3.21875 C 6.390625 -2.132812 5.707031 -1.289062 5 -0.6875 C 4.289062 -0.09375 3.566406 0.203125 2.828125 0.203125 Z M 2.828125 0.203125 "/></g></g></g><g fill="#3d3b3a" fill-opacity="1"><g transform="translate(257.180599, 141.64454)"><g><path d="M 8.109375 -3.109375 C 7.304688 -1.984375 6.472656 -1.148438 5.609375 -0.609375 C 4.753906 -0.0664062 3.894531 0.203125 3.03125 0.203125 C 2.375 0.203125 1.867188 0.046875 1.515625 -0.265625 C 1.171875 -0.585938 1 -1.046875 1 -1.640625 C 1 -1.816406 1.019531 -2.023438 1.0625 -2.265625 C 1.101562 -2.515625 1.15625 -2.785156 1.21875 -3.078125 L 2.734375 -9.15625 L 1.03125 -9.15625 L 1.203125 -9.921875 L 6.0625 -13.21875 L 6.796875 -13.21875 L 5.90625 -9.796875 L 4.46875 -3.71875 C 4.40625 -3.40625 4.359375 -3.175781 4.328125 -3.03125 C 4.296875 -2.882812 4.28125 -2.769531 4.28125 -2.6875 C 4.28125 -2.3125 4.445312 -2.125 4.78125 -2.125 C 5.09375 -2.125 5.453125 -2.269531 5.859375 -2.5625 C 6.265625 -2.851562 6.765625 -3.398438 7.359375 -4.203125 Z M 4.609375 -9.15625 L 4.9375 -10.671875 L 8.875 -10.671875 L 8.546875 -9.15625 Z M 4.609375 -9.15625 "/></g></g></g><g fill="#3d3b3a" fill-opacity="1"><g transform="translate(270.632562, 141.64454)"><g><path d="M 4.671875 0.203125 C 3.429688 0.203125 2.445312 -0.140625 1.71875 -0.828125 C 1 -1.523438 0.640625 -2.472656 0.640625 -3.671875 C 0.640625 -4.640625 0.8125 -5.5625 1.15625 -6.4375 C 1.507812 -7.3125 1.988281 -8.082031 2.59375 -8.75 C 3.195312 -9.425781 3.894531 -9.957031 4.6875 -10.34375 C 5.488281 -10.726562 6.328125 -10.921875 7.203125 -10.921875 C 8.148438 -10.921875 8.867188 -10.726562 9.359375 -10.34375 C 9.847656 -9.957031 10.09375 -9.46875 10.09375 -8.875 C 10.09375 -8.53125 10 -8.171875 9.8125 -7.796875 C 9.625 -7.421875 9.289062 -7.03125 8.8125 -6.625 C 8.34375 -6.226562 7.679688 -5.804688 6.828125 -5.359375 C 5.984375 -4.910156 4.894531 -4.453125 3.5625 -3.984375 L 3.5625 -5.28125 C 4.457031 -5.632812 5.164062 -6 5.6875 -6.375 C 6.207031 -6.75 6.570312 -7.128906 6.78125 -7.515625 C 7 -7.910156 7.109375 -8.3125 7.109375 -8.71875 C 7.109375 -8.976562 7.035156 -9.1875 6.890625 -9.34375 C 6.742188 -9.5 6.554688 -9.578125 6.328125 -9.578125 C 5.953125 -9.578125 5.578125 -9.351562 5.203125 -8.90625 C 4.828125 -8.46875 4.515625 -7.859375 4.265625 -7.078125 C 4.023438 -6.296875 3.90625 -5.382812 3.90625 -4.34375 C 3.90625 -3.582031 4.066406 -3.015625 4.390625 -2.640625 C 4.722656 -2.265625 5.15625 -2.078125 5.6875 -2.078125 C 6.09375 -2.078125 6.585938 -2.195312 7.171875 -2.4375 C 7.765625 -2.6875 8.332031 -3.132812 8.875 -3.78125 L 9.59375 -2.6875 C 8.863281 -1.695312 8.050781 -0.96875 7.15625 -0.5 C 6.257812 -0.03125 5.429688 0.203125 4.671875 0.203125 Z M 4.671875 0.203125 "/></g></g></g></svg>