<svg xmlns="http://www.w3.org/2000/svg" xmlns:xlink="http://www.w3.org/1999/xlink" width="500" zoomAndPan="magnify" viewBox="0 0 375 374.999991" height="500" preserveAspectRatio="xMidYMid meet" version="1.0"><defs><clipPath id="b19bcc1462"><path d="M 3 0 L 374.777344 0 L 374.777344 374.25 L 3 374.25 Z M 3 0 " clip-rule="nonzero"/></clipPath></defs><g clip-path="url(#b19bcc1462)"><path fill="#ffffff" d="M 369.730469 136.625 L 318.550781 114.121094 C 321.535156 105.039062 323.035156 97.171875 323.035156 90.554688 C 323.035156 40.621094 282.417969 0 232.496094 0 C 182.578125 0 141.964844 40.621094 141.964844 90.554688 C 141.964844 97.988281 143.859375 106.996094 147.625 117.53125 L 86.46875 86.851562 C 84.523438 85.878906 82.253906 85.796875 80.242188 86.609375 C 78.230469 87.433594 76.667969 89.085938 75.960938 91.136719 L 3.511719 301.472656 C 2.230469 305.191406 4.023438 309.269531 7.628906 310.84375 L 126.460938 362.542969 C 128.253906 363.316406 130.28125 363.371094 132.105469 362.691406 L 216.902344 330.988281 L 328.214844 373.714844 C 329.089844 374.046875 330 374.210938 330.914062 374.210938 C 332.222656 374.210938 333.519531 373.871094 334.679688 373.210938 C 336.648438 372.070312 337.996094 370.109375 338.359375 367.863281 L 374.140625 144.722656 C 374.683594 141.332031 372.875 138.007812 369.730469 136.625 Z M 232.496094 15.078125 C 274.109375 15.078125 307.960938 48.9375 307.960938 90.554688 C 307.960938 123.230469 258.019531 195.160156 232.496094 228.476562 C 215.160156 205.851562 186.570312 165.410156 170.003906 131.558594 C 169.597656 130.730469 169.207031 129.910156 168.8125 129.085938 C 161.660156 114.070312 157.039062 100.5 157.039062 90.554688 C 157.039062 48.9375 190.890625 15.078125 232.496094 15.078125 Z M 237.246094 249.695312 L 315.839844 232.398438 L 301.929688 315.34375 L 224.160156 290.640625 Z M 248.929688 231.691406 C 257 220.902344 268.699219 204.757812 280.308594 186.960938 C 286.390625 177.632812 291.832031 168.8125 296.625 160.511719 L 326.082031 171.285156 L 318.519531 216.371094 Z M 112.398438 214.871094 C 112.359375 214.996094 112.328125 215.125 112.296875 215.253906 C 112.269531 215.375 112.246094 215.503906 112.222656 215.625 C 112.214844 215.667969 112.199219 215.722656 112.199219 215.765625 C 112.179688 215.871094 112.164062 215.976562 112.15625 216.082031 C 112.148438 216.089844 112.148438 216.105469 112.148438 216.113281 C 112.148438 216.121094 112.148438 216.128906 112.148438 216.128906 C 112.132812 216.195312 112.132812 216.273438 112.125 216.347656 C 112.117188 216.414062 112.117188 216.484375 112.109375 216.558594 C 112.101562 216.710938 112.09375 216.867188 112.09375 217.019531 C 112.09375 217.160156 112.101562 217.3125 112.109375 217.457031 C 112.109375 217.46875 112.109375 217.484375 112.117188 217.5 C 112.117188 217.546875 112.117188 217.582031 112.125 217.621094 C 112.140625 217.816406 112.164062 218.007812 112.191406 218.1875 C 112.214844 218.324219 112.238281 218.457031 112.277344 218.585938 C 112.304688 218.730469 112.335938 218.859375 112.375 218.992188 C 112.382812 219.007812 112.382812 219.03125 112.390625 219.046875 C 112.410156 219.136719 112.441406 219.226562 112.464844 219.316406 C 112.480469 219.355469 112.496094 219.394531 112.507812 219.429688 C 112.5625 219.597656 112.621094 219.753906 112.691406 219.914062 C 112.765625 220.09375 112.847656 220.273438 112.945312 220.449219 C 113.023438 220.597656 113.097656 220.742188 113.1875 220.878906 C 113.21875 220.921875 113.25 220.976562 113.277344 221.023438 C 113.332031 221.121094 113.398438 221.21875 113.472656 221.308594 C 113.519531 221.390625 113.574219 221.457031 113.625 221.527344 C 113.632812 221.542969 113.640625 221.550781 113.648438 221.558594 C 113.761719 221.707031 113.875 221.84375 114.003906 221.980469 C 114.0625 222.0625 114.136719 222.144531 114.226562 222.21875 C 114.273438 222.273438 114.328125 222.332031 114.378906 222.378906 C 114.425781 222.429688 114.476562 222.476562 114.53125 222.523438 C 114.539062 222.535156 114.550781 222.542969 114.558594 222.550781 C 114.6875 222.671875 114.816406 222.777344 114.953125 222.890625 C 115.003906 222.929688 115.066406 222.972656 115.117188 223.011719 C 115.222656 223.09375 115.335938 223.179688 115.449219 223.246094 C 115.503906 223.289062 115.5625 223.320312 115.613281 223.359375 C 115.734375 223.433594 115.855469 223.507812 115.984375 223.570312 C 116.042969 223.613281 116.113281 223.644531 116.179688 223.675781 C 116.292969 223.742188 116.414062 223.796875 116.542969 223.847656 C 116.609375 223.886719 116.683594 223.917969 116.753906 223.9375 C 116.835938 223.976562 116.910156 224.007812 116.996094 224.039062 C 117.078125 224.066406 117.160156 224.097656 117.242188 224.121094 C 117.257812 224.136719 117.28125 224.144531 117.296875 224.144531 C 117.492188 224.210938 117.695312 224.269531 117.90625 224.316406 L 118.109375 224.363281 L 118.148438 224.367188 L 118.171875 224.375 L 141.316406 229.828125 L 88.082031 291.628906 L 56.324219 280.136719 L 106.835938 146.148438 L 129.832031 155.015625 Z M 143.949219 160.449219 L 175.4375 172.589844 C 175.5 172.613281 175.558594 172.632812 175.621094 172.65625 C 178.460938 177.285156 181.484375 182.050781 184.6875 186.960938 C 196.402344 204.917969 208.203125 221.179688 216.285156 231.96875 L 129.09375 211.453125 Z M 157.863281 233.71875 L 221.726562 248.734375 L 208.65625 289.636719 L 143.933594 311.839844 L 103.253906 297.125 Z M 324.941406 356.304688 L 219.636719 315.886719 C 217.921875 315.234375 216.027344 315.226562 214.300781 315.867188 L 129.6875 347.5 L 20.035156 299.792969 L 87.410156 104.191406 L 156.84375 139.023438 C 158.855469 143.125 161.066406 147.386719 163.492188 151.820312 L 141.710938 143.425781 L 105.167969 129.34375 C 103.292969 128.628906 101.210938 128.679688 99.378906 129.503906 C 97.539062 130.324219 96.117188 131.839844 95.40625 133.722656 L 39.53125 281.96875 C 38.816406 283.855469 38.890625 285.949219 39.738281 287.78125 C 40.582031 289.613281 42.117188 291.03125 44.015625 291.71875 L 87.679688 307.519531 C 87.75 307.542969 87.816406 307.574219 87.886719 307.59375 L 141.300781 326.925781 C 142.921875 327.507812 144.6875 327.523438 146.316406 326.964844 L 214.777344 303.480469 L 305.648438 332.347656 C 306.394531 332.582031 307.164062 332.699219 307.921875 332.699219 C 309.304688 332.699219 310.660156 332.324219 311.859375 331.59375 C 313.71875 330.453125 315 328.5625 315.363281 326.40625 L 332.527344 223.976562 C 332.539062 223.9375 332.546875 223.894531 332.546875 223.847656 L 341.976562 167.597656 C 342.582031 164.023438 340.546875 160.519531 337.136719 159.273438 L 304.011719 147.160156 C 307.554688 140.441406 310.597656 134.125 313.148438 128.214844 L 358.332031 148.085938 Z M 170.003906 131.558594 C 169.597656 130.730469 169.207031 129.910156 168.8125 129.085938 C 169.363281 129.835938 169.761719 130.679688 170.003906 131.558594 Z M 232.496094 126.816406 C 212.34375 126.816406 195.941406 110.414062 195.941406 90.253906 C 195.941406 70.09375 212.34375 53.6875 232.496094 53.6875 C 252.652344 53.6875 269.054688 70.09375 269.054688 90.253906 C 269.054688 110.414062 252.652344 126.816406 232.496094 126.816406 Z M 232.496094 68.765625 C 220.65625 68.765625 211.015625 78.402344 211.015625 90.253906 C 211.015625 102.105469 220.648438 111.738281 232.496094 111.738281 C 244.339844 111.738281 253.980469 102.105469 253.980469 90.253906 C 253.980469 78.402344 244.339844 68.765625 232.496094 68.765625 Z M 232.496094 68.765625 " fill-opacity="1" fill-rule="nonzero"/></g></svg>