<svg xmlns="http://www.w3.org/2000/svg" xmlns:xlink="http://www.w3.org/1999/xlink" width="500" zoomAndPan="magnify" viewBox="0 0 375 374.999991" height="500" preserveAspectRatio="xMidYMid meet" version="1.0"><defs><clipPath id="125057ae31"><path d="M 58.828125 0 L 316.078125 0 L 316.078125 369 L 58.828125 369 Z M 58.828125 0 " clip-rule="nonzero"/></clipPath></defs><g clip-path="url(#125057ae31)"><path fill="#000000" d="M 187.503906 0.121094 C 258.566406 0.121094 316.175781 57.734375 316.175781 128.796875 C 316.175781 153.523438 309.199219 176.617188 297.109375 196.222656 C 282.605469 220.246094 268.105469 244.269531 253.605469 268.292969 C 235.941406 297 221.652344 320.230469 203.992188 348.941406 C 188.421875 374.253906 187.371094 374.875 171.71875 349.433594 C 154.148438 320.867188 139.375 296.855469 121.804688 268.292969 C 107.335938 244.539062 92.871094 220.785156 78.402344 197.035156 C 66.003906 177.253906 58.828125 153.867188 58.828125 128.796875 C 58.828125 57.734375 116.4375 0.121094 187.503906 0.121094 Z M 187.503906 64.636719 C 219.359375 64.636719 245.1875 90.460938 245.1875 122.320312 C 245.1875 154.179688 219.363281 180.003906 187.503906 180.003906 C 155.644531 180.003906 129.816406 154.179688 129.816406 122.320312 C 129.816406 90.460938 155.644531 64.636719 187.503906 64.636719 Z M 187.503906 64.636719 " fill-opacity="1" fill-rule="evenodd"/></g></svg>
