<svg xmlns="http://www.w3.org/2000/svg" xmlns:xlink="http://www.w3.org/1999/xlink" width="500" zoomAndPan="magnify" viewBox="0 0 375 374.999991" height="500" preserveAspectRatio="xMidYMid meet" version="1.0"><path fill="#ffffff" d="M 8.503906 0 L 366.496094 0 C 371.191406 0 375 3.808594 375 8.503906 L 375 366.496094 C 375 371.191406 371.191406 375 366.496094 375 L 8.503906 375 C 3.808594 375 0 371.191406 0 366.496094 L 0 8.503906 C 0 3.808594 3.808594 0 8.503906 0 Z M 84.582031 145.605469 C 79.890625 145.605469 76.082031 141.796875 76.082031 137.105469 C 76.082031 132.410156 79.890625 128.601562 84.582031 128.601562 L 319.289062 128.601562 C 323.984375 128.601562 327.792969 132.410156 327.792969 137.105469 C 327.792969 141.796875 323.984375 145.605469 319.289062 145.605469 Z M 84.582031 202.644531 C 79.890625 202.644531 76.082031 198.835938 76.082031 194.144531 C 76.082031 189.449219 79.890625 185.640625 84.582031 185.640625 L 319.289062 185.640625 C 323.984375 185.640625 327.792969 189.449219 327.792969 194.144531 C 327.792969 198.835938 323.984375 202.644531 319.289062 202.644531 Z M 84.582031 259.59375 C 79.890625 259.59375 76.082031 255.875 76.082031 251.179688 C 76.082031 246.488281 79.890625 242.679688 84.582031 242.679688 L 319.289062 242.679688 C 323.984375 242.679688 327.792969 246.488281 327.792969 251.179688 C 327.792969 255.875 323.984375 259.59375 319.289062 259.59375 Z M 84.582031 316.632812 C 79.890625 316.632812 76.082031 312.824219 76.082031 308.128906 C 76.082031 303.523438 79.890625 299.714844 84.582031 299.714844 L 319.289062 299.714844 C 323.984375 299.714844 327.792969 303.523438 327.792969 308.128906 C 327.792969 312.824219 323.984375 316.632812 319.289062 316.632812 Z M 55.710938 316.632812 C 51.015625 316.632812 47.207031 312.824219 47.207031 308.128906 C 47.207031 303.523438 51.015625 299.714844 55.710938 299.714844 L 55.886719 299.714844 C 60.582031 299.714844 64.390625 303.523438 64.390625 308.128906 C 64.390625 312.824219 60.582031 316.632812 55.886719 316.632812 Z M 55.710938 259.59375 C 51.015625 259.59375 47.207031 255.875 47.207031 251.179688 C 47.207031 246.488281 51.015625 242.679688 55.710938 242.679688 L 55.886719 242.679688 C 60.582031 242.679688 64.390625 246.488281 64.390625 251.179688 C 64.390625 255.875 60.582031 259.59375 55.886719 259.59375 Z M 55.710938 202.644531 C 51.015625 202.644531 47.207031 198.835938 47.207031 194.144531 C 47.207031 189.449219 51.015625 185.640625 55.710938 185.640625 L 55.886719 185.640625 C 60.582031 185.640625 64.390625 189.449219 64.390625 194.144531 C 64.390625 198.835938 60.582031 202.644531 55.886719 202.644531 Z M 319.289062 96.71875 L 55.710938 96.71875 C 51.015625 96.71875 47.207031 92.910156 47.207031 88.214844 L 47.207031 52.433594 C 47.207031 47.738281 51.015625 43.929688 55.710938 43.929688 L 319.289062 43.929688 C 323.984375 43.929688 327.792969 47.738281 327.792969 52.433594 L 327.792969 88.214844 C 327.792969 92.910156 323.984375 96.71875 319.289062 96.71875 Z M 64.210938 79.800781 L 310.789062 79.800781 L 310.789062 60.933594 L 64.210938 60.933594 Z M 55.710938 145.605469 C 51.015625 145.605469 47.207031 141.796875 47.207031 137.105469 C 47.207031 132.410156 51.015625 128.601562 55.710938 128.601562 L 55.886719 128.601562 C 60.582031 128.601562 64.390625 132.410156 64.390625 137.105469 C 64.390625 141.796875 60.582031 145.605469 55.886719 145.605469 Z M 357.996094 17.003906 L 17.003906 17.003906 L 17.003906 357.996094 L 357.996094 357.996094 Z M 357.996094 17.003906 " fill-opacity="1" fill-rule="nonzero"/></svg>