<svg xmlns="http://www.w3.org/2000/svg" xmlns:xlink="http://www.w3.org/1999/xlink" width="500" zoomAndPan="magnify" viewBox="0 0 375 374.999991" height="500" preserveAspectRatio="xMidYMid meet" version="1.0"><defs><clipPath id="3bc7dcbc25"><path d="M 3 6 L 361 6 L 361 374.847656 L 3 374.847656 Z M 3 6 " clip-rule="nonzero"/></clipPath></defs><g clip-path="url(#3bc7dcbc25)"><path fill="#ffffff" d="M 344.539062 334.039062 L 344.621094 334.039062 Z M 64.320312 22.964844 C 60.777344 22.964844 57.425781 24.570312 53.785156 27.757812 C 53.386719 28.136719 48.175781 33.078125 44.785156 36.304688 L 41.828125 39.101562 C 24.542969 55.261719 16.703125 84.351562 21.863281 113.226562 C 23.519531 122.546875 26.199219 132.210938 29.824219 141.9375 C 48.09375 191.003906 82.777344 233.664062 108.660156 260.820312 C 134.425781 288.152344 175.175781 325.070312 223.1875 345.9375 C 232.710938 350.074219 242.210938 353.269531 251.429688 355.429688 C 279.984375 362.121094 309.457031 355.851562 326.507812 339.464844 L 329.347656 336.761719 C 332.648438 333.648438 337.800781 328.769531 338.546875 328.054688 C 349.164062 317.128906 343.859375 308.050781 322.5625 286.390625 L 317.234375 280.925781 C 303.746094 266.925781 281.109375 243.480469 261.976562 245.769531 C 256.773438 246.382812 251.339844 250.179688 245.59375 254.1875 C 239.886719 258.171875 233.988281 262.285156 226.914062 264.527344 C 207.921875 270.550781 188.660156 266.589844 172.652344 253.40625 C 163.085938 245.515625 153.347656 236.289062 144.503906 226.742188 C 135.558594 217.523438 126.871094 207.3125 119.515625 197.34375 C 107.210938 180.664062 104.296875 161.21875 111.316406 142.574219 C 113.9375 135.625 118.363281 129.957031 122.644531 124.472656 C 126.960938 118.945312 131.039062 113.726562 131.925781 108.5625 C 135.21875 89.53125 113.035156 65.726562 99.773438 51.496094 L 94.609375 45.886719 C 80.558594 30.519531 72.011719 22.964844 64.320312 22.964844 Z M 274.472656 374.996094 C 264.925781 374.996094 255.75 373.835938 247.566406 371.917969 C 237.363281 369.535156 226.886719 366.011719 216.429688 361.46875 C 165.785156 339.464844 123.1875 300.925781 96.371094 272.472656 C 69.421875 244.207031 33.222656 199.601562 13.953125 147.847656 C 9.972656 137.171875 7.027344 126.523438 5.183594 116.199219 C 0.300781 88.84375 4.316406 50.972656 30.261719 26.738281 L 33.125 24.015625 C 36.734375 20.589844 42.351562 15.253906 42.582031 15.054688 C 68.53125 -7.730469 91.753906 17.660156 107.105469 34.464844 L 112.167969 39.953125 C 127.566406 56.476562 153.339844 84.136719 148.617188 111.449219 C 147 120.796875 141.152344 128.289062 135.996094 134.898438 C 132.332031 139.582031 128.871094 144.015625 127.167969 148.542969 C 122.164062 161.820312 124.238281 175.21875 133.144531 187.289062 C 140.058594 196.648438 148.234375 206.261719 156.796875 215.089844 C 165.269531 224.234375 174.4375 232.914062 183.425781 240.335938 C 195.007812 249.882812 208.273438 252.65625 221.800781 248.386719 C 226.410156 246.914062 231.015625 243.703125 235.890625 240.300781 C 242.773438 235.503906 250.558594 230.058594 259.984375 228.949219 C 287.59375 225.691406 313.757812 252.910156 329.429688 269.171875 L 334.648438 274.515625 C 350.601562 290.75 374.714844 315.289062 350.601562 339.957031 C 350.222656 340.320312 344.5625 345.695312 340.988281 349.066406 L 338.234375 351.679688 C 320.394531 368.832031 296.488281 374.996094 274.472656 374.996094 " fill-opacity="1" fill-rule="nonzero"/></g></svg>