<svg xmlns="http://www.w3.org/2000/svg" xmlns:xlink="http://www.w3.org/1999/xlink" width="500" zoomAndPan="magnify" viewBox="0 0 375 374.999991" height="500" preserveAspectRatio="xMidYMid meet" version="1.0"><defs><clipPath id="507e2b18ea"><path d="M 0 0 L 375 0 L 375 374.25 L 0 374.25 Z M 0 0 " clip-rule="nonzero"/></clipPath></defs><g clip-path="url(#507e2b18ea)"><path fill="#ffffff" d="M 318.777344 53.726562 C 283.507812 19.058594 236.945312 0.0117188 187.523438 0.0117188 C 187.070312 0.0117188 186.609375 0.0117188 186.144531 0.0117188 C 83.644531 0.738281 0.257812 85.496094 0.257812 188.933594 L 0.257812 363.457031 C 0.257812 367.917969 2.953125 371.949219 7.070312 373.660156 C 8.441406 374.222656 9.875 374.5 11.300781 374.5 C 14.171875 374.5 17 373.371094 19.105469 371.261719 L 50.355469 340.015625 C 57.433594 332.9375 68.496094 332.175781 76.679688 338.183594 C 108.984375 361.933594 147.300781 374.488281 187.503906 374.488281 C 187.535156 374.488281 187.570312 374.488281 187.601562 374.488281 C 237.773438 374.464844 284.964844 354.65625 320.488281 318.726562 C 356.019531 282.785156 375.285156 235.339844 374.734375 185.144531 C 374.203125 135.359375 354.320312 88.6875 318.777344 53.726562 Z M 304.796875 303.222656 C 273.460938 334.925781 231.835938 352.402344 187.601562 352.425781 C 187.570312 352.425781 187.546875 352.425781 187.511719 352.425781 C 152.046875 352.425781 118.25 341.351562 89.761719 320.40625 C 82.132812 314.796875 73.265625 312.035156 64.476562 312.035156 C 53.65625 312.035156 42.933594 316.21875 34.742188 324.414062 L 22.34375 336.8125 L 22.34375 188.945312 C 22.34375 97.597656 95.890625 22.757812 186.300781 22.105469 C 186.707031 22.105469 187.09375 22.105469 187.492188 22.105469 C 277.679688 22.105469 351.667969 95.125 352.664062 185.421875 C 353.148438 229.664062 336.15625 271.511719 304.796875 303.222656 Z M 304.796875 303.222656 " fill-opacity="1" fill-rule="nonzero"/></g><path fill="#ffffff" d="M 253.277344 219.882812 C 247.4375 214.042969 237.972656 214.042969 232.132812 219.882812 L 223.222656 228.792969 C 223.179688 228.835938 217.898438 233.308594 209.695312 234.722656 C 192.140625 237.738281 174.308594 224.222656 162.4375 212.351562 C 127.039062 176.953125 142.484375 155.519531 146.261719 151.292969 L 154.90625 142.648438 C 160.75 136.804688 160.75 127.34375 154.90625 121.5 L 140.808594 107.402344 C 134.964844 101.5625 125.503906 101.5625 119.664062 107.402344 L 110.753906 116.3125 C 108.15625 118.90625 94.996094 133.050781 90.945312 156.636719 C 87.289062 177.925781 90.601562 210.992188 127.191406 247.585938 C 156.742188 277.132812 183.992188 284.984375 204.59375 284.984375 C 209.507812 284.984375 214.035156 284.542969 218.144531 283.835938 C 241.726562 279.785156 255.871094 266.621094 258.46875 264.027344 L 267.378906 255.117188 C 273.21875 249.273438 273.21875 239.8125 267.378906 233.972656 Z M 146.207031 151.335938 C 146.0625 151.492188 145.984375 151.558594 145.984375 151.558594 Z M 146.207031 151.335938 " fill-opacity="1" fill-rule="nonzero"/></svg>